<svg xmlns="http://www.w3.org/2000/svg" xmlns:xlink="http://www.w3.org/1999/xlink" id="body_4" preserveAspectRatio="xMinYMin meet" viewBox="0 0 793 1123"><defs><clipPath id="1"><path d="M0 842L0 0L0 0L595 0L595 0L595 842L595 842L0 842z" /></clipPath><clipPath id="2"><path d="M10.00001 706.9982L585.0039 706.9982L585.0039 706.9982L585.0039 84.99524L585.0039 84.99524L10.00001 84.99524z" /></clipPath><clipPath id="3"><path d="M17.34361 780.4341L577.6603 780.4341L577.6603 780.4341L577.6603 11.5592L577.6603 11.5592L17.34361 11.5592z" /></clipPath><clipPath id="4"><path d="M17.34361 780.4341L577.6603 780.4341L577.6603 780.4341L577.6603 11.5592L577.6603 11.5592L17.34361 11.5592z" /></clipPath><clipPath id="5"><path d="M17.34361 780.4341L577.6603 780.4341L577.6603 780.4341L577.6603 11.5592L577.6603 11.5592L17.34361 11.5592z" /></clipPath><clipPath id="6"><path d="M17.34361 780.4341L577.6603 780.4341L577.6603 780.4341L577.6603 11.5592L577.6603 11.5592L17.34361 11.5592z" /></clipPath><clipPath id="7"><path d="M17.34361 780.4341L577.6603 780.4341L577.6603 780.4341L577.6603 11.5592L577.6603 11.5592L17.34361 11.5592z" /></clipPath><clipPath id="8"><path d="M17.34361 780.4341L577.6603 780.4341L577.6603 780.4341L577.6603 11.5592L577.6603 11.5592L17.34361 11.5592z" /></clipPath><clipPath id="9"><path d="M17.34361 780.4341L577.6603 780.4341L577.6603 780.4341L577.6603 11.5592L577.6603 11.5592L17.34361 11.5592z" /></clipPath><clipPath id="10"><path d="M17.34361 780.4341L577.6603 780.4341L577.6603 780.4341L577.6603 11.5592L577.6603 11.5592L17.34361 11.5592z" /></clipPath><clipPath id="11"><path d="M17.34361 780.4341L577.6603 780.4341L577.6603 780.4341L577.6603 11.5592L577.6603 11.5592L17.34361 11.5592z" /></clipPath><clipPath id="12"><path d="M17.34361 780.4341L577.6603 780.4341L577.6603 780.4341L577.6603 11.5592L577.6603 11.5592L17.34361 11.5592z" /></clipPath><clipPath id="13"><path d="M17.34361 780.4341L577.6603 780.4341L577.6603 780.4341L577.6603 11.5592L577.6603 11.5592L17.34361 11.5592z" /></clipPath><clipPath id="14"><path d="M17.34361 780.4341L577.6603 780.4341L577.6603 780.4341L577.6603 11.5592L577.6603 11.5592L17.34361 11.5592z" /></clipPath><clipPath id="15"><path d="M17.34361 780.4341L577.6603 780.4341L577.6603 780.4341L577.6603 11.5592L577.6603 11.5592L17.34361 11.5592z" /></clipPath><clipPath id="16"><path d="M17.34361 780.4341L577.6603 780.4341L577.6603 780.4341L577.6603 11.5592L577.6603 11.5592L17.34361 11.5592z" /></clipPath><clipPath id="17"><path d="M17.34361 780.4341L577.6603 780.4341L577.6603 780.4341L577.6603 11.5592L577.6603 11.5592L17.34361 11.5592z" /></clipPath><clipPath id="18"><path d="M17.34361 780.4341L577.6603 780.4341L577.6603 780.4341L577.6603 11.5592L577.6603 11.5592L17.34361 11.5592z" /></clipPath><clipPath id="19"><path d="M17.34361 780.4341L577.6603 780.4341L577.6603 780.4341L577.6603 11.5592L577.6603 11.5592L17.34361 11.5592z" /></clipPath><clipPath id="20"><path d="M17.34361 780.4341L577.6603 780.4341L577.6603 780.4341L577.6603 11.5592L577.6603 11.5592L17.34361 11.5592z" /></clipPath><clipPath id="21"><path d="M17.34361 780.4341L577.6603 780.4341L577.6603 780.4341L577.6603 11.5592L577.6603 11.5592L17.34361 11.5592z" /></clipPath><clipPath id="22"><path d="M17.34361 780.4341L577.6603 780.4341L577.6603 780.4341L577.6603 11.5592L577.6603 11.5592L17.34361 11.5592z" /></clipPath><clipPath id="23"><path d="M17.34361 780.4341L577.6603 780.4341L577.6603 780.4341L577.6603 11.5592L577.6603 11.5592L17.34361 11.5592z" /></clipPath><clipPath id="24"><path d="M17.34361 780.4341L577.6603 780.4341L577.6603 780.4341L577.6603 11.5592L577.6603 11.5592L17.34361 11.5592z" /></clipPath><clipPath id="25"><path d="M17.34361 780.4341L577.6603 780.4341L577.6603 780.4341L577.6603 11.5592L577.6603 11.5592L17.34361 11.5592z" /></clipPath><clipPath id="26"><path d="M17.34361 780.4341L577.6603 780.4341L577.6603 780.4341L577.6603 11.5592L577.6603 11.5592L17.34361 11.5592z" /></clipPath><clipPath id="27"><path d="M17.34361 780.4341L577.6603 780.4341L577.6603 780.4341L577.6603 11.5592L577.6603 11.5592L17.34361 11.5592z" /></clipPath><clipPath id="28"><path d="M17.34361 780.4341L577.6603 780.4341L577.6603 780.4341L577.6603 11.5592L577.6603 11.5592L17.34361 11.5592z" /></clipPath><clipPath id="29"><path d="M17.34361 780.4341L577.6603 780.4341L577.6603 780.4341L577.6603 11.5592L577.6603 11.5592L17.34361 11.5592z" /></clipPath><clipPath id="30"><path d="M17.34361 780.4341L577.6603 780.4341L577.6603 780.4341L577.6603 11.5592L577.6603 11.5592L17.34361 11.5592z" /></clipPath><clipPath id="31"><path d="M17.34361 780.4341L577.6603 780.4341L577.6603 780.4341L577.6603 11.5592L577.6603 11.5592L17.34361 11.5592z" /></clipPath><clipPath id="32"><path d="M17.34361 780.4341L577.6603 780.4341L577.6603 780.4341L577.6603 11.5592L577.6603 11.5592L17.34361 11.5592z" /></clipPath><clipPath id="33"><path d="M17.34361 780.4341L577.6603 780.4341L577.6603 780.4341L577.6603 11.5592L577.6603 11.5592L17.34361 11.5592z" /></clipPath><clipPath id="34"><path d="M17.34361 780.4341L577.6603 780.4341L577.6603 780.4341L577.6603 11.5592L577.6603 11.5592L17.34361 11.5592z" /></clipPath><clipPath id="35"><path d="M17.34361 780.4341L577.6603 780.4341L577.6603 780.4341L577.6603 11.5592L577.6603 11.5592L17.34361 11.5592z" /></clipPath><clipPath id="36"><path d="M17.34361 780.4341L577.6603 780.4341L577.6603 780.4341L577.6603 11.5592L577.6603 11.5592L17.34361 11.5592z" /></clipPath><clipPath id="37"><path d="M17.34361 780.4341L577.6603 780.4341L577.6603 780.4341L577.6603 11.5592L577.6603 11.5592L17.34361 11.5592z" /></clipPath><clipPath id="38"><path d="M17.34361 780.4341L577.6603 780.4341L577.6603 780.4341L577.6603 11.5592L577.6603 11.5592L17.34361 11.5592z" /></clipPath><clipPath id="39"><path d="M17.34361 780.4341L577.6603 780.4341L577.6603 780.4341L577.6603 11.5592L577.6603 11.5592L17.34361 11.5592z" /></clipPath><clipPath id="40"><path d="M17.34361 780.4341L577.6603 780.4341L577.6603 780.4341L577.6603 11.5592L577.6603 11.5592L17.34361 11.5592z" /></clipPath><clipPath id="41"><path d="M17.34361 780.4341L577.6603 780.4341L577.6603 780.4341L577.6603 11.5592L577.6603 11.5592L17.34361 11.5592z" /></clipPath><clipPath id="42"><path d="M17.34361 780.4341L577.6603 780.4341L577.6603 780.4341L577.6603 11.5592L577.6603 11.5592L17.34361 11.5592z" /></clipPath><clipPath id="43"><path d="M17.34361 780.4341L577.6603 780.4341L577.6603 780.4341L577.6603 11.5592L577.6603 11.5592L17.34361 11.5592z" /></clipPath><clipPath id="44"><path d="M17.34361 780.4341L577.6603 780.4341L577.6603 780.4341L577.6603 11.5592L577.6603 11.5592L17.34361 11.5592z" /></clipPath><clipPath id="45"><path d="M17.34361 780.4341L577.6603 780.4341L577.6603 780.4341L577.6603 11.5592L577.6603 11.5592L17.34361 11.5592z" /></clipPath><clipPath id="46"><path d="M17.34361 780.4341L577.6603 780.4341L577.6603 780.4341L577.6603 11.5592L577.6603 11.5592L17.34361 11.5592z" /></clipPath><clipPath id="47"><path d="M17.34361 780.4341L577.6603 780.4341L577.6603 780.4341L577.6603 11.5592L577.6603 11.5592L17.34361 11.5592z" /></clipPath><clipPath id="48"><path d="M17.34361 780.4341L577.6603 780.4341L577.6603 780.4341L577.6603 11.5592L577.6603 11.5592L17.34361 11.5592z" /></clipPath><clipPath id="49"><path d="M17.34361 780.4341L577.6603 780.4341L577.6603 780.4341L577.6603 11.5592L577.6603 11.5592L17.34361 11.5592z" /></clipPath><clipPath id="50"><path d="M17.34361 780.4341L577.6603 780.4341L577.6603 780.4341L577.6603 11.5592L577.6603 11.5592L17.34361 11.5592z" /></clipPath><clipPath id="51"><path d="M17.34361 780.4341L577.6603 780.4341L577.6603 780.4341L577.6603 11.5592L577.6603 11.5592L17.34361 11.5592z" /></clipPath><clipPath id="52"><path d="M17.34361 780.4341L577.6603 780.4341L577.6603 780.4341L577.6603 11.5592L577.6603 11.5592L17.34361 11.5592z" /></clipPath><clipPath id="53"><path d="M17.34361 780.4341L577.6603 780.4341L577.6603 780.4341L577.6603 11.5592L577.6603 11.5592L17.34361 11.5592z" /></clipPath><clipPath id="54"><path d="M17.34361 780.4341L577.6603 780.4341L577.6603 780.4341L577.6603 11.5592L577.6603 11.5592L17.34361 11.5592z" /></clipPath><clipPath id="55"><path d="M17.34361 780.4341L577.6603 780.4341L577.6603 780.4341L577.6603 11.5592L577.6603 11.5592L17.34361 11.5592z" /></clipPath><clipPath id="56"><path d="M17.34361 780.4341L577.6603 780.4341L577.6603 780.4341L577.6603 11.5592L577.6603 11.5592L17.34361 11.5592z" /></clipPath><clipPath id="57"><path d="M17.34361 780.4341L577.6603 780.4341L577.6603 780.4341L577.6603 11.5592L577.6603 11.5592L17.34361 11.5592z" /></clipPath><clipPath id="58"><path d="M17.34361 780.4341L577.6603 780.4341L577.6603 780.4341L577.6603 11.5592L577.6603 11.5592L17.34361 11.5592z" /></clipPath><clipPath id="59"><path d="M17.34361 780.4341L577.6603 780.4341L577.6603 780.4341L577.6603 11.5592L577.6603 11.5592L17.34361 11.5592z" /></clipPath><clipPath id="60"><path d="M17.34361 780.4341L577.6603 780.4341L577.6603 780.4341L577.6603 11.5592L577.6603 11.5592L17.34361 11.5592z" /></clipPath><clipPath id="61"><path d="M72.42061 780.4341L218.5582 780.4341L218.5582 780.4341L218.5582 11.5592L218.5582 11.5592L72.42061 11.5592z" /></clipPath><clipPath id="62"><path d="M219.2926 780.4341L257.4793 780.4341L257.4793 780.4341L257.4793 11.5592L257.4793 11.5592L219.2926 11.5592z" /></clipPath><clipPath id="63"><path d="M219.2926 780.4341L257.4793 780.4341L257.4793 780.4341L257.4793 11.5592L257.4793 11.5592L219.2926 11.5592z" /></clipPath><clipPath id="64"><path d="M258.2137 780.4341L350.743 780.4341L350.743 780.4341L350.743 11.5592L350.743 11.5592L258.2137 11.5592z" /></clipPath><clipPath id="65"><path d="M351.4774 780.4341L414.6324 780.4341L414.6324 780.4341L414.6324 11.5592L414.6324 11.5592L351.4774 11.5592z" /></clipPath><clipPath id="66"><path d="M351.4774 780.4341L414.6324 780.4341L414.6324 780.4341L414.6324 11.5592L414.6324 11.5592L351.4774 11.5592z" /></clipPath><clipPath id="67"><path d="M351.4774 780.4341L414.6324 780.4341L414.6324 780.4341L414.6324 11.5592L414.6324 11.5592L351.4774 11.5592z" /></clipPath><clipPath id="68"><path d="M351.4774 780.4341L414.6324 780.4341L414.6324 780.4341L414.6324 11.5592L414.6324 11.5592L351.4774 11.5592z" /></clipPath><clipPath id="69"><path d="M415.3667 780.4341L478.5217 780.4341L478.5217 780.4341L478.5217 11.5592L478.5217 11.5592L415.3667 11.5592z" /></clipPath><clipPath id="70"><path d="M415.3667 780.4341L478.5217 780.4341L478.5217 780.4341L478.5217 11.5592L478.5217 11.5592L415.3667 11.5592z" /></clipPath><clipPath id="71"><path d="M415.3667 780.4341L478.5217 780.4341L478.5217 780.4341L478.5217 11.5592L478.5217 11.5592L415.3667 11.5592z" /></clipPath><clipPath id="72"><path d="M479.256 780.4341L541.6766 780.4341L541.6766 780.4341L541.6766 11.5592L541.6766 11.5592L479.256 11.5592z" /></clipPath><clipPath id="73"><path d="M479.256 780.4341L541.6766 780.4341L541.6766 780.4341L541.6766 11.5592L541.6766 11.5592L479.256 11.5592z" /></clipPath><clipPath id="74"><path d="M479.256 780.4341L541.6766 780.4341L541.6766 780.4341L541.6766 11.5592L541.6766 11.5592L479.256 11.5592z" /></clipPath><clipPath id="75"><path d="M53.32725 780.4341L71.68625 780.4341L71.68625 780.4341L71.68625 11.5592L71.68625 11.5592L53.32725 11.5592z" /></clipPath><clipPath id="76"><path d="M72.42061 780.4341L218.5582 780.4341L218.5582 780.4341L218.5582 11.5592L218.5582 11.5592L72.42061 11.5592z" /></clipPath><clipPath id="77"><path d="M219.2926 780.4341L257.4793 780.4341L257.4793 780.4341L257.4793 11.5592L257.4793 11.5592L219.2926 11.5592z" /></clipPath><clipPath id="78"><path d="M258.2137 780.4341L350.743 780.4341L350.743 780.4341L350.743 11.5592L350.743 11.5592L258.2137 11.5592z" /></clipPath><clipPath id="79"><path d="M258.2137 780.4341L350.743 780.4341L350.743 780.4341L350.743 11.5592L350.743 11.5592L258.2137 11.5592z" /></clipPath><clipPath id="80"><path d="M258.2137 780.4341L350.743 780.4341L350.743 780.4341L350.743 11.5592L350.743 11.5592L258.2137 11.5592z" /></clipPath><clipPath id="81"><path d="M258.2137 780.4341L350.743 780.4341L350.743 780.4341L350.743 11.5592L350.743 11.5592L258.2137 11.5592z" /></clipPath><clipPath id="82"><path d="M258.2137 780.4341L350.743 780.4341L350.743 780.4341L350.743 11.5592L350.743 11.5592L258.2137 11.5592z" /></clipPath><clipPath id="83"><path d="M258.2137 780.4341L350.743 780.4341L350.743 780.4341L350.743 11.5592L350.743 11.5592L258.2137 11.5592z" /></clipPath><clipPath id="84"><path d="M258.2137 780.4341L350.743 780.4341L350.743 780.4341L350.743 11.5592L350.743 11.5592L258.2137 11.5592z" /></clipPath><clipPath id="85"><path d="M258.2137 780.4341L350.743 780.4341L350.743 780.4341L350.743 11.5592L350.743 11.5592L258.2137 11.5592z" /></clipPath><clipPath id="86"><path d="M258.2137 780.4341L350.743 780.4341L350.743 780.4341L350.743 11.5592L350.743 11.5592L258.2137 11.5592z" /></clipPath><clipPath id="87"><path d="M258.2137 780.4341L350.743 780.4341L350.743 780.4341L350.743 11.5592L350.743 11.5592L258.2137 11.5592z" /></clipPath><clipPath id="88"><path d="M258.2137 780.4341L350.743 780.4341L350.743 780.4341L350.743 11.5592L350.743 11.5592L258.2137 11.5592z" /></clipPath><clipPath id="89"><path d="M258.2137 780.4341L350.743 780.4341L350.743 780.4341L350.743 11.5592L350.743 11.5592L258.2137 11.5592z" /></clipPath><clipPath id="90"><path d="M351.4774 780.4341L414.6324 780.4341L414.6324 780.4341L414.6324 11.5592L414.6324 11.5592L351.4774 11.5592z" /></clipPath><clipPath id="91"><path d="M351.4774 780.4341L414.6324 780.4341L414.6324 780.4341L414.6324 11.5592L414.6324 11.5592L351.4774 11.5592z" /></clipPath><clipPath id="92"><path d="M415.3667 780.4341L478.5217 780.4341L478.5217 780.4341L478.5217 11.5592L478.5217 11.5592L415.3667 11.5592z" /></clipPath><clipPath id="93"><path d="M479.256 780.4341L541.6766 780.4341L541.6766 780.4341L541.6766 11.5592L541.6766 11.5592L479.256 11.5592z" /></clipPath><clipPath id="94"><path d="M53.32725 780.4341L71.68625 780.4341L71.68625 780.4341L71.68625 11.5592L71.68625 11.5592L53.32725 11.5592z" /></clipPath><clipPath id="95"><path d="M72.42061 780.4341L218.5582 780.4341L218.5582 780.4341L218.5582 11.5592L218.5582 11.5592L72.42061 11.5592z" /></clipPath><clipPath id="96"><path d="M219.2926 780.4341L257.4793 780.4341L257.4793 780.4341L257.4793 11.5592L257.4793 11.5592L219.2926 11.5592z" /></clipPath><clipPath id="97"><path d="M258.2137 780.4341L350.743 780.4341L350.743 780.4341L350.743 11.5592L350.743 11.5592L258.2137 11.5592z" /></clipPath><clipPath id="98"><path d="M258.2137 780.4341L350.743 780.4341L350.743 780.4341L350.743 11.5592L350.743 11.5592L258.2137 11.5592z" /></clipPath><clipPath id="99"><path d="M258.2137 780.4341L350.743 780.4341L350.743 780.4341L350.743 11.5592L350.743 11.5592L258.2137 11.5592z" /></clipPath><clipPath id="100"><path d="M258.2137 780.4341L350.743 780.4341L350.743 780.4341L350.743 11.5592L350.743 11.5592L258.2137 11.5592z" /></clipPath><clipPath id="101"><path d="M258.2137 780.4341L350.743 780.4341L350.743 780.4341L350.743 11.5592L350.743 11.5592L258.2137 11.5592z" /></clipPath><clipPath id="102"><path d="M258.2137 780.4341L350.743 780.4341L350.743 780.4341L350.743 11.5592L350.743 11.5592L258.2137 11.5592z" /></clipPath><clipPath id="103"><path d="M258.2137 780.4341L350.743 780.4341L350.743 780.4341L350.743 11.5592L350.743 11.5592L258.2137 11.5592z" /></clipPath><clipPath id="104"><path d="M258.2137 780.4341L350.743 780.4341L350.743 780.4341L350.743 11.5592L350.743 11.5592L258.2137 11.5592z" /></clipPath><clipPath id="105"><path d="M258.2137 780.4341L350.743 780.4341L350.743 780.4341L350.743 11.5592L350.743 11.5592L258.2137 11.5592z" /></clipPath><clipPath id="106"><path d="M258.2137 780.4341L350.743 780.4341L350.743 780.4341L350.743 11.5592L350.743 11.5592L258.2137 11.5592z" /></clipPath><clipPath id="107"><path d="M258.2137 780.4341L350.743 780.4341L350.743 780.4341L350.743 11.5592L350.743 11.5592L258.2137 11.5592z" /></clipPath><clipPath id="108"><path d="M258.2137 780.4341L350.743 780.4341L350.743 780.4341L350.743 11.5592L350.743 11.5592L258.2137 11.5592z" /></clipPath><clipPath id="109"><path d="M258.2137 780.4341L350.743 780.4341L350.743 780.4341L350.743 11.5592L350.743 11.5592L258.2137 11.5592z" /></clipPath><clipPath id="110"><path d="M351.4774 780.4341L414.6324 780.4341L414.6324 780.4341L414.6324 11.5592L414.6324 11.5592L351.4774 11.5592z" /></clipPath><clipPath id="111"><path d="M351.4774 780.4341L414.6324 780.4341L414.6324 780.4341L414.6324 11.5592L414.6324 11.5592L351.4774 11.5592z" /></clipPath><clipPath id="112"><path d="M415.3667 780.4341L478.5217 780.4341L478.5217 780.4341L478.5217 11.5592L478.5217 11.5592L415.3667 11.5592z" /></clipPath><clipPath id="113"><path d="M479.256 780.4341L541.6766 780.4341L541.6766 780.4341L541.6766 11.5592L541.6766 11.5592L479.256 11.5592z" /></clipPath><clipPath id="114"><path d="M53.32725 780.4341L71.68625 780.4341L71.68625 780.4341L71.68625 11.5592L71.68625 11.5592L53.32725 11.5592z" /></clipPath><clipPath id="115"><path d="M72.42061 780.4341L218.5582 780.4341L218.5582 780.4341L218.5582 11.5592L218.5582 11.5592L72.42061 11.5592z" /></clipPath><clipPath id="116"><path d="M219.2926 780.4341L257.4793 780.4341L257.4793 780.4341L257.4793 11.5592L257.4793 11.5592L219.2926 11.5592z" /></clipPath><clipPath id="117"><path d="M258.2137 780.4341L350.743 780.4341L350.743 780.4341L350.743 11.5592L350.743 11.5592L258.2137 11.5592z" /></clipPath><clipPath id="118"><path d="M258.2137 780.4341L350.743 780.4341L350.743 780.4341L350.743 11.5592L350.743 11.5592L258.2137 11.5592z" /></clipPath><clipPath id="119"><path d="M258.2137 780.4341L350.743 780.4341L350.743 780.4341L350.743 11.5592L350.743 11.5592L258.2137 11.5592z" /></clipPath><clipPath id="120"><path d="M258.2137 780.4341L350.743 780.4341L350.743 780.4341L350.743 11.5592L350.743 11.5592L258.2137 11.5592z" /></clipPath><clipPath id="121"><path d="M258.2137 780.4341L350.743 780.4341L350.743 780.4341L350.743 11.5592L350.743 11.5592L258.2137 11.5592z" /></clipPath><clipPath id="122"><path d="M258.2137 780.4341L350.743 780.4341L350.743 780.4341L350.743 11.5592L350.743 11.5592L258.2137 11.5592z" /></clipPath><clipPath id="123"><path d="M258.2137 780.4341L350.743 780.4341L350.743 780.4341L350.743 11.5592L350.743 11.5592L258.2137 11.5592z" /></clipPath><clipPath id="124"><path d="M258.2137 780.4341L350.743 780.4341L350.743 780.4341L350.743 11.5592L350.743 11.5592L258.2137 11.5592z" /></clipPath><clipPath id="125"><path d="M258.2137 780.4341L350.743 780.4341L350.743 780.4341L350.743 11.5592L350.743 11.5592L258.2137 11.5592z" /></clipPath><clipPath id="126"><path d="M258.2137 780.4341L350.743 780.4341L350.743 780.4341L350.743 11.5592L350.743 11.5592L258.2137 11.5592z" /></clipPath><clipPath id="127"><path d="M258.2137 780.4341L350.743 780.4341L350.743 780.4341L350.743 11.5592L350.743 11.5592L258.2137 11.5592z" /></clipPath><clipPath id="128"><path d="M258.2137 780.4341L350.743 780.4341L350.743 780.4341L350.743 11.5592L350.743 11.5592L258.2137 11.5592z" /></clipPath><clipPath id="129"><path d="M258.2137 780.4341L350.743 780.4341L350.743 780.4341L350.743 11.5592L350.743 11.5592L258.2137 11.5592z" /></clipPath><clipPath id="130"><path d="M351.4774 780.4341L414.6324 780.4341L414.6324 780.4341L414.6324 11.5592L414.6324 11.5592L351.4774 11.5592z" /></clipPath><clipPath id="131"><path d="M351.4774 780.4341L414.6324 780.4341L414.6324 780.4341L414.6324 11.5592L414.6324 11.5592L351.4774 11.5592z" /></clipPath><clipPath id="132"><path d="M415.3667 780.4341L478.5217 780.4341L478.5217 780.4341L478.5217 11.5592L478.5217 11.5592L415.3667 11.5592z" /></clipPath><clipPath id="133"><path d="M479.256 780.4341L541.6766 780.4341L541.6766 780.4341L541.6766 11.5592L541.6766 11.5592L479.256 11.5592z" /></clipPath><clipPath id="134"><path d="M52.59289 380.2079L542.411 380.2079L542.411 380.2079L542.411 183.3994L542.411 183.3994L52.59289 183.3994z" /></clipPath><clipPath id="135"><path d="M52.59289 380.2079L542.411 380.2079L542.411 380.2079L542.411 183.3994L542.411 183.3994L52.59289 183.3994z" /></clipPath><clipPath id="136"><path d="M52.59289 380.2079L542.411 380.2079L542.411 380.2079L542.411 183.3994L542.411 183.3994L52.59289 183.3994z" /></clipPath><clipPath id="137"><path d="M52.59289 380.2079L542.411 380.2079L542.411 380.2079L542.411 183.3994L542.411 183.3994L52.59289 183.3994z" /></clipPath><clipPath id="138"><path d="M52.59289 380.2079L542.411 380.2079L542.411 380.2079L542.411 183.3994L542.411 183.3994L52.59289 183.3994z" /></clipPath><clipPath id="139"><path d="M52.59289 380.2079L542.411 380.2079L542.411 380.2079L542.411 183.3994L542.411 183.3994L52.59289 183.3994z" /></clipPath><clipPath id="140"><path d="M52.59289 380.2079L542.411 380.2079L542.411 380.2079L542.411 183.3994L542.411 183.3994L52.59289 183.3994z" /></clipPath><clipPath id="141"><path d="M52.59289 380.2079L542.411 380.2079L542.411 380.2079L542.411 183.3994L542.411 183.3994L52.59289 183.3994z" /></clipPath><clipPath id="142"><path d="M52.59289 380.2079L542.411 380.2079L542.411 380.2079L542.411 183.3994L542.411 183.3994L52.59289 183.3994z" /></clipPath><clipPath id="143"><path d="M52.59289 380.2079L542.411 380.2079L542.411 380.2079L542.411 183.3994L542.411 183.3994L52.59289 183.3994z" /></clipPath><clipPath id="144"><path d="M52.59289 380.2079L542.411 380.2079L542.411 380.2079L542.411 183.3994L542.411 183.3994L52.59289 183.3994z" /></clipPath><clipPath id="145"><path d="M52.59289 380.2079L542.411 380.2079L542.411 380.2079L542.411 183.3994L542.411 183.3994L52.59289 183.3994z" /></clipPath><clipPath id="146"><path d="M52.59289 380.2079L542.411 380.2079L542.411 380.2079L542.411 183.3994L542.411 183.3994L52.59289 183.3994z" /></clipPath><clipPath id="147"><path d="M52.59289 380.2079L542.411 380.2079L542.411 380.2079L542.411 183.3994L542.411 183.3994L52.59289 183.3994z" /></clipPath><clipPath id="148"><path d="M52.59289 380.2079L542.411 380.2079L542.411 380.2079L542.411 183.3994L542.411 183.3994L52.59289 183.3994z" /></clipPath><clipPath id="149"><path d="M52.59289 380.2079L542.411 380.2079L542.411 380.2079L542.411 183.3994L542.411 183.3994L52.59289 183.3994z" /></clipPath><clipPath id="150"><path d="M52.59289 380.2079L542.411 380.2079L542.411 380.2079L542.411 183.3994L542.411 183.3994L52.59289 183.3994z" /></clipPath><clipPath id="151"><path d="M10.00001 83.43536L585.0039 83.43536L585.0039 83.43536L585.0039 9.99939L585.0039 9.99939L10.00001 9.99939z" /></clipPath><clipPath id="152"><path d="M8.53129 156.8713L598.9567 156.8713L598.9567 156.8713L598.9567 -63.43665L598.9567 -63.43665L8.53129 -63.43665z" /></clipPath><clipPath id="153"><path d="M17.34361 156.8713L241.3234 156.8713L241.3234 156.8713L241.3234 -63.43665L241.3234 -63.43665L17.34361 -63.43665z" /></clipPath><clipPath id="154"><path d="M17.34361 156.8713L241.3234 156.8713L241.3234 156.8713L241.3234 -63.43665L241.3234 -63.43665L17.34361 -63.43665z" /></clipPath><clipPath id="155"><path d="M17.34361 156.8713L241.3234 156.8713L241.3234 156.8713L241.3234 -63.43665L241.3234 -63.43665L17.34361 -63.43665z" /></clipPath><clipPath id="156"><path d="M17.34361 156.8713L241.3234 156.8713L241.3234 156.8713L241.3234 -63.43665L241.3234 -63.43665L17.34361 -63.43665z" /></clipPath><clipPath id="157"><path d="M17.34361 156.8713L241.3234 156.8713L241.3234 156.8713L241.3234 -63.43665L241.3234 -63.43665L17.34361 -63.43665z" /></clipPath><clipPath id="158"><path d="M17.34361 156.8713L241.3234 156.8713L241.3234 156.8713L241.3234 -63.43665L241.3234 -63.43665L17.34361 -63.43665z" /></clipPath><clipPath id="159"><path d="M17.34361 156.8713L241.3234 156.8713L241.3234 156.8713L241.3234 -63.43665L241.3234 -63.43665L17.34361 -63.43665z" /></clipPath><clipPath id="160"><path d="M241.3234 156.8713L242.7921 156.8713L242.7921 156.8713L242.7921 -63.43665L242.7921 -63.43665L241.3234 -63.43665z" /></clipPath><clipPath id="161"><path d="M17.34361 156.8713L18.81233 156.8713L18.81233 156.8713L18.81233 -63.43665L18.81233 -63.43665L17.34361 -63.43665z" /></clipPath><clipPath id="162"><path d="M10.00001 831.4826L585.0039 831.4826L585.0039 831.4826L585.0039 771.9995L585.0039 771.9995L10.00001 771.9995z" /></clipPath><clipPath id="163"><path d="M8.53129 904.9186L598.9567 904.9186L598.9567 904.9186L598.9567 698.5635L598.9567 698.5635L8.53129 698.5635z" /></clipPath><clipPath id="164"><path d="M17.34361 904.9186L577.6603 904.9186L577.6603 904.9186L577.6603 698.5635L577.6603 698.5635L17.34361 698.5635z" /></clipPath><clipPath id="165"><path d="M17.34361 904.9186L236.9173 904.9186L236.9173 904.9186L236.9173 698.5635L236.9173 698.5635L17.34361 698.5635z" /></clipPath><clipPath id="166"><path d="M17.34361 904.9186L236.9173 904.9186L236.9173 904.9186L236.9173 698.5635L236.9173 698.5635L17.34361 698.5635z" /></clipPath><clipPath id="167"><path d="M17.34361 904.9186L236.9173 904.9186L236.9173 904.9186L236.9173 698.5635L236.9173 698.5635L17.34361 698.5635z" /></clipPath><clipPath id="168"><path d="M17.34361 904.9186L236.9173 904.9186L236.9173 904.9186L236.9173 698.5635L236.9173 698.5635L17.34361 698.5635z" /></clipPath><clipPath id="169"><path d="M17.34361 904.9186L236.9173 904.9186L236.9173 904.9186L236.9173 698.5635L236.9173 698.5635L17.34361 698.5635z" /></clipPath><clipPath id="170"><path d="M17.34361 904.9186L236.9173 904.9186L236.9173 904.9186L236.9173 698.5635L236.9173 698.5635L17.34361 698.5635z" /></clipPath><clipPath id="171"><path d="M17.34361 904.9186L236.9173 904.9186L236.9173 904.9186L236.9173 698.5635L236.9173 698.5635L17.34361 698.5635z" /></clipPath><clipPath id="172"><path d="M17.34361 904.9186L236.9173 904.9186L236.9173 904.9186L236.9173 698.5635L236.9173 698.5635L17.34361 698.5635z" /></clipPath><clipPath id="173"><path d="M17.34361 904.9186L236.9173 904.9186L236.9173 904.9186L236.9173 698.5635L236.9173 698.5635L17.34361 698.5635z" /></clipPath><clipPath id="174"><path d="M17.34361 904.9186L236.9173 904.9186L236.9173 904.9186L236.9173 698.5635L236.9173 698.5635L17.34361 698.5635z" /></clipPath><clipPath id="175"><path d="M17.34361 904.9186L236.9173 904.9186L236.9173 904.9186L236.9173 698.5635L236.9173 698.5635L17.34361 698.5635z" /></clipPath><clipPath id="176"><path d="M319.8999 904.9186L577.6603 904.9186L577.6603 904.9186L577.6603 698.5635L577.6603 698.5635L319.8999 698.5635z" /></clipPath><clipPath id="177"><path d="M319.8999 904.9186L577.6603 904.9186L577.6603 904.9186L577.6603 698.5635L577.6603 698.5635L319.8999 698.5635z" /></clipPath><clipPath id="178"><path d="M319.8999 904.9186L577.6603 904.9186L577.6603 904.9186L577.6603 698.5635L577.6603 698.5635L319.8999 698.5635z" /></clipPath><clipPath id="179"><path d="M319.8999 904.9186L577.6603 904.9186L577.6603 904.9186L577.6603 698.5635L577.6603 698.5635L319.8999 698.5635z" /></clipPath></defs><g transform="matrix(1.333333 0 0 1.333333 0 0)"><g><g clip-path="url(#1)"><g clip-path="url(#2)"><path transform="matrix(1 0 0 -1 0 842)" d="M10.00001 61.56587L585.0039 61.56587L585.0039 61.56587L585.0039 830.4408L585.0039 830.4408L10.00001 830.4408z" stroke="none" fill="#FFFFFF" fill-rule="evenodd" /><path transform="matrix(1 0 0 -1 0 842)" d="M10.00001 61.56587L585.0039 61.56587L585.0039 61.56587L585.0039 830.4408L585.0039 830.4408L10.00001 830.4408z" stroke="none" fill="#FFFFFF" fill-rule="evenodd" /><g clip-path="url(#3)"></g><g clip-path="url(#4)"></g><g clip-path="url(#5)"></g><g clip-path="url(#6)"></g><g clip-path="url(#7)"></g><g clip-path="url(#8)"></g><g clip-path="url(#9)"></g><g clip-path="url(#10)"></g><g clip-path="url(#11)"></g><g clip-path="url(#12)"></g><g clip-path="url(#13)"></g><g clip-path="url(#14)"></g><g clip-path="url(#15)"></g><g clip-path="url(#16)"></g><g clip-path="url(#17)"></g><g clip-path="url(#18)"></g><g clip-path="url(#19)"></g><g clip-path="url(#20)"></g><g clip-path="url(#21)"></g><g clip-path="url(#22)"></g><g clip-path="url(#23)"></g><g clip-path="url(#24)"></g><g clip-path="url(#25)"></g><g clip-path="url(#26)"></g><g clip-path="url(#27)"></g><g clip-path="url(#28)"></g><g clip-path="url(#29)"></g><g clip-path="url(#30)"></g><g clip-path="url(#31)"></g><g clip-path="url(#32)"></g><g clip-path="url(#33)"></g><g clip-path="url(#34)"></g><g clip-path="url(#35)"></g><g clip-path="url(#36)"></g><g clip-path="url(#37)"></g><g clip-path="url(#38)"></g><g clip-path="url(#39)"></g><g clip-path="url(#40)"></g><g clip-path="url(#41)"></g><g clip-path="url(#42)"></g><g clip-path="url(#43)"></g><g clip-path="url(#44)"></g><g clip-path="url(#45)"></g><g clip-path="url(#46)"></g><g clip-path="url(#47)"></g><g clip-path="url(#48)"></g><g clip-path="url(#49)"></g><g clip-path="url(#50)"></g><g clip-path="url(#51)"></g><g clip-path="url(#52)"></g><g clip-path="url(#53)"></g><g clip-path="url(#54)"></g><g clip-path="url(#55)"></g><g clip-path="url(#56)"></g><g clip-path="url(#57)"></g><g clip-path="url(#58)"></g><g clip-path="url(#59)"></g><g clip-path="url(#60)"></g><g clip-path="url(#61)"></g><g clip-path="url(#62)"></g><g clip-path="url(#63)"></g><g clip-path="url(#64)"></g><g clip-path="url(#65)"></g><g clip-path="url(#66)"></g><g clip-path="url(#67)"></g><g clip-path="url(#68)"></g><g clip-path="url(#69)"></g><g clip-path="url(#70)"></g><g clip-path="url(#71)"></g><g clip-path="url(#72)"></g><g clip-path="url(#73)"></g><g clip-path="url(#74)"></g><g clip-path="url(#75)"></g><g clip-path="url(#76)"></g><g clip-path="url(#77)"></g><g clip-path="url(#78)"></g><g clip-path="url(#79)"></g><g clip-path="url(#80)"></g><g clip-path="url(#81)"></g><g clip-path="url(#82)"></g><g clip-path="url(#83)"></g><g clip-path="url(#84)"></g><g clip-path="url(#85)"></g><g clip-path="url(#86)"></g><g clip-path="url(#87)"></g><g clip-path="url(#88)"></g><g clip-path="url(#89)"></g><g clip-path="url(#90)"></g><g clip-path="url(#91)"></g><g clip-path="url(#92)"></g><g clip-path="url(#93)"></g><g clip-path="url(#94)"></g><g clip-path="url(#95)"></g><g clip-path="url(#96)"></g><g clip-path="url(#97)"></g><g clip-path="url(#98)"></g><g clip-path="url(#99)"></g><g clip-path="url(#100)"></g><g clip-path="url(#101)"></g><g clip-path="url(#102)"></g><g clip-path="url(#103)"></g><g clip-path="url(#104)"></g><g clip-path="url(#105)"></g><g clip-path="url(#106)"></g><g clip-path="url(#107)"></g><g clip-path="url(#108)"></g><g clip-path="url(#109)"></g><g clip-path="url(#110)"></g><g clip-path="url(#111)"></g><g clip-path="url(#112)"></g><g clip-path="url(#113)"></g><g clip-path="url(#114)"></g><g clip-path="url(#115)"></g><g clip-path="url(#116)"></g><g clip-path="url(#117)"></g><g clip-path="url(#118)"></g><g clip-path="url(#119)"></g><g clip-path="url(#120)"></g><g clip-path="url(#121)"></g><g clip-path="url(#122)"></g><g clip-path="url(#123)"></g><g clip-path="url(#124)"></g><g clip-path="url(#125)"></g><g clip-path="url(#126)"></g><g clip-path="url(#127)"></g><g clip-path="url(#128)"></g><g clip-path="url(#129)"></g><g clip-path="url(#130)"></g><g clip-path="url(#131)"></g><g clip-path="url(#132)"></g><g clip-path="url(#133)"></g><path transform="matrix(1 0 0 -1 0 842)" d="M218.9254 658.2334L72.78779 658.2334" stroke="#000000" stroke-width="0.73436" stroke-linecap="square" fill="none" /><path transform="matrix(1 0 0 -1 0 842)" d="M72.05343 658.2334L72.05343 606.0938" stroke="#000000" stroke-width="0.73436" stroke-linecap="square" fill="none" /><path transform="matrix(1 0 0 -1 0 842)" d="M218.9254 658.2334L218.9254 606.0938" stroke="#000000" stroke-width="0.73436" stroke-linecap="square" fill="none" /><path transform="matrix(1 0 0 -1 0 842)" d="M218.9254 606.0938L72.05343 606.0938" stroke="#000000" stroke-width="0.73436" stroke-linecap="square" fill="none" /><path transform="matrix(1 0 0 -1 0 842)" d="M257.8465 658.2334L219.6598 658.2334" stroke="#000000" stroke-width="0.73436" stroke-linecap="square" fill="none" /><path transform="matrix(1 0 0 -1 0 842)" d="M218.9254 658.2334L218.9254 606.0938" stroke="#000000" stroke-width="0.73436" stroke-linecap="square" fill="none" /><path transform="matrix(1 0 0 -1 0 842)" d="M257.8465 658.2334L257.8465 606.0938" stroke="#000000" stroke-width="0.73436" stroke-linecap="square" fill="none" /><path transform="matrix(1 0 0 -1 0 842)" d="M257.8465 606.0938L218.9254 606.0938" stroke="#000000" stroke-width="0.73436" stroke-linecap="square" fill="none" /><path transform="matrix(1 0 0 -1 0 842)" d="M351.1102 658.2334L258.5809 658.2334" stroke="#000000" stroke-width="0.73436" stroke-linecap="square" fill="none" /><path transform="matrix(1 0 0 -1 0 842)" d="M257.8465 658.2334L257.8465 606.0938" stroke="#000000" stroke-width="0.73436" stroke-linecap="square" fill="none" /><path transform="matrix(1 0 0 -1 0 842)" d="M351.1102 658.2334L351.1102 606.0938" stroke="#000000" stroke-width="0.73436" stroke-linecap="square" fill="none" /><path transform="matrix(1 0 0 -1 0 842)" d="M351.1102 606.0938L257.8465 606.0938" stroke="#000000" stroke-width="0.73436" stroke-linecap="square" fill="none" /><path transform="matrix(1 0 0 -1 0 842)" d="M414.9995 658.2334L351.8446 658.2334" stroke="#000000" stroke-width="0.73436" stroke-linecap="square" fill="none" /><path transform="matrix(1 0 0 -1 0 842)" d="M351.1102 658.2334L351.1102 606.0938" stroke="#000000" stroke-width="0.73436" stroke-linecap="square" fill="none" /><path transform="matrix(1 0 0 -1 0 842)" d="M414.9995 658.2334L414.9995 606.0938" stroke="#000000" stroke-width="0.73436" stroke-linecap="square" fill="none" /><path transform="matrix(1 0 0 -1 0 842)" d="M414.9995 606.0938L351.1102 606.0938" stroke="#000000" stroke-width="0.73436" stroke-linecap="square" fill="none" /><path transform="matrix(1 0 0 -1 0 842)" d="M478.8889 658.2334L415.7339 658.2334" stroke="#000000" stroke-width="0.73436" stroke-linecap="square" fill="none" /><path transform="matrix(1 0 0 -1 0 842)" d="M414.9995 658.2334L414.9995 606.0938" stroke="#000000" stroke-width="0.73436" stroke-linecap="square" fill="none" /><path transform="matrix(1 0 0 -1 0 842)" d="M478.8889 658.2334L478.8889 606.0938" stroke="#000000" stroke-width="0.73436" stroke-linecap="square" fill="none" /><path transform="matrix(1 0 0 -1 0 842)" d="M478.8889 606.0938L414.9995 606.0938" stroke="#000000" stroke-width="0.73436" stroke-linecap="square" fill="none" /><path transform="matrix(1 0 0 -1 0 842)" d="M542.0438 658.2334L479.6232 658.2334" stroke="#000000" stroke-width="0.73436" stroke-linecap="square" fill="none" /><path transform="matrix(1 0 0 -1 0 842)" d="M478.8889 658.2334L478.8889 606.0938" stroke="#000000" stroke-width="0.73436" stroke-linecap="square" fill="none" /><path transform="matrix(1 0 0 -1 0 842)" d="M542.0438 658.2334L542.0438 606.0938" stroke="#000000" stroke-width="0.73436" stroke-linecap="square" fill="none" /><path transform="matrix(1 0 0 -1 0 842)" d="M542.0438 606.0938L478.8889 606.0938" stroke="#000000" stroke-width="0.73436" stroke-linecap="square" fill="none" /><path transform="matrix(1 0 0 -1 0 842)" d="M72.05343 606.0938L53.69443 606.0938" stroke="#000000" stroke-width="0.73436" stroke-linecap="square" fill="none" /><path transform="matrix(1 0 0 -1 0 842)" d="M52.96007 606.0938L52.96007 566.4384" stroke="#000000" stroke-width="0.73436" stroke-linecap="square" fill="none" /><path transform="matrix(1 0 0 -1 0 842)" d="M72.05343 606.0938L72.05343 566.4384" stroke="#000000" stroke-width="0.73436" stroke-linecap="square" fill="none" /><g clip-path="url(#134)"><path transform="matrix(1 0 0 -1 0 842)" d="M72.05343 566.4384L52.96007 566.4384" stroke="#000000" stroke-width="0.73436" stroke-linecap="square" fill="none" /></g><path transform="matrix(1 0 0 -1 0 842)" d="M218.9254 606.0938L72.78779 606.0938" stroke="#000000" stroke-width="0.73436" stroke-linecap="square" fill="none" /><path transform="matrix(1 0 0 -1 0 842)" d="M72.05343 606.0938L72.05343 566.4384" stroke="#000000" stroke-width="0.73436" stroke-linecap="square" fill="none" /><path transform="matrix(1 0 0 -1 0 842)" d="M218.9254 606.0938L218.9254 566.4384" stroke="#000000" stroke-width="0.73436" stroke-linecap="square" fill="none" /><path transform="matrix(1 0 0 -1 0 842)" d="M218.9254 566.4384L72.05343 566.4384" stroke="#000000" stroke-width="0.73436" stroke-linecap="square" fill="none" /><path transform="matrix(1 0 0 -1 0 842)" d="M257.8465 606.0938L219.6598 606.0938" stroke="#000000" stroke-width="0.73436" stroke-linecap="square" fill="none" /><path transform="matrix(1 0 0 -1 0 842)" d="M218.9254 606.0938L218.9254 566.4384" stroke="#000000" stroke-width="0.73436" stroke-linecap="square" fill="none" /><path transform="matrix(1 0 0 -1 0 842)" d="M257.8465 606.0938L257.8465 566.4384" stroke="#000000" stroke-width="0.73436" stroke-linecap="square" fill="none" /><path transform="matrix(1 0 0 -1 0 842)" d="M257.8465 566.4384L218.9254 566.4384" stroke="#000000" stroke-width="0.73436" stroke-linecap="square" fill="none" /><path transform="matrix(1 0 0 -1 0 842)" d="M351.1102 606.0938L258.5809 606.0938" stroke="#000000" stroke-width="0.73436" stroke-linecap="square" fill="none" /><path transform="matrix(1 0 0 -1 0 842)" d="M257.8465 606.0938L257.8465 566.4384" stroke="#000000" stroke-width="0.73436" stroke-linecap="square" fill="none" /><path transform="matrix(1 0 0 -1 0 842)" d="M351.1102 606.0938L351.1102 566.4384" stroke="#000000" stroke-width="0.73436" stroke-linecap="square" fill="none" /><path transform="matrix(1 0 0 -1 0 842)" d="M351.1102 566.4384L257.8465 566.4384" stroke="#000000" stroke-width="0.73436" stroke-linecap="square" fill="none" /><path transform="matrix(1 0 0 -1 0 842)" d="M414.9995 606.0938L351.8446 606.0938" stroke="#000000" stroke-width="0.73436" stroke-linecap="square" fill="none" /><path transform="matrix(1 0 0 -1 0 842)" d="M351.1102 606.0938L351.1102 566.4384" stroke="#000000" stroke-width="0.73436" stroke-linecap="square" fill="none" /><path transform="matrix(1 0 0 -1 0 842)" d="M414.9995 606.0938L414.9995 566.4384" stroke="#000000" stroke-width="0.73436" stroke-linecap="square" fill="none" /><path transform="matrix(1 0 0 -1 0 842)" d="M414.9995 566.4384L351.1102 566.4384" stroke="#000000" stroke-width="0.73436" stroke-linecap="square" fill="none" /><path transform="matrix(1 0 0 -1 0 842)" d="M478.8889 606.0938L415.7339 606.0938" stroke="#000000" stroke-width="0.73436" stroke-linecap="square" fill="none" /><path transform="matrix(1 0 0 -1 0 842)" d="M414.9995 606.0938L414.9995 566.4384" stroke="#000000" stroke-width="0.73436" stroke-linecap="square" fill="none" /><path transform="matrix(1 0 0 -1 0 842)" d="M478.8889 606.0938L478.8889 566.4384" stroke="#000000" stroke-width="0.73436" stroke-linecap="square" fill="none" /><path transform="matrix(1 0 0 -1 0 842)" d="M478.8889 566.4384L414.9995 566.4384" stroke="#000000" stroke-width="0.73436" stroke-linecap="square" fill="none" /><path transform="matrix(1 0 0 -1 0 842)" d="M542.0438 606.0938L479.6232 606.0938" stroke="#000000" stroke-width="0.73436" stroke-linecap="square" fill="none" /><path transform="matrix(1 0 0 -1 0 842)" d="M478.8889 606.0938L478.8889 566.4384" stroke="#000000" stroke-width="0.73436" stroke-linecap="square" fill="none" /><path transform="matrix(1 0 0 -1 0 842)" d="M542.0438 606.0938L542.0438 566.4384" stroke="#000000" stroke-width="0.73436" stroke-linecap="square" fill="none" /><path transform="matrix(1 0 0 -1 0 842)" d="M542.0438 566.4384L478.8889 566.4384" stroke="#000000" stroke-width="0.73436" stroke-linecap="square" fill="none" /><path transform="matrix(1 0 0 -1 0 842)" d="M72.05343 566.4384L53.69443 566.4384" stroke="#000000" stroke-width="0.73436" stroke-linecap="square" fill="none" /><path transform="matrix(1 0 0 -1 0 842)" d="M52.96007 566.4384L52.96007 514.2988" stroke="#000000" stroke-width="0.73436" stroke-linecap="square" fill="none" /><path transform="matrix(1 0 0 -1 0 842)" d="M72.05343 566.4384L72.05343 514.2988" stroke="#000000" stroke-width="0.73436" stroke-linecap="square" fill="none" /><g clip-path="url(#135)"><path transform="matrix(1 0 0 -1 0 842)" d="M72.05343 514.2988L52.96007 514.2988" stroke="#000000" stroke-width="0.73436" stroke-linecap="square" fill="none" /></g><path transform="matrix(1 0 0 -1 0 842)" d="M218.9254 566.4384L72.78779 566.4384" stroke="#000000" stroke-width="0.73436" stroke-linecap="square" fill="none" /><path transform="matrix(1 0 0 -1 0 842)" d="M72.05343 566.4384L72.05343 514.2988" stroke="#000000" stroke-width="0.73436" stroke-linecap="square" fill="none" /><path transform="matrix(1 0 0 -1 0 842)" d="M218.9254 566.4384L218.9254 514.2988" stroke="#000000" stroke-width="0.73436" stroke-linecap="square" fill="none" /><path transform="matrix(1 0 0 -1 0 842)" d="M218.9254 514.2988L72.05343 514.2988" stroke="#000000" stroke-width="0.73436" stroke-linecap="square" fill="none" /><path transform="matrix(1 0 0 -1 0 842)" d="M257.8465 566.4384L219.6598 566.4384" stroke="#000000" stroke-width="0.73436" stroke-linecap="square" fill="none" /><path transform="matrix(1 0 0 -1 0 842)" d="M218.9254 566.4384L218.9254 514.2988" stroke="#000000" stroke-width="0.73436" stroke-linecap="square" fill="none" /><path transform="matrix(1 0 0 -1 0 842)" d="M257.8465 566.4384L257.8465 514.2988" stroke="#000000" stroke-width="0.73436" stroke-linecap="square" fill="none" /><path transform="matrix(1 0 0 -1 0 842)" d="M257.8465 514.2988L218.9254 514.2988" stroke="#000000" stroke-width="0.73436" stroke-linecap="square" fill="none" /><path transform="matrix(1 0 0 -1 0 842)" d="M351.1102 566.4384L258.5809 566.4384" stroke="#000000" stroke-width="0.73436" stroke-linecap="square" fill="none" /><path transform="matrix(1 0 0 -1 0 842)" d="M257.8465 566.4384L257.8465 514.2988" stroke="#000000" stroke-width="0.73436" stroke-linecap="square" fill="none" /><path transform="matrix(1 0 0 -1 0 842)" d="M351.1102 566.4384L351.1102 514.2988" stroke="#000000" stroke-width="0.73436" stroke-linecap="square" fill="none" /><path transform="matrix(1 0 0 -1 0 842)" d="M351.1102 514.2988L257.8465 514.2988" stroke="#000000" stroke-width="0.73436" stroke-linecap="square" fill="none" /><path transform="matrix(1 0 0 -1 0 842)" d="M414.9995 566.4384L351.8446 566.4384" stroke="#000000" stroke-width="0.73436" stroke-linecap="square" fill="none" /><path transform="matrix(1 0 0 -1 0 842)" d="M351.1102 566.4384L351.1102 514.2988" stroke="#000000" stroke-width="0.73436" stroke-linecap="square" fill="none" /><path transform="matrix(1 0 0 -1 0 842)" d="M414.9995 566.4384L414.9995 514.2988" stroke="#000000" stroke-width="0.73436" stroke-linecap="square" fill="none" /><path transform="matrix(1 0 0 -1 0 842)" d="M414.9995 514.2988L351.1102 514.2988" stroke="#000000" stroke-width="0.73436" stroke-linecap="square" fill="none" /><path transform="matrix(1 0 0 -1 0 842)" d="M478.8889 566.4384L415.7339 566.4384" stroke="#000000" stroke-width="0.73436" stroke-linecap="square" fill="none" /><path transform="matrix(1 0 0 -1 0 842)" d="M414.9995 566.4384L414.9995 514.2988" stroke="#000000" stroke-width="0.73436" stroke-linecap="square" fill="none" /><path transform="matrix(1 0 0 -1 0 842)" d="M478.8889 566.4384L478.8889 514.2988" stroke="#000000" stroke-width="0.73436" stroke-linecap="square" fill="none" /><path transform="matrix(1 0 0 -1 0 842)" d="M478.8889 514.2988L414.9995 514.2988" stroke="#000000" stroke-width="0.73436" stroke-linecap="square" fill="none" /><path transform="matrix(1 0 0 -1 0 842)" d="M542.0438 566.4384L479.6232 566.4384" stroke="#000000" stroke-width="0.73436" stroke-linecap="square" fill="none" /><path transform="matrix(1 0 0 -1 0 842)" d="M478.8889 566.4384L478.8889 514.2988" stroke="#000000" stroke-width="0.73436" stroke-linecap="square" fill="none" /><path transform="matrix(1 0 0 -1 0 842)" d="M542.0438 566.4384L542.0438 514.2988" stroke="#000000" stroke-width="0.73436" stroke-linecap="square" fill="none" /><path transform="matrix(1 0 0 -1 0 842)" d="M542.0438 514.2988L478.8889 514.2988" stroke="#000000" stroke-width="0.73436" stroke-linecap="square" fill="none" /><path transform="matrix(1 0 0 -1 0 842)" d="M72.05343 514.2988L53.69443 514.2988" stroke="#000000" stroke-width="0.73436" stroke-linecap="square" fill="none" /><g clip-path="url(#136)"><path transform="matrix(1 0 0 -1 0 842)" d="M52.96007 514.2988L52.96007 462.1592" stroke="#000000" stroke-width="0.73436" stroke-linecap="square" fill="none" /></g><g clip-path="url(#137)"><path transform="matrix(1 0 0 -1 0 842)" d="M72.05343 514.2988L72.05343 462.1592" stroke="#000000" stroke-width="0.73436" stroke-linecap="square" fill="none" /></g><g clip-path="url(#138)"><path transform="matrix(1 0 0 -1 0 842)" d="M72.05343 462.1592L52.96007 462.1592" stroke="#000000" stroke-width="0.73436" stroke-linecap="square" fill="none" /></g><path transform="matrix(1 0 0 -1 0 842)" d="M218.9254 514.2988L72.78779 514.2988" stroke="#000000" stroke-width="0.73436" stroke-linecap="square" fill="none" /><g clip-path="url(#139)"><path transform="matrix(1 0 0 -1 0 842)" d="M72.05343 514.2988L72.05343 462.1592" stroke="#000000" stroke-width="0.73436" stroke-linecap="square" fill="none" /></g><g clip-path="url(#140)"><path transform="matrix(1 0 0 -1 0 842)" d="M218.9254 514.2988L218.9254 462.1592" stroke="#000000" stroke-width="0.73436" stroke-linecap="square" fill="none" /></g><path transform="matrix(1 0 0 -1 0 842)" d="M218.9254 462.1592L72.05343 462.1592" stroke="#000000" stroke-width="0.73436" stroke-linecap="square" fill="none" /><path transform="matrix(1 0 0 -1 0 842)" d="M257.8465 514.2988L219.6598 514.2988" stroke="#000000" stroke-width="0.73436" stroke-linecap="square" fill="none" /><g clip-path="url(#141)"><path transform="matrix(1 0 0 -1 0 842)" d="M218.9254 514.2988L218.9254 462.1592" stroke="#000000" stroke-width="0.73436" stroke-linecap="square" fill="none" /></g><g clip-path="url(#142)"><path transform="matrix(1 0 0 -1 0 842)" d="M257.8465 514.2988L257.8465 462.1592" stroke="#000000" stroke-width="0.73436" stroke-linecap="square" fill="none" /></g><path transform="matrix(1 0 0 -1 0 842)" d="M257.8465 462.1592L218.9254 462.1592" stroke="#000000" stroke-width="0.73436" stroke-linecap="square" fill="none" /><path transform="matrix(1 0 0 -1 0 842)" d="M351.1102 514.2988L258.5809 514.2988" stroke="#000000" stroke-width="0.73436" stroke-linecap="square" fill="none" /><g clip-path="url(#143)"><path transform="matrix(1 0 0 -1 0 842)" d="M257.8465 514.2988L257.8465 462.1592" stroke="#000000" stroke-width="0.73436" stroke-linecap="square" fill="none" /></g><g clip-path="url(#144)"><path transform="matrix(1 0 0 -1 0 842)" d="M351.1102 514.2988L351.1102 462.1592" stroke="#000000" stroke-width="0.73436" stroke-linecap="square" fill="none" /></g><path transform="matrix(1 0 0 -1 0 842)" d="M351.1102 462.1592L257.8465 462.1592" stroke="#000000" stroke-width="0.73436" stroke-linecap="square" fill="none" /><path transform="matrix(1 0 0 -1 0 842)" d="M414.9995 514.2988L351.8446 514.2988" stroke="#000000" stroke-width="0.73436" stroke-linecap="square" fill="none" /><g clip-path="url(#145)"><path transform="matrix(1 0 0 -1 0 842)" d="M351.1102 514.2988L351.1102 462.1592" stroke="#000000" stroke-width="0.73436" stroke-linecap="square" fill="none" /></g><g clip-path="url(#146)"><path transform="matrix(1 0 0 -1 0 842)" d="M414.9995 514.2988L414.9995 462.1592" stroke="#000000" stroke-width="0.73436" stroke-linecap="square" fill="none" /></g><path transform="matrix(1 0 0 -1 0 842)" d="M414.9995 462.1592L351.1102 462.1592" stroke="#000000" stroke-width="0.73436" stroke-linecap="square" fill="none" /><path transform="matrix(1 0 0 -1 0 842)" d="M478.8889 514.2988L415.7339 514.2988" stroke="#000000" stroke-width="0.73436" stroke-linecap="square" fill="none" /><g clip-path="url(#147)"><path transform="matrix(1 0 0 -1 0 842)" d="M414.9995 514.2988L414.9995 462.1592" stroke="#000000" stroke-width="0.73436" stroke-linecap="square" fill="none" /></g><g clip-path="url(#148)"><path transform="matrix(1 0 0 -1 0 842)" d="M478.8889 514.2988L478.8889 462.1592" stroke="#000000" stroke-width="0.73436" stroke-linecap="square" fill="none" /></g><path transform="matrix(1 0 0 -1 0 842)" d="M478.8889 462.1592L414.9995 462.1592" stroke="#000000" stroke-width="0.73436" stroke-linecap="square" fill="none" /><path transform="matrix(1 0 0 -1 0 842)" d="M542.0438 514.2988L479.6232 514.2988" stroke="#000000" stroke-width="0.73436" stroke-linecap="square" fill="none" /><g clip-path="url(#149)"><path transform="matrix(1 0 0 -1 0 842)" d="M478.8889 514.2988L478.8889 462.1592" stroke="#000000" stroke-width="0.73436" stroke-linecap="square" fill="none" /></g><g clip-path="url(#150)"><path transform="matrix(1 0 0 -1 0 842)" d="M542.0438 514.2988L542.0438 462.1592" stroke="#000000" stroke-width="0.73436" stroke-linecap="square" fill="none" /></g><path transform="matrix(1 0 0 -1 0 842)" d="M542.0438 462.1592L478.8889 462.1592" stroke="#000000" stroke-width="0.73436" stroke-linecap="square" fill="none" /></g><g clip-path="url(#151)"><g clip-path="url(#152)"></g><path transform="matrix(1 0 0 -1 0 842)" d="M10.00001 730.6589L585.0039 730.6589L585.0039 730.6589L585.0039 832.0006L585.0039 832.0006L10.00001 832.0006z" stroke="none" fill="#FFFFFF" fill-rule="evenodd" /><path transform="matrix(1 0 0 -1 0 842)" d="M10.00001 730.6589L585.0039 730.6589L585.0039 730.6589L585.0039 832.0006L585.0039 832.0006L10.00001 832.0006z" stroke="none" fill="#FFFFFF" fill-rule="evenodd" /><path transform="matrix(1 0 0 -1 0 842)" d="M577.2931 764.0723L17.71079 764.0723" stroke="#000000" stroke-width="0.73436" stroke-linecap="square" fill="none" /><g clip-path="url(#153)"></g><g clip-path="url(#154)"></g><g clip-path="url(#155)"></g><g clip-path="url(#156)"></g><g clip-path="url(#157)"></g><g clip-path="url(#158)"></g><g clip-path="url(#159)"></g><g clip-path="url(#160)"></g><g transform="matrix(0.1935941 0 0 0.1949628 446.2098 21.01477)"><g transform="matrix(1 0 0 1 0 0)"><image x="0" y="0" xlink:href="img_01.png" width="679" height="113" /></g></g><g clip-path="url(#161)"></g></g><g clip-path="url(#162)"><g clip-path="url(#163)"></g><path transform="matrix(1 0 0 -1 0 842)" d="M10.00001 -17.38827L585.0039 -17.38827L585.0039 -17.38827L585.0039 70.00056L585.0039 70.00056L10.00001 70.00056z" stroke="none" fill="#FFFFFF" fill-rule="evenodd" /><path transform="matrix(1 0 0 -1 0 842)" d="M10.00001 -17.38827L585.0039 -17.38827L585.0039 -17.38827L585.0039 70.00056L585.0039 70.00056L10.00001 70.00056z" stroke="none" fill="#FFFFFF" fill-rule="evenodd" /><path transform="matrix(1 0 0 -1 0 842)" d="M577.2931 58.61799L17.71079 58.61799" stroke="#000000" stroke-width="0.73436" stroke-linecap="square" fill="none" /><g clip-path="url(#164)"></g><g clip-path="url(#165)"></g><g clip-path="url(#166)"></g><g clip-path="url(#167)"></g><g clip-path="url(#168)"></g><g clip-path="url(#169)"></g><g clip-path="url(#170)"></g><g clip-path="url(#171)"></g><g clip-path="url(#172)"></g><g clip-path="url(#173)"></g><g clip-path="url(#174)"></g><g clip-path="url(#175)"></g><g clip-path="url(#176)"></g><g clip-path="url(#177)"></g><g clip-path="url(#178)"></g><g clip-path="url(#179)"></g></g></g></g></g></svg>