<svg xmlns="http://www.w3.org/2000/svg" xmlns:xlink="http://www.w3.org/1999/xlink" id="body_1" preserveAspectRatio="xMinYMin meet" viewBox="0 0 793 1123"><defs><clipPath id="1"><path d="M0 842L0 0L0 0L595 0L595 0L595 842L595 842L0 842z" /></clipPath><clipPath id="2"><path d="M10.00001 738.7813L585.0039 738.7813L585.0039 738.7813L585.0039 176.9958L585.0039 176.9958L10.00001 176.9958z" /></clipPath><clipPath id="3"><path d="M8.53129 812.2172L598.9567 812.2172L598.9567 812.2172L598.9567 103.5598L598.9567 103.5598L8.53129 103.5598z" /></clipPath><clipPath id="4"><path d="M17.34361 812.2172L577.6603 812.2172L577.6603 812.2172L577.6603 103.5598L577.6603 103.5598L17.34361 103.5598z" /></clipPath><clipPath id="5"><path d="M17.34361 812.2172L577.6603 812.2172L577.6603 812.2172L577.6603 103.5598L577.6603 103.5598L17.34361 103.5598z" /></clipPath><clipPath id="6"><path d="M17.34361 812.2172L577.6603 812.2172L577.6603 812.2172L577.6603 103.5598L577.6603 103.5598L17.34361 103.5598z" /></clipPath><clipPath id="7"><path d="M17.34361 812.2172L577.6603 812.2172L577.6603 812.2172L577.6603 103.5598L577.6603 103.5598L17.34361 103.5598z" /></clipPath><clipPath id="8"><path d="M17.34361 812.2172L577.6603 812.2172L577.6603 812.2172L577.6603 103.5598L577.6603 103.5598L17.34361 103.5598z" /></clipPath><clipPath id="9"><path d="M17.34361 812.2172L577.6603 812.2172L577.6603 812.2172L577.6603 103.5598L577.6603 103.5598L17.34361 103.5598z" /></clipPath><clipPath id="10"><path d="M17.34361 812.2172L577.6603 812.2172L577.6603 812.2172L577.6603 103.5598L577.6603 103.5598L17.34361 103.5598z" /></clipPath><clipPath id="11"><path d="M17.34361 812.2172L577.6603 812.2172L577.6603 812.2172L577.6603 103.5598L577.6603 103.5598L17.34361 103.5598z" /></clipPath><clipPath id="12"><path d="M52.59289 812.2172L199.4649 812.2172L199.4649 812.2172L199.4649 103.5598L199.4649 103.5598L52.59289 103.5598z" /></clipPath><clipPath id="13"><path d="M199.4649 812.2172L542.411 812.2172L542.411 812.2172L542.411 103.5598L542.411 103.5598L199.4649 103.5598z" /></clipPath><clipPath id="14"><path d="M199.4649 812.2172L542.411 812.2172L542.411 812.2172L542.411 103.5598L542.411 103.5598L199.4649 103.5598z" /></clipPath><clipPath id="15"><path d="M52.59289 812.2172L199.4649 812.2172L199.4649 812.2172L199.4649 103.5598L199.4649 103.5598L52.59289 103.5598z" /></clipPath><clipPath id="16"><path d="M199.4649 812.2172L542.411 812.2172L542.411 812.2172L542.411 103.5598L542.411 103.5598L199.4649 103.5598z" /></clipPath><clipPath id="17"><path d="M199.4649 812.2172L542.411 812.2172L542.411 812.2172L542.411 103.5598L542.411 103.5598L199.4649 103.5598z" /></clipPath><clipPath id="18"><path d="M52.59289 812.2172L199.4649 812.2172L199.4649 812.2172L199.4649 103.5598L199.4649 103.5598L52.59289 103.5598z" /></clipPath><clipPath id="19"><path d="M199.4649 812.2172L542.411 812.2172L542.411 812.2172L542.411 103.5598L542.411 103.5598L199.4649 103.5598z" /></clipPath><clipPath id="20"><path d="M199.4649 812.2172L542.411 812.2172L542.411 812.2172L542.411 103.5598L542.411 103.5598L199.4649 103.5598z" /></clipPath><clipPath id="21"><path d="M199.4649 812.2172L542.411 812.2172L542.411 812.2172L542.411 103.5598L542.411 103.5598L199.4649 103.5598z" /></clipPath><clipPath id="22"><path d="M199.4649 812.2172L542.411 812.2172L542.411 812.2172L542.411 103.5598L542.411 103.5598L199.4649 103.5598z" /></clipPath><clipPath id="23"><path d="M199.4649 812.2172L542.411 812.2172L542.411 812.2172L542.411 103.5598L542.411 103.5598L199.4649 103.5598z" /></clipPath><clipPath id="24"><path d="M199.4649 812.2172L542.411 812.2172L542.411 812.2172L542.411 103.5598L542.411 103.5598L199.4649 103.5598z" /></clipPath><clipPath id="25"><path d="M199.4649 812.2172L542.411 812.2172L542.411 812.2172L542.411 103.5598L542.411 103.5598L199.4649 103.5598z" /></clipPath><clipPath id="26"><path d="M52.59289 812.2172L199.4649 812.2172L199.4649 812.2172L199.4649 103.5598L199.4649 103.5598L52.59289 103.5598z" /></clipPath><clipPath id="27"><path d="M199.4649 812.2172L542.411 812.2172L542.411 812.2172L542.411 103.5598L542.411 103.5598L199.4649 103.5598z" /></clipPath><clipPath id="28"><path d="M199.4649 812.2172L542.411 812.2172L542.411 812.2172L542.411 103.5598L542.411 103.5598L199.4649 103.5598z" /></clipPath><clipPath id="29"><path d="M52.59289 812.2172L199.4649 812.2172L199.4649 812.2172L199.4649 103.5598L199.4649 103.5598L52.59289 103.5598z" /></clipPath><clipPath id="30"><path d="M52.59289 812.2172L199.4649 812.2172L199.4649 812.2172L199.4649 103.5598L199.4649 103.5598L52.59289 103.5598z" /></clipPath><clipPath id="31"><path d="M52.59289 812.2172L199.4649 812.2172L199.4649 812.2172L199.4649 103.5598L199.4649 103.5598L52.59289 103.5598z" /></clipPath><clipPath id="32"><path d="M199.4649 812.2172L542.411 812.2172L542.411 812.2172L542.411 103.5598L542.411 103.5598L199.4649 103.5598z" /></clipPath><clipPath id="33"><path d="M199.4649 812.2172L542.411 812.2172L542.411 812.2172L542.411 103.5598L542.411 103.5598L199.4649 103.5598z" /></clipPath><clipPath id="34"><path d="M199.4649 812.2172L542.411 812.2172L542.411 812.2172L542.411 103.5598L542.411 103.5598L199.4649 103.5598z" /></clipPath><clipPath id="35"><path d="M199.4649 812.2172L542.411 812.2172L542.411 812.2172L542.411 103.5598L542.411 103.5598L199.4649 103.5598z" /></clipPath><clipPath id="36"><path d="M199.4649 812.2172L542.411 812.2172L542.411 812.2172L542.411 103.5598L542.411 103.5598L199.4649 103.5598z" /></clipPath><clipPath id="37"><path d="M199.4649 812.2172L542.411 812.2172L542.411 812.2172L542.411 103.5598L542.411 103.5598L199.4649 103.5598z" /></clipPath><clipPath id="38"><path d="M52.59289 812.2172L199.4649 812.2172L199.4649 812.2172L199.4649 103.5598L199.4649 103.5598L52.59289 103.5598z" /></clipPath><clipPath id="39"><path d="M52.59289 812.2172L199.4649 812.2172L199.4649 812.2172L199.4649 103.5598L199.4649 103.5598L52.59289 103.5598z" /></clipPath><clipPath id="40"><path d="M52.59289 812.2172L199.4649 812.2172L199.4649 812.2172L199.4649 103.5598L199.4649 103.5598L52.59289 103.5598z" /></clipPath><clipPath id="41"><path d="M199.4649 812.2172L542.411 812.2172L542.411 812.2172L542.411 103.5598L542.411 103.5598L199.4649 103.5598z" /></clipPath><clipPath id="42"><path d="M199.4649 812.2172L542.411 812.2172L542.411 812.2172L542.411 103.5598L542.411 103.5598L199.4649 103.5598z" /></clipPath><clipPath id="43"><path d="M52.59289 812.2172L199.4649 812.2172L199.4649 812.2172L199.4649 103.5598L199.4649 103.5598L52.59289 103.5598z" /></clipPath><clipPath id="44"><path d="M52.59289 812.2172L199.4649 812.2172L199.4649 812.2172L199.4649 103.5598L199.4649 103.5598L52.59289 103.5598z" /></clipPath><clipPath id="45"><path d="M52.59289 812.2172L199.4649 812.2172L199.4649 812.2172L199.4649 103.5598L199.4649 103.5598L52.59289 103.5598z" /></clipPath><clipPath id="46"><path d="M199.4649 812.2172L542.411 812.2172L542.411 812.2172L542.411 103.5598L542.411 103.5598L199.4649 103.5598z" /></clipPath><clipPath id="47"><path d="M199.4649 812.2172L542.411 812.2172L542.411 812.2172L542.411 103.5598L542.411 103.5598L199.4649 103.5598z" /></clipPath><clipPath id="48"><path d="M52.59289 812.2172L199.4649 812.2172L199.4649 812.2172L199.4649 103.5598L199.4649 103.5598L52.59289 103.5598z" /></clipPath><clipPath id="49"><path d="M199.4649 812.2172L542.411 812.2172L542.411 812.2172L542.411 103.5598L542.411 103.5598L199.4649 103.5598z" /></clipPath><clipPath id="50"><path d="M199.4649 812.2172L542.411 812.2172L542.411 812.2172L542.411 103.5598L542.411 103.5598L199.4649 103.5598z" /></clipPath><clipPath id="51"><path d="M52.59289 812.2172L199.4649 812.2172L199.4649 812.2172L199.4649 103.5598L199.4649 103.5598L52.59289 103.5598z" /></clipPath><clipPath id="52"><path d="M199.4649 812.2172L542.411 812.2172L542.411 812.2172L542.411 103.5598L542.411 103.5598L199.4649 103.5598z" /></clipPath><clipPath id="53"><path d="M199.4649 812.2172L542.411 812.2172L542.411 812.2172L542.411 103.5598L542.411 103.5598L199.4649 103.5598z" /></clipPath><clipPath id="54"><path d="M199.4649 812.2172L542.411 812.2172L542.411 812.2172L542.411 103.5598L542.411 103.5598L199.4649 103.5598z" /></clipPath><clipPath id="55"><path d="M199.4649 812.2172L542.411 812.2172L542.411 812.2172L542.411 103.5598L542.411 103.5598L199.4649 103.5598z" /></clipPath><clipPath id="56"><path d="M199.4649 812.2172L542.411 812.2172L542.411 812.2172L542.411 103.5598L542.411 103.5598L199.4649 103.5598z" /></clipPath><clipPath id="57"><path d="M52.59289 812.2172L199.4649 812.2172L199.4649 812.2172L199.4649 103.5598L199.4649 103.5598L52.59289 103.5598z" /></clipPath><clipPath id="58"><path d="M199.4649 812.2172L302.2753 812.2172L302.2753 812.2172L302.2753 103.5598L302.2753 103.5598L199.4649 103.5598z" /></clipPath><clipPath id="59"><path d="M302.2753 812.2172L542.411 812.2172L542.411 812.2172L542.411 103.5598L542.411 103.5598L302.2753 103.5598z" /></clipPath><clipPath id="60"><path d="M199.4649 812.2172L302.2753 812.2172L302.2753 812.2172L302.2753 103.5598L302.2753 103.5598L199.4649 103.5598z" /></clipPath><clipPath id="61"><path d="M302.2753 812.2172L542.411 812.2172L542.411 812.2172L542.411 103.5598L542.411 103.5598L302.2753 103.5598z" /></clipPath><clipPath id="62"><path d="M199.4649 812.2172L302.2753 812.2172L302.2753 812.2172L302.2753 103.5598L302.2753 103.5598L199.4649 103.5598z" /></clipPath><clipPath id="63"><path d="M302.2753 812.2172L542.411 812.2172L542.411 812.2172L542.411 103.5598L542.411 103.5598L302.2753 103.5598z" /></clipPath><clipPath id="64"><path d="M199.4649 812.2172L302.2753 812.2172L302.2753 812.2172L302.2753 103.5598L302.2753 103.5598L199.4649 103.5598z" /></clipPath><clipPath id="65"><path d="M302.2753 812.2172L542.411 812.2172L542.411 812.2172L542.411 103.5598L542.411 103.5598L302.2753 103.5598z" /></clipPath><clipPath id="66"><path d="M199.4649 812.2172L302.2753 812.2172L302.2753 812.2172L302.2753 103.5598L302.2753 103.5598L199.4649 103.5598z" /></clipPath><clipPath id="67"><path d="M302.2753 812.2172L542.411 812.2172L542.411 812.2172L542.411 103.5598L542.411 103.5598L302.2753 103.5598z" /></clipPath><clipPath id="68"><path d="M302.2753 812.2172L542.411 812.2172L542.411 812.2172L542.411 103.5598L542.411 103.5598L302.2753 103.5598z" /></clipPath><clipPath id="69"><path d="M302.2753 812.2172L542.411 812.2172L542.411 812.2172L542.411 103.5598L542.411 103.5598L302.2753 103.5598z" /></clipPath><clipPath id="70"><path d="M302.2753 812.2172L542.411 812.2172L542.411 812.2172L542.411 103.5598L542.411 103.5598L302.2753 103.5598z" /></clipPath><clipPath id="71"><path d="M52.59289 812.2172L199.4649 812.2172L199.4649 812.2172L199.4649 103.5598L199.4649 103.5598L52.59289 103.5598z" /></clipPath><clipPath id="72"><path d="M199.4649 812.2172L302.2753 812.2172L302.2753 812.2172L302.2753 103.5598L302.2753 103.5598L199.4649 103.5598z" /></clipPath><clipPath id="73"><path d="M302.2753 812.2172L542.411 812.2172L542.411 812.2172L542.411 103.5598L542.411 103.5598L302.2753 103.5598z" /></clipPath><clipPath id="74"><path d="M199.4649 812.2172L302.2753 812.2172L302.2753 812.2172L302.2753 103.5598L302.2753 103.5598L199.4649 103.5598z" /></clipPath><clipPath id="75"><path d="M302.2753 812.2172L542.411 812.2172L542.411 812.2172L542.411 103.5598L542.411 103.5598L302.2753 103.5598z" /></clipPath><clipPath id="76"><path d="M199.4649 812.2172L302.2753 812.2172L302.2753 812.2172L302.2753 103.5598L302.2753 103.5598L199.4649 103.5598z" /></clipPath><clipPath id="77"><path d="M302.2753 812.2172L542.411 812.2172L542.411 812.2172L542.411 103.5598L542.411 103.5598L302.2753 103.5598z" /></clipPath><clipPath id="78"><path d="M199.4649 812.2172L302.2753 812.2172L302.2753 812.2172L302.2753 103.5598L302.2753 103.5598L199.4649 103.5598z" /></clipPath><clipPath id="79"><path d="M302.2753 812.2172L542.411 812.2172L542.411 812.2172L542.411 103.5598L542.411 103.5598L302.2753 103.5598z" /></clipPath><clipPath id="80"><path d="M302.2753 812.2172L542.411 812.2172L542.411 812.2172L542.411 103.5598L542.411 103.5598L302.2753 103.5598z" /></clipPath><clipPath id="81"><path d="M302.2753 812.2172L542.411 812.2172L542.411 812.2172L542.411 103.5598L542.411 103.5598L302.2753 103.5598z" /></clipPath><clipPath id="82"><path d="M302.2753 812.2172L542.411 812.2172L542.411 812.2172L542.411 103.5598L542.411 103.5598L302.2753 103.5598z" /></clipPath><clipPath id="83"><path d="M52.59289 812.2172L199.4649 812.2172L199.4649 812.2172L199.4649 103.5598L199.4649 103.5598L52.59289 103.5598z" /></clipPath><clipPath id="84"><path d="M199.4649 812.2172L302.2753 812.2172L302.2753 812.2172L302.2753 103.5598L302.2753 103.5598L199.4649 103.5598z" /></clipPath><clipPath id="85"><path d="M302.2753 812.2172L542.411 812.2172L542.411 812.2172L542.411 103.5598L542.411 103.5598L302.2753 103.5598z" /></clipPath><clipPath id="86"><path d="M199.4649 812.2172L302.2753 812.2172L302.2753 812.2172L302.2753 103.5598L302.2753 103.5598L199.4649 103.5598z" /></clipPath><clipPath id="87"><path d="M302.2753 812.2172L542.411 812.2172L542.411 812.2172L542.411 103.5598L542.411 103.5598L302.2753 103.5598z" /></clipPath><clipPath id="88"><path d="M199.4649 812.2172L302.2753 812.2172L302.2753 812.2172L302.2753 103.5598L302.2753 103.5598L199.4649 103.5598z" /></clipPath><clipPath id="89"><path d="M302.2753 812.2172L542.411 812.2172L542.411 812.2172L542.411 103.5598L542.411 103.5598L302.2753 103.5598z" /></clipPath><clipPath id="90"><path d="M302.2753 812.2172L542.411 812.2172L542.411 812.2172L542.411 103.5598L542.411 103.5598L302.2753 103.5598z" /></clipPath><clipPath id="91"><path d="M302.2753 812.2172L542.411 812.2172L542.411 812.2172L542.411 103.5598L542.411 103.5598L302.2753 103.5598z" /></clipPath><clipPath id="92"><path d="M199.4649 812.2172L302.2753 812.2172L302.2753 812.2172L302.2753 103.5598L302.2753 103.5598L199.4649 103.5598z" /></clipPath><clipPath id="93"><path d="M302.2753 812.2172L542.411 812.2172L542.411 812.2172L542.411 103.5598L542.411 103.5598L302.2753 103.5598z" /></clipPath><clipPath id="94"><path d="M302.2753 812.2172L542.411 812.2172L542.411 812.2172L542.411 103.5598L542.411 103.5598L302.2753 103.5598z" /></clipPath><clipPath id="95"><path d="M302.2753 812.2172L542.411 812.2172L542.411 812.2172L542.411 103.5598L542.411 103.5598L302.2753 103.5598z" /></clipPath><clipPath id="96"><path d="M302.2753 812.2172L542.411 812.2172L542.411 812.2172L542.411 103.5598L542.411 103.5598L302.2753 103.5598z" /></clipPath><clipPath id="97"><path d="M52.59289 812.2172L199.4649 812.2172L199.4649 812.2172L199.4649 103.5598L199.4649 103.5598L52.59289 103.5598z" /></clipPath><clipPath id="98"><path d="M199.4649 812.2172L542.411 812.2172L542.411 812.2172L542.411 103.5598L542.411 103.5598L199.4649 103.5598z" /></clipPath><clipPath id="99"><path d="M199.4649 812.2172L542.411 812.2172L542.411 812.2172L542.411 103.5598L542.411 103.5598L199.4649 103.5598z" /></clipPath><clipPath id="100"><path d="M199.4649 812.2172L542.411 812.2172L542.411 812.2172L542.411 103.5598L542.411 103.5598L199.4649 103.5598z" /></clipPath><clipPath id="101"><path d="M10.00001 176.6985L585.0039 176.6985L585.0039 176.6985L585.0039 9.998779L585.0039 9.998779L10.00001 9.998779z" /></clipPath><clipPath id="102"><path d="M8.53129 250.1345L598.9567 250.1345L598.9567 250.1345L598.9567 -63.43726L598.9567 -63.43726L8.53129 -63.43726z" /></clipPath><clipPath id="103"><path d="M17.34361 250.1345L577.6603 250.1345L577.6603 250.1345L577.6603 -63.43726L577.6603 -63.43726L17.34361 -63.43726z" /></clipPath><clipPath id="104"><path d="M17.34361 250.1345L577.6603 250.1345L577.6603 250.1345L577.6603 -63.43726L577.6603 -63.43726L17.34361 -63.43726z" /></clipPath><clipPath id="105"><path d="M17.34361 250.1345L577.6603 250.1345L577.6603 250.1345L577.6603 -63.43726L577.6603 -63.43726L17.34361 -63.43726z" /></clipPath><clipPath id="106"><path d="M17.34361 250.1345L577.6603 250.1345L577.6603 250.1345L577.6603 -63.43726L577.6603 -63.43726L17.34361 -63.43726z" /></clipPath><clipPath id="107"><path d="M17.34361 250.1345L577.6603 250.1345L577.6603 250.1345L577.6603 -63.43726L577.6603 -63.43726L17.34361 -63.43726z" /></clipPath><clipPath id="108"><path d="M17.34361 250.1345L577.6603 250.1345L577.6603 250.1345L577.6603 -63.43726L577.6603 -63.43726L17.34361 -63.43726z" /></clipPath><clipPath id="109"><path d="M17.34361 250.1345L577.6603 250.1345L577.6603 250.1345L577.6603 -63.43726L577.6603 -63.43726L17.34361 -63.43726z" /></clipPath><clipPath id="110"><path d="M17.34361 250.1345L244.9952 250.1345L244.9952 250.1345L244.9952 -63.43726L244.9952 -63.43726L17.34361 -63.43726z" /></clipPath><clipPath id="111"><path d="M17.34361 250.1345L244.9952 250.1345L244.9952 250.1345L244.9952 -63.43726L244.9952 -63.43726L17.34361 -63.43726z" /></clipPath><clipPath id="112"><path d="M17.34361 250.1345L244.9952 250.1345L244.9952 250.1345L244.9952 -63.43726L244.9952 -63.43726L17.34361 -63.43726z" /></clipPath><clipPath id="113"><path d="M17.34361 250.1345L244.9952 250.1345L244.9952 250.1345L244.9952 -63.43726L244.9952 -63.43726L17.34361 -63.43726z" /></clipPath><clipPath id="114"><path d="M10.00001 831.4826L585.0039 831.4826L585.0039 831.4826L585.0039 771.9995L585.0039 771.9995L10.00001 771.9995z" /></clipPath><clipPath id="115"><path d="M8.53129 904.9186L598.9567 904.9186L598.9567 904.9186L598.9567 698.5635L598.9567 698.5635L8.53129 698.5635z" /></clipPath><clipPath id="116"><path d="M17.34361 904.9186L577.6603 904.9186L577.6603 904.9186L577.6603 698.5635L577.6603 698.5635L17.34361 698.5635z" /></clipPath><clipPath id="117"><path d="M17.34361 904.9186L236.9173 904.9186L236.9173 904.9186L236.9173 698.5635L236.9173 698.5635L17.34361 698.5635z" /></clipPath><clipPath id="118"><path d="M17.34361 904.9186L236.9173 904.9186L236.9173 904.9186L236.9173 698.5635L236.9173 698.5635L17.34361 698.5635z" /></clipPath><clipPath id="119"><path d="M17.34361 904.9186L236.9173 904.9186L236.9173 904.9186L236.9173 698.5635L236.9173 698.5635L17.34361 698.5635z" /></clipPath><clipPath id="120"><path d="M17.34361 904.9186L236.9173 904.9186L236.9173 904.9186L236.9173 698.5635L236.9173 698.5635L17.34361 698.5635z" /></clipPath><clipPath id="121"><path d="M17.34361 904.9186L236.9173 904.9186L236.9173 904.9186L236.9173 698.5635L236.9173 698.5635L17.34361 698.5635z" /></clipPath><clipPath id="122"><path d="M17.34361 904.9186L236.9173 904.9186L236.9173 904.9186L236.9173 698.5635L236.9173 698.5635L17.34361 698.5635z" /></clipPath><clipPath id="123"><path d="M17.34361 904.9186L236.9173 904.9186L236.9173 904.9186L236.9173 698.5635L236.9173 698.5635L17.34361 698.5635z" /></clipPath><clipPath id="124"><path d="M17.34361 904.9186L236.9173 904.9186L236.9173 904.9186L236.9173 698.5635L236.9173 698.5635L17.34361 698.5635z" /></clipPath><clipPath id="125"><path d="M17.34361 904.9186L236.9173 904.9186L236.9173 904.9186L236.9173 698.5635L236.9173 698.5635L17.34361 698.5635z" /></clipPath><clipPath id="126"><path d="M17.34361 904.9186L236.9173 904.9186L236.9173 904.9186L236.9173 698.5635L236.9173 698.5635L17.34361 698.5635z" /></clipPath><clipPath id="127"><path d="M17.34361 904.9186L236.9173 904.9186L236.9173 904.9186L236.9173 698.5635L236.9173 698.5635L17.34361 698.5635z" /></clipPath><clipPath id="128"><path d="M319.8999 904.9186L577.6603 904.9186L577.6603 904.9186L577.6603 698.5635L577.6603 698.5635L319.8999 698.5635z" /></clipPath><clipPath id="129"><path d="M319.8999 904.9186L577.6603 904.9186L577.6603 904.9186L577.6603 698.5635L577.6603 698.5635L319.8999 698.5635z" /></clipPath><clipPath id="130"><path d="M319.8999 904.9186L577.6603 904.9186L577.6603 904.9186L577.6603 698.5635L577.6603 698.5635L319.8999 698.5635z" /></clipPath><clipPath id="131"><path d="M319.8999 904.9186L577.6603 904.9186L577.6603 904.9186L577.6603 698.5635L577.6603 698.5635L319.8999 698.5635z" /></clipPath></defs><g transform="matrix(1.333333 0 0 1.333333 0 0)"><g><g clip-path="url(#1)"><g clip-path="url(#2)"><g clip-path="url(#3)"></g><path transform="matrix(1 0 0 -1 0 842)" d="M10.00001 29.78277L585.0039 29.78277L585.0039 29.78277L585.0039 665.0042L585.0039 665.0042L10.00001 665.0042z" stroke="none" fill="#FFFFFF" fill-rule="evenodd" /><path transform="matrix(1 0 0 -1 0 842)" d="M10.00001 29.78277L585.0039 29.78277L585.0039 29.78277L585.0039 665.0042L585.0039 665.0042L10.00001 665.0042z" stroke="none" fill="#FFFFFF" fill-rule="evenodd" /><path transform="matrix(1 0 0 -1 0 842)" d="M542.0438 176.2876L52.96007 176.2876" stroke="#000000" stroke-width="0.73436" stroke-linecap="square" fill="none" /><path transform="matrix(1 0 0 -1 0 842)" d="M542.0438 103.586L52.96007 103.586" stroke="#000000" stroke-width="0.73436" stroke-linecap="square" fill="none" /><g clip-path="url(#4)"></g><g clip-path="url(#5)"></g><g clip-path="url(#6)"></g><g clip-path="url(#7)"></g><g clip-path="url(#8)"></g><path transform="matrix(1 0 0 -1 0 842)" d="M108.4042 122.3121L232.5111 122.3121L232.5111 122.3121L232.5111 123.0465L232.5111 123.0465L108.4042 123.0465z" stroke="none" fill="#0066CC" fill-rule="evenodd" /><g clip-path="url(#9)"></g><g clip-path="url(#10)"></g><g clip-path="url(#11)"></g><g clip-path="url(#12)"></g><g clip-path="url(#13)"></g><g clip-path="url(#14)"></g><g clip-path="url(#15)"></g><g clip-path="url(#16)"></g><g clip-path="url(#17)"></g><g clip-path="url(#18)"></g><g clip-path="url(#19)"></g><g clip-path="url(#20)"></g><g clip-path="url(#21)"></g><g clip-path="url(#22)"></g><g clip-path="url(#23)"></g><g clip-path="url(#24)"></g><g clip-path="url(#25)"></g><g clip-path="url(#26)"></g><g clip-path="url(#27)"></g><g clip-path="url(#28)"></g><g clip-path="url(#29)"></g><g clip-path="url(#30)"></g><g clip-path="url(#31)"></g><g clip-path="url(#32)"></g><g clip-path="url(#33)"></g><g clip-path="url(#34)"></g><g clip-path="url(#35)"></g><g clip-path="url(#36)"></g><g clip-path="url(#37)"></g><g clip-path="url(#38)"></g><g clip-path="url(#39)"></g><g clip-path="url(#40)"></g><g clip-path="url(#41)"></g><g clip-path="url(#42)"></g><g clip-path="url(#43)"></g><g clip-path="url(#44)"></g><g clip-path="url(#45)"></g><g clip-path="url(#46)"></g><g clip-path="url(#47)"></g><g clip-path="url(#48)"></g><g clip-path="url(#49)"></g><g clip-path="url(#50)"></g><g clip-path="url(#51)"></g><g clip-path="url(#52)"></g><g clip-path="url(#53)"></g><g clip-path="url(#54)"></g><path transform="matrix(1 0 0 -1 0 842)" d="M220.027 402.1033L377.18 402.1033L377.18 402.1033L377.18 402.8376L377.18 402.8376L220.027 402.8376z" stroke="none" fill="#0066CC" fill-rule="evenodd" /><g clip-path="url(#55)"></g><g clip-path="url(#56)"></g><g clip-path="url(#57)"></g><g clip-path="url(#58)"></g><g clip-path="url(#59)"></g><g clip-path="url(#60)"></g><g clip-path="url(#61)"></g><g clip-path="url(#62)"></g><g clip-path="url(#63)"></g><g clip-path="url(#64)"></g><g clip-path="url(#65)"></g><g clip-path="url(#66)"></g><g clip-path="url(#67)"></g><g clip-path="url(#68)"></g><g clip-path="url(#69)"></g><g clip-path="url(#70)"></g><g clip-path="url(#71)"></g><g clip-path="url(#72)"></g><g clip-path="url(#73)"></g><g clip-path="url(#74)"></g><g clip-path="url(#75)"></g><g clip-path="url(#76)"></g><g clip-path="url(#77)"></g><g clip-path="url(#78)"></g><g clip-path="url(#79)"></g><g clip-path="url(#80)"></g><g clip-path="url(#81)"></g><g clip-path="url(#82)"></g><g clip-path="url(#83)"></g><g clip-path="url(#84)"></g><g clip-path="url(#85)"></g><g clip-path="url(#86)"></g><g clip-path="url(#87)"></g><g clip-path="url(#88)"></g><g clip-path="url(#89)"></g><g clip-path="url(#90)"></g><g clip-path="url(#91)"></g><g clip-path="url(#92)"></g><g clip-path="url(#93)"></g><g clip-path="url(#94)"></g><g clip-path="url(#95)"></g><g clip-path="url(#96)"></g><g clip-path="url(#97)"></g><g clip-path="url(#98)"></g><path transform="matrix(1 0 0 -1 0 842)" d="M199.4649 181.7953L247.1983 181.7953L247.1983 181.7953L247.1983 182.5296L247.1983 182.5296L199.4649 182.5296z" stroke="none" fill="#0066CC" fill-rule="evenodd" /><g clip-path="url(#99)"></g><g clip-path="url(#100)"></g></g><g clip-path="url(#101)"><g clip-path="url(#102)"></g><path transform="matrix(1 0 0 -1 0 842)" d="M10.00001 635.1927L585.0039 635.1927L585.0039 635.1927L585.0039 832.0012L585.0039 832.0012L10.00001 832.0012z" stroke="none" fill="#FFFFFF" fill-rule="evenodd" /><path transform="matrix(1 0 0 -1 0 842)" d="M10.00001 635.1927L585.0039 635.1927L585.0039 635.1927L585.0039 832.0012L585.0039 832.0012L10.00001 832.0012z" stroke="none" fill="#FFFFFF" fill-rule="evenodd" /><path transform="matrix(1 0 0 -1 0 842)" d="M577.2931 686.9651L17.71079 686.9651" stroke="#000000" stroke-width="0.73436" stroke-linecap="square" fill="none" /><g clip-path="url(#103)"></g><g clip-path="url(#104)"></g><g clip-path="url(#105)"></g><g clip-path="url(#106)"></g><g clip-path="url(#107)"></g><g clip-path="url(#108)"></g><g clip-path="url(#109)"></g><g clip-path="url(#110)"></g><g clip-path="url(#111)"></g><g clip-path="url(#112)"></g><g clip-path="url(#113)"></g><g transform="matrix(0.1935941 0 0 0.1949628 446.2098 21.01416)"><g transform="matrix(1 0 0 1 0 0)"><image x="0" y="0" xlink:href="img_01.png" width="679" height="113" /></g></g></g><g clip-path="url(#114)"><g clip-path="url(#115)"></g><path transform="matrix(1 0 0 -1 0 842)" d="M10.00001 -17.38827L585.0039 -17.38827L585.0039 -17.38827L585.0039 70.00056L585.0039 70.00056L10.00001 70.00056z" stroke="none" fill="#FFFFFF" fill-rule="evenodd" /><path transform="matrix(1 0 0 -1 0 842)" d="M10.00001 -17.38827L585.0039 -17.38827L585.0039 -17.38827L585.0039 70.00056L585.0039 70.00056L10.00001 70.00056z" stroke="none" fill="#FFFFFF" fill-rule="evenodd" /><path transform="matrix(1 0 0 -1 0 842)" d="M577.2931 58.61799L17.71079 58.61799" stroke="#000000" stroke-width="0.73436" stroke-linecap="square" fill="none" /><g clip-path="url(#116)"></g><g clip-path="url(#117)"></g><g clip-path="url(#118)"></g><g clip-path="url(#119)"></g><g clip-path="url(#120)"></g><g clip-path="url(#121)"></g><g clip-path="url(#122)"></g><g clip-path="url(#123)"></g><g clip-path="url(#124)"></g><g clip-path="url(#125)"></g><g clip-path="url(#126)"></g><g clip-path="url(#127)"></g><g clip-path="url(#128)"></g><g clip-path="url(#129)"></g><g clip-path="url(#130)"></g><g clip-path="url(#131)"></g></g></g></g></g></svg>