<svg xmlns="http://www.w3.org/2000/svg" xmlns:xlink="http://www.w3.org/1999/xlink" id="body_2" preserveAspectRatio="xMinYMin meet" viewBox="0 0 793 1123"><defs><clipPath id="1"><path d="M0 842L0 0L0 0L595 0L595 0L595 842L595 842L0 842z" /></clipPath><clipPath id="2"><path d="M10.00001 678.3581L585.0039 678.3581L585.0039 678.3581L585.0039 84.99524L585.0039 84.99524L10.00001 84.99524z" /></clipPath><clipPath id="3"><path d="M17.34361 751.7941L577.6603 751.7941L577.6603 751.7941L577.6603 11.5592L577.6603 11.5592L17.34361 11.5592z" /></clipPath><clipPath id="4"><path d="M17.34361 751.7941L577.6603 751.7941L577.6603 751.7941L577.6603 11.5592L577.6603 11.5592L17.34361 11.5592z" /></clipPath><clipPath id="5"><path d="M17.34361 751.7941L577.6603 751.7941L577.6603 751.7941L577.6603 11.5592L577.6603 11.5592L17.34361 11.5592z" /></clipPath><clipPath id="6"><path d="M17.34361 751.7941L577.6603 751.7941L577.6603 751.7941L577.6603 11.5592L577.6603 11.5592L17.34361 11.5592z" /></clipPath><clipPath id="7"><path d="M17.34361 751.7941L577.6603 751.7941L577.6603 751.7941L577.6603 11.5592L577.6603 11.5592L17.34361 11.5592z" /></clipPath><clipPath id="8"><path d="M17.34361 751.7941L577.6603 751.7941L577.6603 751.7941L577.6603 11.5592L577.6603 11.5592L17.34361 11.5592z" /></clipPath><clipPath id="9"><path d="M17.34361 751.7941L577.6603 751.7941L577.6603 751.7941L577.6603 11.5592L577.6603 11.5592L17.34361 11.5592z" /></clipPath><clipPath id="10"><path d="M17.34361 751.7941L577.6603 751.7941L577.6603 751.7941L577.6603 11.5592L577.6603 11.5592L17.34361 11.5592z" /></clipPath><clipPath id="11"><path d="M17.34361 751.7941L577.6603 751.7941L577.6603 751.7941L577.6603 11.5592L577.6603 11.5592L17.34361 11.5592z" /></clipPath><clipPath id="12"><path d="M17.34361 751.7941L577.6603 751.7941L577.6603 751.7941L577.6603 11.5592L577.6603 11.5592L17.34361 11.5592z" /></clipPath><clipPath id="13"><path d="M17.34361 751.7941L577.6603 751.7941L577.6603 751.7941L577.6603 11.5592L577.6603 11.5592L17.34361 11.5592z" /></clipPath><clipPath id="14"><path d="M17.34361 751.7941L577.6603 751.7941L577.6603 751.7941L577.6603 11.5592L577.6603 11.5592L17.34361 11.5592z" /></clipPath><clipPath id="15"><path d="M17.34361 751.7941L577.6603 751.7941L577.6603 751.7941L577.6603 11.5592L577.6603 11.5592L17.34361 11.5592z" /></clipPath><clipPath id="16"><path d="M17.34361 751.7941L577.6603 751.7941L577.6603 751.7941L577.6603 11.5592L577.6603 11.5592L17.34361 11.5592z" /></clipPath><clipPath id="17"><path d="M17.34361 751.7941L577.6603 751.7941L577.6603 751.7941L577.6603 11.5592L577.6603 11.5592L17.34361 11.5592z" /></clipPath><clipPath id="18"><path d="M17.34361 751.7941L577.6603 751.7941L577.6603 751.7941L577.6603 11.5592L577.6603 11.5592L17.34361 11.5592z" /></clipPath><clipPath id="19"><path d="M17.34361 751.7941L577.6603 751.7941L577.6603 751.7941L577.6603 11.5592L577.6603 11.5592L17.34361 11.5592z" /></clipPath><clipPath id="20"><path d="M17.34361 751.7941L577.6603 751.7941L577.6603 751.7941L577.6603 11.5592L577.6603 11.5592L17.34361 11.5592z" /></clipPath><clipPath id="21"><path d="M17.34361 751.7941L577.6603 751.7941L577.6603 751.7941L577.6603 11.5592L577.6603 11.5592L17.34361 11.5592z" /></clipPath><clipPath id="22"><path d="M17.34361 751.7941L577.6603 751.7941L577.6603 751.7941L577.6603 11.5592L577.6603 11.5592L17.34361 11.5592z" /></clipPath><clipPath id="23"><path d="M17.34361 751.7941L577.6603 751.7941L577.6603 751.7941L577.6603 11.5592L577.6603 11.5592L17.34361 11.5592z" /></clipPath><clipPath id="24"><path d="M17.34361 751.7941L577.6603 751.7941L577.6603 751.7941L577.6603 11.5592L577.6603 11.5592L17.34361 11.5592z" /></clipPath><clipPath id="25"><path d="M17.34361 751.7941L577.6603 751.7941L577.6603 751.7941L577.6603 11.5592L577.6603 11.5592L17.34361 11.5592z" /></clipPath><clipPath id="26"><path d="M17.34361 751.7941L577.6603 751.7941L577.6603 751.7941L577.6603 11.5592L577.6603 11.5592L17.34361 11.5592z" /></clipPath><clipPath id="27"><path d="M17.34361 751.7941L577.6603 751.7941L577.6603 751.7941L577.6603 11.5592L577.6603 11.5592L17.34361 11.5592z" /></clipPath><clipPath id="28"><path d="M17.34361 751.7941L577.6603 751.7941L577.6603 751.7941L577.6603 11.5592L577.6603 11.5592L17.34361 11.5592z" /></clipPath><clipPath id="29"><path d="M17.34361 751.7941L577.6603 751.7941L577.6603 751.7941L577.6603 11.5592L577.6603 11.5592L17.34361 11.5592z" /></clipPath><clipPath id="30"><path d="M17.34361 751.7941L577.6603 751.7941L577.6603 751.7941L577.6603 11.5592L577.6603 11.5592L17.34361 11.5592z" /></clipPath><clipPath id="31"><path d="M17.34361 751.7941L577.6603 751.7941L577.6603 751.7941L577.6603 11.5592L577.6603 11.5592L17.34361 11.5592z" /></clipPath><clipPath id="32"><path d="M17.34361 751.7941L577.6603 751.7941L577.6603 751.7941L577.6603 11.5592L577.6603 11.5592L17.34361 11.5592z" /></clipPath><clipPath id="33"><path d="M17.34361 751.7941L577.6603 751.7941L577.6603 751.7941L577.6603 11.5592L577.6603 11.5592L17.34361 11.5592z" /></clipPath><clipPath id="34"><path d="M17.34361 751.7941L577.6603 751.7941L577.6603 751.7941L577.6603 11.5592L577.6603 11.5592L17.34361 11.5592z" /></clipPath><clipPath id="35"><path d="M17.34361 751.7941L577.6603 751.7941L577.6603 751.7941L577.6603 11.5592L577.6603 11.5592L17.34361 11.5592z" /></clipPath><clipPath id="36"><path d="M17.34361 751.7941L577.6603 751.7941L577.6603 751.7941L577.6603 11.5592L577.6603 11.5592L17.34361 11.5592z" /></clipPath><clipPath id="37"><path d="M17.34361 751.7941L577.6603 751.7941L577.6603 751.7941L577.6603 11.5592L577.6603 11.5592L17.34361 11.5592z" /></clipPath><clipPath id="38"><path d="M17.34361 751.7941L577.6603 751.7941L577.6603 751.7941L577.6603 11.5592L577.6603 11.5592L17.34361 11.5592z" /></clipPath><clipPath id="39"><path d="M17.34361 751.7941L577.6603 751.7941L577.6603 751.7941L577.6603 11.5592L577.6603 11.5592L17.34361 11.5592z" /></clipPath><clipPath id="40"><path d="M17.34361 751.7941L577.6603 751.7941L577.6603 751.7941L577.6603 11.5592L577.6603 11.5592L17.34361 11.5592z" /></clipPath><clipPath id="41"><path d="M17.34361 751.7941L577.6603 751.7941L577.6603 751.7941L577.6603 11.5592L577.6603 11.5592L17.34361 11.5592z" /></clipPath><clipPath id="42"><path d="M17.34361 751.7941L577.6603 751.7941L577.6603 751.7941L577.6603 11.5592L577.6603 11.5592L17.34361 11.5592z" /></clipPath><clipPath id="43"><path d="M17.34361 751.7941L577.6603 751.7941L577.6603 751.7941L577.6603 11.5592L577.6603 11.5592L17.34361 11.5592z" /></clipPath><clipPath id="44"><path d="M17.34361 751.7941L577.6603 751.7941L577.6603 751.7941L577.6603 11.5592L577.6603 11.5592L17.34361 11.5592z" /></clipPath><clipPath id="45"><path d="M17.34361 751.7941L577.6603 751.7941L577.6603 751.7941L577.6603 11.5592L577.6603 11.5592L17.34361 11.5592z" /></clipPath><clipPath id="46"><path d="M17.34361 751.7941L577.6603 751.7941L577.6603 751.7941L577.6603 11.5592L577.6603 11.5592L17.34361 11.5592z" /></clipPath><clipPath id="47"><path d="M17.34361 751.7941L577.6603 751.7941L577.6603 751.7941L577.6603 11.5592L577.6603 11.5592L17.34361 11.5592z" /></clipPath><clipPath id="48"><path d="M17.34361 751.7941L577.6603 751.7941L577.6603 751.7941L577.6603 11.5592L577.6603 11.5592L17.34361 11.5592z" /></clipPath><clipPath id="49"><path d="M17.34361 751.7941L577.6603 751.7941L577.6603 751.7941L577.6603 11.5592L577.6603 11.5592L17.34361 11.5592z" /></clipPath><clipPath id="50"><path d="M17.34361 751.7941L577.6603 751.7941L577.6603 751.7941L577.6603 11.5592L577.6603 11.5592L17.34361 11.5592z" /></clipPath><clipPath id="51"><path d="M17.34361 751.7941L577.6603 751.7941L577.6603 751.7941L577.6603 11.5592L577.6603 11.5592L17.34361 11.5592z" /></clipPath><clipPath id="52"><path d="M17.34361 751.7941L577.6603 751.7941L577.6603 751.7941L577.6603 11.5592L577.6603 11.5592L17.34361 11.5592z" /></clipPath><clipPath id="53"><path d="M17.34361 751.7941L577.6603 751.7941L577.6603 751.7941L577.6603 11.5592L577.6603 11.5592L17.34361 11.5592z" /></clipPath><clipPath id="54"><path d="M17.34361 751.7941L577.6603 751.7941L577.6603 751.7941L577.6603 11.5592L577.6603 11.5592L17.34361 11.5592z" /></clipPath><clipPath id="55"><path d="M17.34361 751.7941L577.6603 751.7941L577.6603 751.7941L577.6603 11.5592L577.6603 11.5592L17.34361 11.5592z" /></clipPath><clipPath id="56"><path d="M17.34361 751.7941L577.6603 751.7941L577.6603 751.7941L577.6603 11.5592L577.6603 11.5592L17.34361 11.5592z" /></clipPath><clipPath id="57"><path d="M17.34361 751.7941L577.6603 751.7941L577.6603 751.7941L577.6603 11.5592L577.6603 11.5592L17.34361 11.5592z" /></clipPath><clipPath id="58"><path d="M17.34361 751.7941L577.6603 751.7941L577.6603 751.7941L577.6603 11.5592L577.6603 11.5592L17.34361 11.5592z" /></clipPath><clipPath id="59"><path d="M17.34361 751.7941L577.6603 751.7941L577.6603 751.7941L577.6603 11.5592L577.6603 11.5592L17.34361 11.5592z" /></clipPath><clipPath id="60"><path d="M17.34361 751.7941L577.6603 751.7941L577.6603 751.7941L577.6603 11.5592L577.6603 11.5592L17.34361 11.5592z" /></clipPath><clipPath id="61"><path d="M17.34361 751.7941L577.6603 751.7941L577.6603 751.7941L577.6603 11.5592L577.6603 11.5592L17.34361 11.5592z" /></clipPath><clipPath id="62"><path d="M17.34361 751.7941L577.6603 751.7941L577.6603 751.7941L577.6603 11.5592L577.6603 11.5592L17.34361 11.5592z" /></clipPath><clipPath id="63"><path d="M17.34361 751.7941L577.6603 751.7941L577.6603 751.7941L577.6603 11.5592L577.6603 11.5592L17.34361 11.5592z" /></clipPath><clipPath id="64"><path d="M17.34361 751.7941L577.6603 751.7941L577.6603 751.7941L577.6603 11.5592L577.6603 11.5592L17.34361 11.5592z" /></clipPath><clipPath id="65"><path d="M17.34361 751.7941L577.6603 751.7941L577.6603 751.7941L577.6603 11.5592L577.6603 11.5592L17.34361 11.5592z" /></clipPath><clipPath id="66"><path d="M53.32725 751.7941L435.1944 751.7941L435.1944 751.7941L435.1944 11.5592L435.1944 11.5592L53.32725 11.5592z" /></clipPath><clipPath id="67"><path d="M435.9288 751.7941L541.6766 751.7941L541.6766 751.7941L541.6766 11.5592L541.6766 11.5592L435.9288 11.5592z" /></clipPath><clipPath id="68"><path d="M435.9288 751.7941L541.6766 751.7941L541.6766 751.7941L541.6766 11.5592L541.6766 11.5592L435.9288 11.5592z" /></clipPath><clipPath id="69"><path d="M53.32725 751.7941L75.35805 751.7941L75.35805 751.7941L75.35805 11.5592L75.35805 11.5592L53.32725 11.5592z" /></clipPath><clipPath id="70"><path d="M76.09241 751.7941L435.1944 751.7941L435.1944 751.7941L435.1944 11.5592L435.1944 11.5592L76.09241 11.5592z" /></clipPath><clipPath id="71"><path d="M76.09241 751.7941L435.1944 751.7941L435.1944 751.7941L435.1944 11.5592L435.1944 11.5592L76.09241 11.5592z" /></clipPath><clipPath id="72"><path d="M435.9288 751.7941L541.6766 751.7941L541.6766 751.7941L541.6766 11.5592L541.6766 11.5592L435.9288 11.5592z" /></clipPath><clipPath id="73"><path d="M435.9288 751.7941L541.6766 751.7941L541.6766 751.7941L541.6766 11.5592L541.6766 11.5592L435.9288 11.5592z" /></clipPath><clipPath id="74"><path d="M53.32725 751.7941L75.35805 751.7941L75.35805 751.7941L75.35805 11.5592L75.35805 11.5592L53.32725 11.5592z" /></clipPath><clipPath id="75"><path d="M76.09241 751.7941L435.1944 751.7941L435.1944 751.7941L435.1944 11.5592L435.1944 11.5592L76.09241 11.5592z" /></clipPath><clipPath id="76"><path d="M76.09241 751.7941L435.1944 751.7941L435.1944 751.7941L435.1944 11.5592L435.1944 11.5592L76.09241 11.5592z" /></clipPath><clipPath id="77"><path d="M435.9288 751.7941L541.6766 751.7941L541.6766 751.7941L541.6766 11.5592L541.6766 11.5592L435.9288 11.5592z" /></clipPath><clipPath id="78"><path d="M435.9288 751.7941L541.6766 751.7941L541.6766 751.7941L541.6766 11.5592L541.6766 11.5592L435.9288 11.5592z" /></clipPath><clipPath id="79"><path d="M53.32725 751.7941L75.35805 751.7941L75.35805 751.7941L75.35805 11.5592L75.35805 11.5592L53.32725 11.5592z" /></clipPath><clipPath id="80"><path d="M76.09241 751.7941L435.1944 751.7941L435.1944 751.7941L435.1944 11.5592L435.1944 11.5592L76.09241 11.5592z" /></clipPath><clipPath id="81"><path d="M76.09241 751.7941L435.1944 751.7941L435.1944 751.7941L435.1944 11.5592L435.1944 11.5592L76.09241 11.5592z" /></clipPath><clipPath id="82"><path d="M435.9288 751.7941L541.6766 751.7941L541.6766 751.7941L541.6766 11.5592L541.6766 11.5592L435.9288 11.5592z" /></clipPath><clipPath id="83"><path d="M435.9288 751.7941L541.6766 751.7941L541.6766 751.7941L541.6766 11.5592L541.6766 11.5592L435.9288 11.5592z" /></clipPath><clipPath id="84"><path d="M53.32725 751.7941L75.35805 751.7941L75.35805 751.7941L75.35805 11.5592L75.35805 11.5592L53.32725 11.5592z" /></clipPath><clipPath id="85"><path d="M76.09241 751.7941L435.1944 751.7941L435.1944 751.7941L435.1944 11.5592L435.1944 11.5592L76.09241 11.5592z" /></clipPath><clipPath id="86"><path d="M76.09241 751.7941L435.1944 751.7941L435.1944 751.7941L435.1944 11.5592L435.1944 11.5592L76.09241 11.5592z" /></clipPath><clipPath id="87"><path d="M435.9288 751.7941L541.6766 751.7941L541.6766 751.7941L541.6766 11.5592L541.6766 11.5592L435.9288 11.5592z" /></clipPath><clipPath id="88"><path d="M53.32725 751.7941L75.35805 751.7941L75.35805 751.7941L75.35805 11.5592L75.35805 11.5592L53.32725 11.5592z" /></clipPath><clipPath id="89"><path d="M76.09241 751.7941L435.1944 751.7941L435.1944 751.7941L435.1944 11.5592L435.1944 11.5592L76.09241 11.5592z" /></clipPath><clipPath id="90"><path d="M76.09241 751.7941L435.1944 751.7941L435.1944 751.7941L435.1944 11.5592L435.1944 11.5592L76.09241 11.5592z" /></clipPath><clipPath id="91"><path d="M435.9288 751.7941L541.6766 751.7941L541.6766 751.7941L541.6766 11.5592L541.6766 11.5592L435.9288 11.5592z" /></clipPath><clipPath id="92"><path d="M435.9288 751.7941L541.6766 751.7941L541.6766 751.7941L541.6766 11.5592L541.6766 11.5592L435.9288 11.5592z" /></clipPath><clipPath id="93"><path d="M52.59289 677.6237L542.411 677.6237L542.411 677.6237L542.411 513.8615L542.411 513.8615L52.59289 513.8615z" /></clipPath><clipPath id="94"><path d="M52.59289 677.6237L542.411 677.6237L542.411 677.6237L542.411 513.8615L542.411 513.8615L52.59289 513.8615z" /></clipPath><clipPath id="95"><path d="M52.59289 677.6237L542.411 677.6237L542.411 677.6237L542.411 513.8615L542.411 513.8615L52.59289 513.8615z" /></clipPath><clipPath id="96"><path d="M52.59289 677.6237L542.411 677.6237L542.411 677.6237L542.411 513.8615L542.411 513.8615L52.59289 513.8615z" /></clipPath><clipPath id="97"><path d="M52.59289 677.6237L542.411 677.6237L542.411 677.6237L542.411 513.8615L542.411 513.8615L52.59289 513.8615z" /></clipPath><clipPath id="98"><path d="M52.59289 677.6237L542.411 677.6237L542.411 677.6237L542.411 513.8615L542.411 513.8615L52.59289 513.8615z" /></clipPath><clipPath id="99"><path d="M52.59289 677.6237L542.411 677.6237L542.411 677.6237L542.411 513.8615L542.411 513.8615L52.59289 513.8615z" /></clipPath><clipPath id="100"><path d="M52.59289 677.6237L542.411 677.6237L542.411 677.6237L542.411 513.8615L542.411 513.8615L52.59289 513.8615z" /></clipPath><clipPath id="101"><path d="M52.59289 677.6237L542.411 677.6237L542.411 677.6237L542.411 513.8615L542.411 513.8615L52.59289 513.8615z" /></clipPath><clipPath id="102"><path d="M52.59289 677.6237L542.411 677.6237L542.411 677.6237L542.411 513.8615L542.411 513.8615L52.59289 513.8615z" /></clipPath><clipPath id="103"><path d="M52.59289 677.6237L542.411 677.6237L542.411 677.6237L542.411 513.8615L542.411 513.8615L52.59289 513.8615z" /></clipPath><clipPath id="104"><path d="M52.59289 677.6237L542.411 677.6237L542.411 677.6237L542.411 513.8615L542.411 513.8615L52.59289 513.8615z" /></clipPath><clipPath id="105"><path d="M10.00001 83.43536L585.0039 83.43536L585.0039 83.43536L585.0039 9.99939L585.0039 9.99939L10.00001 9.99939z" /></clipPath><clipPath id="106"><path d="M8.53129 156.8713L598.9567 156.8713L598.9567 156.8713L598.9567 -63.43665L598.9567 -63.43665L8.53129 -63.43665z" /></clipPath><clipPath id="107"><path d="M17.34361 156.8713L241.3234 156.8713L241.3234 156.8713L241.3234 -63.43665L241.3234 -63.43665L17.34361 -63.43665z" /></clipPath><clipPath id="108"><path d="M17.34361 156.8713L241.3234 156.8713L241.3234 156.8713L241.3234 -63.43665L241.3234 -63.43665L17.34361 -63.43665z" /></clipPath><clipPath id="109"><path d="M17.34361 156.8713L241.3234 156.8713L241.3234 156.8713L241.3234 -63.43665L241.3234 -63.43665L17.34361 -63.43665z" /></clipPath><clipPath id="110"><path d="M17.34361 156.8713L241.3234 156.8713L241.3234 156.8713L241.3234 -63.43665L241.3234 -63.43665L17.34361 -63.43665z" /></clipPath><clipPath id="111"><path d="M17.34361 156.8713L241.3234 156.8713L241.3234 156.8713L241.3234 -63.43665L241.3234 -63.43665L17.34361 -63.43665z" /></clipPath><clipPath id="112"><path d="M17.34361 156.8713L241.3234 156.8713L241.3234 156.8713L241.3234 -63.43665L241.3234 -63.43665L17.34361 -63.43665z" /></clipPath><clipPath id="113"><path d="M17.34361 156.8713L241.3234 156.8713L241.3234 156.8713L241.3234 -63.43665L241.3234 -63.43665L17.34361 -63.43665z" /></clipPath><clipPath id="114"><path d="M241.3234 156.8713L242.7921 156.8713L242.7921 156.8713L242.7921 -63.43665L242.7921 -63.43665L241.3234 -63.43665z" /></clipPath><clipPath id="115"><path d="M17.34361 156.8713L18.81233 156.8713L18.81233 156.8713L18.81233 -63.43665L18.81233 -63.43665L17.34361 -63.43665z" /></clipPath><clipPath id="116"><path d="M10.00001 831.4826L585.0039 831.4826L585.0039 831.4826L585.0039 771.9995L585.0039 771.9995L10.00001 771.9995z" /></clipPath><clipPath id="117"><path d="M8.53129 904.9186L598.9567 904.9186L598.9567 904.9186L598.9567 698.5635L598.9567 698.5635L8.53129 698.5635z" /></clipPath><clipPath id="118"><path d="M17.34361 904.9186L577.6603 904.9186L577.6603 904.9186L577.6603 698.5635L577.6603 698.5635L17.34361 698.5635z" /></clipPath><clipPath id="119"><path d="M17.34361 904.9186L236.9173 904.9186L236.9173 904.9186L236.9173 698.5635L236.9173 698.5635L17.34361 698.5635z" /></clipPath><clipPath id="120"><path d="M17.34361 904.9186L236.9173 904.9186L236.9173 904.9186L236.9173 698.5635L236.9173 698.5635L17.34361 698.5635z" /></clipPath><clipPath id="121"><path d="M17.34361 904.9186L236.9173 904.9186L236.9173 904.9186L236.9173 698.5635L236.9173 698.5635L17.34361 698.5635z" /></clipPath><clipPath id="122"><path d="M17.34361 904.9186L236.9173 904.9186L236.9173 904.9186L236.9173 698.5635L236.9173 698.5635L17.34361 698.5635z" /></clipPath><clipPath id="123"><path d="M17.34361 904.9186L236.9173 904.9186L236.9173 904.9186L236.9173 698.5635L236.9173 698.5635L17.34361 698.5635z" /></clipPath><clipPath id="124"><path d="M17.34361 904.9186L236.9173 904.9186L236.9173 904.9186L236.9173 698.5635L236.9173 698.5635L17.34361 698.5635z" /></clipPath><clipPath id="125"><path d="M17.34361 904.9186L236.9173 904.9186L236.9173 904.9186L236.9173 698.5635L236.9173 698.5635L17.34361 698.5635z" /></clipPath><clipPath id="126"><path d="M17.34361 904.9186L236.9173 904.9186L236.9173 904.9186L236.9173 698.5635L236.9173 698.5635L17.34361 698.5635z" /></clipPath><clipPath id="127"><path d="M17.34361 904.9186L236.9173 904.9186L236.9173 904.9186L236.9173 698.5635L236.9173 698.5635L17.34361 698.5635z" /></clipPath><clipPath id="128"><path d="M17.34361 904.9186L236.9173 904.9186L236.9173 904.9186L236.9173 698.5635L236.9173 698.5635L17.34361 698.5635z" /></clipPath><clipPath id="129"><path d="M17.34361 904.9186L236.9173 904.9186L236.9173 904.9186L236.9173 698.5635L236.9173 698.5635L17.34361 698.5635z" /></clipPath><clipPath id="130"><path d="M319.8999 904.9186L577.6603 904.9186L577.6603 904.9186L577.6603 698.5635L577.6603 698.5635L319.8999 698.5635z" /></clipPath><clipPath id="131"><path d="M319.8999 904.9186L577.6603 904.9186L577.6603 904.9186L577.6603 698.5635L577.6603 698.5635L319.8999 698.5635z" /></clipPath><clipPath id="132"><path d="M319.8999 904.9186L577.6603 904.9186L577.6603 904.9186L577.6603 698.5635L577.6603 698.5635L319.8999 698.5635z" /></clipPath><clipPath id="133"><path d="M319.8999 904.9186L577.6603 904.9186L577.6603 904.9186L577.6603 698.5635L577.6603 698.5635L319.8999 698.5635z" /></clipPath></defs><g transform="matrix(1.333333 0 0 1.333333 0 0)"><g><g clip-path="url(#1)"><g clip-path="url(#2)"><path transform="matrix(1 0 0 -1 0 842)" d="M10.00001 90.20592L585.0039 90.20592L585.0039 90.20592L585.0039 830.4408L585.0039 830.4408L10.00001 830.4408z" stroke="none" fill="#FFFFFF" fill-rule="evenodd" /><path transform="matrix(1 0 0 -1 0 842)" d="M10.00001 90.20592L585.0039 90.20592L585.0039 90.20592L585.0039 830.4408L585.0039 830.4408L10.00001 830.4408z" stroke="none" fill="#FFFFFF" fill-rule="evenodd" /><path transform="matrix(1 0 0 -1 0 842)" d="M542.0438 663.3739L52.96007 663.3739" stroke="#000000" stroke-width="0.73436" stroke-linecap="square" fill="none" /><path transform="matrix(1 0 0 -1 0 842)" d="M542.0438 606.8281L52.96007 606.8281" stroke="#000000" stroke-width="0.73436" stroke-linecap="square" fill="none" /><path transform="matrix(1 0 0 -1 0 842)" d="M542.0438 487.8618L52.96007 487.8618" stroke="#000000" stroke-width="0.73436" stroke-linecap="square" fill="none" /><path transform="matrix(1 0 0 -1 0 842)" d="M52.59289 493.3695L542.411 493.3695L542.411 493.3695L542.411 580.7584L542.411 580.7584L52.59289 580.7584z" stroke="none" fill="#FFFFFF" fill-rule="evenodd" /><g clip-path="url(#3)"></g><g clip-path="url(#4)"></g><g clip-path="url(#5)"></g><g clip-path="url(#6)"></g><g clip-path="url(#7)"></g><g clip-path="url(#8)"></g><g clip-path="url(#9)"></g><g clip-path="url(#10)"></g><g clip-path="url(#11)"></g><g clip-path="url(#12)"></g><g clip-path="url(#13)"></g><g clip-path="url(#14)"></g><g clip-path="url(#15)"></g><g clip-path="url(#16)"></g><g clip-path="url(#17)"></g><g clip-path="url(#18)"></g><g clip-path="url(#19)"></g><g clip-path="url(#20)"></g><g clip-path="url(#21)"></g><path transform="matrix(1 0 0 -1 0 842)" d="M282.4475 669.616L416.1011 669.616L416.1011 669.616L416.1011 670.3503L416.1011 670.3503L282.4475 670.3503z" stroke="none" fill="#0066CC" fill-rule="evenodd" /><g clip-path="url(#22)"></g><path transform="matrix(1 0 0 -1 0 842)" d="M416.1011 669.616L419.7729 669.616L419.7729 669.616L419.7729 670.3503L419.7729 670.3503L416.1011 670.3503z" stroke="none" fill="#0066CC" fill-rule="evenodd" /><g clip-path="url(#23)"></g><path transform="matrix(1 0 0 -1 0 842)" d="M419.7729 669.616L473.3811 669.616L473.3811 669.616L473.3811 670.3503L473.3811 670.3503L419.7729 670.3503z" stroke="none" fill="#0066CC" fill-rule="evenodd" /><g clip-path="url(#24)"></g><g clip-path="url(#25)"></g><g clip-path="url(#26)"></g><g clip-path="url(#27)"></g><g clip-path="url(#28)"></g><g clip-path="url(#29)"></g><g clip-path="url(#30)"></g><g clip-path="url(#31)"></g><g clip-path="url(#32)"></g><g clip-path="url(#33)"></g><g clip-path="url(#34)"></g><g clip-path="url(#35)"></g><g clip-path="url(#36)"></g><g clip-path="url(#37)"></g><g clip-path="url(#38)"></g><g clip-path="url(#39)"></g><g clip-path="url(#40)"></g><g clip-path="url(#41)"></g><g clip-path="url(#42)"></g><g clip-path="url(#43)"></g><g clip-path="url(#44)"></g><g clip-path="url(#45)"></g><g clip-path="url(#46)"></g><g clip-path="url(#47)"></g><g clip-path="url(#48)"></g><g clip-path="url(#49)"></g><g clip-path="url(#50)"></g><g clip-path="url(#51)"></g><g clip-path="url(#52)"></g><g clip-path="url(#53)"></g><g clip-path="url(#54)"></g><g clip-path="url(#55)"></g><g clip-path="url(#56)"></g><g clip-path="url(#57)"></g><g clip-path="url(#58)"></g><g clip-path="url(#59)"></g><g clip-path="url(#60)"></g><g clip-path="url(#61)"></g><g clip-path="url(#62)"></g><g clip-path="url(#63)"></g><g clip-path="url(#64)"></g><g clip-path="url(#65)"></g><g clip-path="url(#66)"></g><g clip-path="url(#67)"></g><g clip-path="url(#68)"></g><g clip-path="url(#69)"></g><g clip-path="url(#70)"></g><g clip-path="url(#71)"></g><g clip-path="url(#72)"></g><g clip-path="url(#73)"></g><g transform="matrix(0.293744 0 0 0.293744 436.6631 542.5015)"><g transform="matrix(1 0 0 1 0 0)"><image x="0" y="0" xlink:href="img_03.png" width="75" height="75" /></g></g><g transform="matrix(0.293744 0 0 0.293744 461.6314 542.5015)"><g transform="matrix(1 0 0 1 0 0)"><image x="0" y="0" xlink:href="img_04.png" width="75" height="75" /></g></g><g clip-path="url(#74)"></g><g clip-path="url(#75)"></g><g clip-path="url(#76)"></g><g clip-path="url(#77)"></g><g clip-path="url(#78)"></g><g transform="matrix(0.293744 0 0 0.293744 436.6631 569.6729)"><g transform="matrix(1 0 0 1 0 0)"><image x="0" y="0" xlink:href="img_04.png" width="75" height="75" /></g></g><g transform="matrix(0.293744 0 0 0.293744 461.6314 569.6729)"><g transform="matrix(1 0 0 1 0 0)"><image x="0" y="0" xlink:href="img_05.png" width="75" height="75" /></g></g><g clip-path="url(#79)"></g><g clip-path="url(#80)"></g><g clip-path="url(#81)"></g><g clip-path="url(#82)"></g><g clip-path="url(#83)"></g><g transform="matrix(0.293744 0 0 0.293744 436.6631 596.8441)"><g transform="matrix(1 0 0 1 0 0)"><image x="0" y="0" xlink:href="img_03.png" width="75" height="75" /></g></g><g transform="matrix(0.293744 0 0 0.293744 461.6314 596.8441)"><g transform="matrix(1 0 0 1 0 0)"><image x="0" y="0" xlink:href="img_06.png" width="75" height="75" /></g></g><g clip-path="url(#84)"></g><g clip-path="url(#85)"></g><g clip-path="url(#86)"></g><g clip-path="url(#87)"></g><g transform="matrix(0.293744 0 0 0.293744 436.6631 624.0154)"><g transform="matrix(1 0 0 1 0 0)"><image x="0" y="0" xlink:href="img_04.png" width="75" height="75" /></g></g><g clip-path="url(#88)"></g><g clip-path="url(#89)"></g><g clip-path="url(#90)"></g><g clip-path="url(#91)"></g><g clip-path="url(#92)"></g><g transform="matrix(0.293744 0 0 0.293744 436.6631 651.1868)"><g transform="matrix(1 0 0 1 0 0)"><image x="0" y="0" xlink:href="img_03.png" width="75" height="75" /></g></g><g transform="matrix(0.293744 0 0 0.293744 461.6314 651.1868)"><g transform="matrix(1 0 0 1 0 0)"><image x="0" y="0" xlink:href="img_06.png" width="75" height="75" /></g></g><path transform="matrix(1 0 0 -1 0 842)" d="M435.5616 327.7714L53.69443 327.7714" stroke="#000000" stroke-width="0.73436" stroke-linecap="square" fill="none" /><path transform="matrix(1 0 0 -1 0 842)" d="M52.96007 327.7714L52.96007 300.6" stroke="#000000" stroke-width="0.73436" stroke-linecap="square" fill="none" /><path transform="matrix(1 0 0 -1 0 842)" d="M435.5616 327.7714L435.5616 300.6" stroke="#000000" stroke-width="0.73436" stroke-linecap="square" fill="none" /><g clip-path="url(#93)"><path transform="matrix(1 0 0 -1 0 842)" d="M435.5616 300.6L52.96007 300.6" stroke="#000000" stroke-width="0.73436" stroke-linecap="square" fill="none" /></g><path transform="matrix(1 0 0 -1 0 842)" d="M542.0438 327.7714L436.296 327.7714" stroke="#000000" stroke-width="0.73436" stroke-linecap="square" fill="none" /><path transform="matrix(1 0 0 -1 0 842)" d="M435.5616 327.7714L435.5616 300.6" stroke="#000000" stroke-width="0.73436" stroke-linecap="square" fill="none" /><path transform="matrix(1 0 0 -1 0 842)" d="M542.0438 327.7714L542.0438 300.6" stroke="#000000" stroke-width="0.73436" stroke-linecap="square" fill="none" /><path transform="matrix(1 0 0 -1 0 842)" d="M542.0438 300.6L435.5616 300.6" stroke="#000000" stroke-width="0.73436" stroke-linecap="square" fill="none" /><path transform="matrix(1 0 0 -1 0 842)" d="M75.72523 300.6L53.69443 300.6" stroke="#000000" stroke-width="0.73436" stroke-linecap="square" fill="none" /><path transform="matrix(1 0 0 -1 0 842)" d="M52.96007 300.6L52.96007 273.4287" stroke="#000000" stroke-width="0.73436" stroke-linecap="square" fill="none" /><path transform="matrix(1 0 0 -1 0 842)" d="M75.72523 300.6L75.72523 273.4287" stroke="#000000" stroke-width="0.73436" stroke-linecap="square" fill="none" /><g clip-path="url(#94)"><path transform="matrix(1 0 0 -1 0 842)" d="M75.72523 273.4287L52.96007 273.4287" stroke="#000000" stroke-width="0.73436" stroke-linecap="square" fill="none" /></g><path transform="matrix(1 0 0 -1 0 842)" d="M435.5616 300.6L76.45959 300.6" stroke="#000000" stroke-width="0.73436" stroke-linecap="square" fill="none" /><path transform="matrix(1 0 0 -1 0 842)" d="M75.72523 300.6L75.72523 273.4287" stroke="#000000" stroke-width="0.73436" stroke-linecap="square" fill="none" /><path transform="matrix(1 0 0 -1 0 842)" d="M435.5616 300.6L435.5616 273.4287" stroke="#000000" stroke-width="0.73436" stroke-linecap="square" fill="none" /><path transform="matrix(1 0 0 -1 0 842)" d="M435.5616 273.4287L75.72523 273.4287" stroke="#000000" stroke-width="0.73436" stroke-linecap="square" fill="none" /><path transform="matrix(1 0 0 -1 0 842)" d="M542.0438 300.6L436.296 300.6" stroke="#000000" stroke-width="0.73436" stroke-linecap="square" fill="none" /><path transform="matrix(1 0 0 -1 0 842)" d="M435.5616 300.6L435.5616 273.4287" stroke="#000000" stroke-width="0.73436" stroke-linecap="square" fill="none" /><path transform="matrix(1 0 0 -1 0 842)" d="M542.0438 300.6L542.0438 273.4287" stroke="#000000" stroke-width="0.73436" stroke-linecap="square" fill="none" /><path transform="matrix(1 0 0 -1 0 842)" d="M542.0438 273.4287L435.5616 273.4287" stroke="#000000" stroke-width="0.73436" stroke-linecap="square" fill="none" /><path transform="matrix(1 0 0 -1 0 842)" d="M75.72523 273.4287L53.69443 273.4287" stroke="#000000" stroke-width="0.73436" stroke-linecap="square" fill="none" /><path transform="matrix(1 0 0 -1 0 842)" d="M52.96007 273.4287L52.96007 246.2574" stroke="#000000" stroke-width="0.73436" stroke-linecap="square" fill="none" /><path transform="matrix(1 0 0 -1 0 842)" d="M75.72523 273.4287L75.72523 246.2574" stroke="#000000" stroke-width="0.73436" stroke-linecap="square" fill="none" /><g clip-path="url(#95)"><path transform="matrix(1 0 0 -1 0 842)" d="M75.72523 246.2574L52.96007 246.2574" stroke="#000000" stroke-width="0.73436" stroke-linecap="square" fill="none" /></g><path transform="matrix(1 0 0 -1 0 842)" d="M435.5616 273.4287L76.45959 273.4287" stroke="#000000" stroke-width="0.73436" stroke-linecap="square" fill="none" /><path transform="matrix(1 0 0 -1 0 842)" d="M75.72523 273.4287L75.72523 246.2574" stroke="#000000" stroke-width="0.73436" stroke-linecap="square" fill="none" /><path transform="matrix(1 0 0 -1 0 842)" d="M435.5616 273.4287L435.5616 246.2574" stroke="#000000" stroke-width="0.73436" stroke-linecap="square" fill="none" /><path transform="matrix(1 0 0 -1 0 842)" d="M435.5616 246.2574L75.72523 246.2574" stroke="#000000" stroke-width="0.73436" stroke-linecap="square" fill="none" /><path transform="matrix(1 0 0 -1 0 842)" d="M542.0438 273.4287L436.296 273.4287" stroke="#000000" stroke-width="0.73436" stroke-linecap="square" fill="none" /><path transform="matrix(1 0 0 -1 0 842)" d="M435.5616 273.4287L435.5616 246.2574" stroke="#000000" stroke-width="0.73436" stroke-linecap="square" fill="none" /><path transform="matrix(1 0 0 -1 0 842)" d="M542.0438 273.4287L542.0438 246.2574" stroke="#000000" stroke-width="0.73436" stroke-linecap="square" fill="none" /><path transform="matrix(1 0 0 -1 0 842)" d="M542.0438 246.2574L435.5616 246.2574" stroke="#000000" stroke-width="0.73436" stroke-linecap="square" fill="none" /><path transform="matrix(1 0 0 -1 0 842)" d="M75.72523 246.2574L53.69443 246.2574" stroke="#000000" stroke-width="0.73436" stroke-linecap="square" fill="none" /><path transform="matrix(1 0 0 -1 0 842)" d="M52.96007 246.2574L52.96007 219.0861" stroke="#000000" stroke-width="0.73436" stroke-linecap="square" fill="none" /><path transform="matrix(1 0 0 -1 0 842)" d="M75.72523 246.2574L75.72523 219.0861" stroke="#000000" stroke-width="0.73436" stroke-linecap="square" fill="none" /><g clip-path="url(#96)"><path transform="matrix(1 0 0 -1 0 842)" d="M75.72523 219.0861L52.96007 219.0861" stroke="#000000" stroke-width="0.73436" stroke-linecap="square" fill="none" /></g><path transform="matrix(1 0 0 -1 0 842)" d="M435.5616 246.2574L76.45959 246.2574" stroke="#000000" stroke-width="0.73436" stroke-linecap="square" fill="none" /><path transform="matrix(1 0 0 -1 0 842)" d="M75.72523 246.2574L75.72523 219.0861" stroke="#000000" stroke-width="0.73436" stroke-linecap="square" fill="none" /><path transform="matrix(1 0 0 -1 0 842)" d="M435.5616 246.2574L435.5616 219.0861" stroke="#000000" stroke-width="0.73436" stroke-linecap="square" fill="none" /><path transform="matrix(1 0 0 -1 0 842)" d="M435.5616 219.0861L75.72523 219.0861" stroke="#000000" stroke-width="0.73436" stroke-linecap="square" fill="none" /><path transform="matrix(1 0 0 -1 0 842)" d="M542.0438 246.2574L436.296 246.2574" stroke="#000000" stroke-width="0.73436" stroke-linecap="square" fill="none" /><path transform="matrix(1 0 0 -1 0 842)" d="M435.5616 246.2574L435.5616 219.0861" stroke="#000000" stroke-width="0.73436" stroke-linecap="square" fill="none" /><path transform="matrix(1 0 0 -1 0 842)" d="M542.0438 246.2574L542.0438 219.0861" stroke="#000000" stroke-width="0.73436" stroke-linecap="square" fill="none" /><path transform="matrix(1 0 0 -1 0 842)" d="M542.0438 219.0861L435.5616 219.0861" stroke="#000000" stroke-width="0.73436" stroke-linecap="square" fill="none" /><path transform="matrix(1 0 0 -1 0 842)" d="M75.72523 219.0861L53.69443 219.0861" stroke="#000000" stroke-width="0.73436" stroke-linecap="square" fill="none" /><path transform="matrix(1 0 0 -1 0 842)" d="M52.96007 219.0861L52.96007 191.9148" stroke="#000000" stroke-width="0.73436" stroke-linecap="square" fill="none" /><path transform="matrix(1 0 0 -1 0 842)" d="M75.72523 219.0861L75.72523 191.9148" stroke="#000000" stroke-width="0.73436" stroke-linecap="square" fill="none" /><g clip-path="url(#97)"><path transform="matrix(1 0 0 -1 0 842)" d="M75.72523 191.9148L52.96007 191.9148" stroke="#000000" stroke-width="0.73436" stroke-linecap="square" fill="none" /></g><path transform="matrix(1 0 0 -1 0 842)" d="M435.5616 219.0861L76.45959 219.0861" stroke="#000000" stroke-width="0.73436" stroke-linecap="square" fill="none" /><path transform="matrix(1 0 0 -1 0 842)" d="M75.72523 219.0861L75.72523 191.9148" stroke="#000000" stroke-width="0.73436" stroke-linecap="square" fill="none" /><path transform="matrix(1 0 0 -1 0 842)" d="M435.5616 219.0861L435.5616 191.9148" stroke="#000000" stroke-width="0.73436" stroke-linecap="square" fill="none" /><path transform="matrix(1 0 0 -1 0 842)" d="M435.5616 191.9148L75.72523 191.9148" stroke="#000000" stroke-width="0.73436" stroke-linecap="square" fill="none" /><path transform="matrix(1 0 0 -1 0 842)" d="M542.0438 219.0861L436.296 219.0861" stroke="#000000" stroke-width="0.73436" stroke-linecap="square" fill="none" /><path transform="matrix(1 0 0 -1 0 842)" d="M435.5616 219.0861L435.5616 191.9148" stroke="#000000" stroke-width="0.73436" stroke-linecap="square" fill="none" /><path transform="matrix(1 0 0 -1 0 842)" d="M542.0438 219.0861L542.0438 191.9148" stroke="#000000" stroke-width="0.73436" stroke-linecap="square" fill="none" /><path transform="matrix(1 0 0 -1 0 842)" d="M542.0438 191.9148L435.5616 191.9148" stroke="#000000" stroke-width="0.73436" stroke-linecap="square" fill="none" /><path transform="matrix(1 0 0 -1 0 842)" d="M75.72523 191.9148L53.69443 191.9148" stroke="#000000" stroke-width="0.73436" stroke-linecap="square" fill="none" /><g clip-path="url(#98)"><path transform="matrix(1 0 0 -1 0 842)" d="M52.96007 191.9148L52.96007 164.7435" stroke="#000000" stroke-width="0.73436" stroke-linecap="square" fill="none" /></g><g clip-path="url(#99)"><path transform="matrix(1 0 0 -1 0 842)" d="M75.72523 191.9148L75.72523 164.7435" stroke="#000000" stroke-width="0.73436" stroke-linecap="square" fill="none" /></g><g clip-path="url(#100)"><path transform="matrix(1 0 0 -1 0 842)" d="M75.72523 164.7435L52.96007 164.7435" stroke="#000000" stroke-width="0.73436" stroke-linecap="square" fill="none" /></g><path transform="matrix(1 0 0 -1 0 842)" d="M435.5616 191.9148L76.45959 191.9148" stroke="#000000" stroke-width="0.73436" stroke-linecap="square" fill="none" /><g clip-path="url(#101)"><path transform="matrix(1 0 0 -1 0 842)" d="M75.72523 191.9148L75.72523 164.7435" stroke="#000000" stroke-width="0.73436" stroke-linecap="square" fill="none" /></g><g clip-path="url(#102)"><path transform="matrix(1 0 0 -1 0 842)" d="M435.5616 191.9148L435.5616 164.7435" stroke="#000000" stroke-width="0.73436" stroke-linecap="square" fill="none" /></g><path transform="matrix(1 0 0 -1 0 842)" d="M435.5616 164.7435L75.72523 164.7435" stroke="#000000" stroke-width="0.73436" stroke-linecap="square" fill="none" /><path transform="matrix(1 0 0 -1 0 842)" d="M542.0438 191.9148L436.296 191.9148" stroke="#000000" stroke-width="0.73436" stroke-linecap="square" fill="none" /><g clip-path="url(#103)"><path transform="matrix(1 0 0 -1 0 842)" d="M435.5616 191.9148L435.5616 164.7435" stroke="#000000" stroke-width="0.73436" stroke-linecap="square" fill="none" /></g><g clip-path="url(#104)"><path transform="matrix(1 0 0 -1 0 842)" d="M542.0438 191.9148L542.0438 164.7435" stroke="#000000" stroke-width="0.73436" stroke-linecap="square" fill="none" /></g><path transform="matrix(1 0 0 -1 0 842)" d="M542.0438 164.7435L435.5616 164.7435" stroke="#000000" stroke-width="0.73436" stroke-linecap="square" fill="none" /></g><g clip-path="url(#105)"><g clip-path="url(#106)"></g><path transform="matrix(1 0 0 -1 0 842)" d="M10.00001 730.6589L585.0039 730.6589L585.0039 730.6589L585.0039 832.0006L585.0039 832.0006L10.00001 832.0006z" stroke="none" fill="#FFFFFF" fill-rule="evenodd" /><path transform="matrix(1 0 0 -1 0 842)" d="M10.00001 730.6589L585.0039 730.6589L585.0039 730.6589L585.0039 832.0006L585.0039 832.0006L10.00001 832.0006z" stroke="none" fill="#FFFFFF" fill-rule="evenodd" /><path transform="matrix(1 0 0 -1 0 842)" d="M577.2931 764.0723L17.71079 764.0723" stroke="#000000" stroke-width="0.73436" stroke-linecap="square" fill="none" /><g clip-path="url(#107)"></g><g clip-path="url(#108)"></g><g clip-path="url(#109)"></g><g clip-path="url(#110)"></g><g clip-path="url(#111)"></g><g clip-path="url(#112)"></g><g clip-path="url(#113)"></g><g clip-path="url(#114)"></g><g transform="matrix(0.1935941 0 0 0.1949628 446.2098 21.01477)"><g transform="matrix(1 0 0 1 0 0)"><image x="0" y="0" xlink:href="img_01.png" width="679" height="113" /></g></g><g clip-path="url(#115)"></g></g><g clip-path="url(#116)"><g clip-path="url(#117)"></g><path transform="matrix(1 0 0 -1 0 842)" d="M10.00001 -17.38827L585.0039 -17.38827L585.0039 -17.38827L585.0039 70.00056L585.0039 70.00056L10.00001 70.00056z" stroke="none" fill="#FFFFFF" fill-rule="evenodd" /><path transform="matrix(1 0 0 -1 0 842)" d="M10.00001 -17.38827L585.0039 -17.38827L585.0039 -17.38827L585.0039 70.00056L585.0039 70.00056L10.00001 70.00056z" stroke="none" fill="#FFFFFF" fill-rule="evenodd" /><path transform="matrix(1 0 0 -1 0 842)" d="M577.2931 58.61799L17.71079 58.61799" stroke="#000000" stroke-width="0.73436" stroke-linecap="square" fill="none" /><g clip-path="url(#118)"></g><g clip-path="url(#119)"></g><g clip-path="url(#120)"></g><g clip-path="url(#121)"></g><g clip-path="url(#122)"></g><g clip-path="url(#123)"></g><g clip-path="url(#124)"></g><g clip-path="url(#125)"></g><g clip-path="url(#126)"></g><g clip-path="url(#127)"></g><g clip-path="url(#128)"></g><g clip-path="url(#129)"></g><g clip-path="url(#130)"></g><g clip-path="url(#131)"></g><g clip-path="url(#132)"></g><g clip-path="url(#133)"></g></g></g></g></g></svg>