<svg xmlns="http://www.w3.org/2000/svg" xmlns:xlink="http://www.w3.org/1999/xlink" id="body_10" preserveAspectRatio="xMinYMin meet" viewBox="0 0 793 1123"><defs><clipPath id="1"><path d="M0 842L0 0L0 0L595 0L595 0L595 842L595 842L0 842z" /></clipPath><clipPath id="2"><path d="M10.00001 750.3254L585.0039 750.3254L585.0039 750.3254L585.0039 84.99524L585.0039 84.99524L10.00001 84.99524z" /></clipPath><clipPath id="3"><path d="M17.34361 823.7614L577.6603 823.7614L577.6603 823.7614L577.6603 11.5592L577.6603 11.5592L17.34361 11.5592z" /></clipPath><clipPath id="4"><path d="M17.34361 823.7614L577.6603 823.7614L577.6603 823.7614L577.6603 11.5592L577.6603 11.5592L17.34361 11.5592z" /></clipPath><clipPath id="5"><path d="M17.34361 823.7614L577.6603 823.7614L577.6603 823.7614L577.6603 11.5592L577.6603 11.5592L17.34361 11.5592z" /></clipPath><clipPath id="6"><path d="M17.34361 823.7614L577.6603 823.7614L577.6603 823.7614L577.6603 11.5592L577.6603 11.5592L17.34361 11.5592z" /></clipPath><clipPath id="7"><path d="M17.34361 823.7614L577.6603 823.7614L577.6603 823.7614L577.6603 11.5592L577.6603 11.5592L17.34361 11.5592z" /></clipPath><clipPath id="8"><path d="M17.34361 823.7614L577.6603 823.7614L577.6603 823.7614L577.6603 11.5592L577.6603 11.5592L17.34361 11.5592z" /></clipPath><clipPath id="9"><path d="M17.34361 823.7614L577.6603 823.7614L577.6603 823.7614L577.6603 11.5592L577.6603 11.5592L17.34361 11.5592z" /></clipPath><clipPath id="10"><path d="M17.34361 823.7614L577.6603 823.7614L577.6603 823.7614L577.6603 11.5592L577.6603 11.5592L17.34361 11.5592z" /></clipPath><clipPath id="11"><path d="M17.34361 823.7614L577.6603 823.7614L577.6603 823.7614L577.6603 11.5592L577.6603 11.5592L17.34361 11.5592z" /></clipPath><clipPath id="12"><path d="M53.32725 823.7614L123.8258 823.7614L123.8258 823.7614L123.8258 11.5592L123.8258 11.5592L53.32725 11.5592z" /></clipPath><clipPath id="13"><path d="M53.32725 823.7614L123.8258 823.7614L123.8258 823.7614L123.8258 11.5592L123.8258 11.5592L53.32725 11.5592z" /></clipPath><clipPath id="14"><path d="M124.5602 823.7614L199.4649 823.7614L199.4649 823.7614L199.4649 11.5592L199.4649 11.5592L124.5602 11.5592z" /></clipPath><clipPath id="15"><path d="M124.5602 823.7614L199.4649 823.7614L199.4649 823.7614L199.4649 11.5592L199.4649 11.5592L124.5602 11.5592z" /></clipPath><clipPath id="16"><path d="M200.1992 823.7614L327.9779 823.7614L327.9779 823.7614L327.9779 11.5592L327.9779 11.5592L200.1992 11.5592z" /></clipPath><clipPath id="17"><path d="M200.1992 823.7614L327.9779 823.7614L327.9779 823.7614L327.9779 11.5592L327.9779 11.5592L200.1992 11.5592z" /></clipPath><clipPath id="18"><path d="M328.7122 823.7614L427.8508 823.7614L427.8508 823.7614L427.8508 11.5592L427.8508 11.5592L328.7122 11.5592z" /></clipPath><clipPath id="19"><path d="M328.7122 823.7614L427.8508 823.7614L427.8508 823.7614L427.8508 11.5592L427.8508 11.5592L328.7122 11.5592z" /></clipPath><clipPath id="20"><path d="M428.5852 823.7614L541.6766 823.7614L541.6766 823.7614L541.6766 11.5592L541.6766 11.5592L428.5852 11.5592z" /></clipPath><clipPath id="21"><path d="M428.5852 823.7614L541.6766 823.7614L541.6766 823.7614L541.6766 11.5592L541.6766 11.5592L428.5852 11.5592z" /></clipPath><clipPath id="22"><path d="M53.32725 823.7614L123.8258 823.7614L123.8258 823.7614L123.8258 11.5592L123.8258 11.5592L53.32725 11.5592z" /></clipPath><clipPath id="23"><path d="M53.32725 823.7614L123.8258 823.7614L123.8258 823.7614L123.8258 11.5592L123.8258 11.5592L53.32725 11.5592z" /></clipPath><clipPath id="24"><path d="M124.5602 823.7614L199.4649 823.7614L199.4649 823.7614L199.4649 11.5592L199.4649 11.5592L124.5602 11.5592z" /></clipPath><clipPath id="25"><path d="M124.5602 823.7614L199.4649 823.7614L199.4649 823.7614L199.4649 11.5592L199.4649 11.5592L124.5602 11.5592z" /></clipPath><clipPath id="26"><path d="M200.1992 823.7614L541.6766 823.7614L541.6766 823.7614L541.6766 11.5592L541.6766 11.5592L200.1992 11.5592z" /></clipPath><clipPath id="27"><path d="M200.1992 823.7614L541.6766 823.7614L541.6766 823.7614L541.6766 11.5592L541.6766 11.5592L200.1992 11.5592z" /></clipPath><clipPath id="28"><path d="M53.32725 823.7614L123.8258 823.7614L123.8258 823.7614L123.8258 11.5592L123.8258 11.5592L53.32725 11.5592z" /></clipPath><clipPath id="29"><path d="M53.32725 823.7614L123.8258 823.7614L123.8258 823.7614L123.8258 11.5592L123.8258 11.5592L53.32725 11.5592z" /></clipPath><clipPath id="30"><path d="M124.5602 823.7614L199.4649 823.7614L199.4649 823.7614L199.4649 11.5592L199.4649 11.5592L124.5602 11.5592z" /></clipPath><clipPath id="31"><path d="M124.5602 823.7614L199.4649 823.7614L199.4649 823.7614L199.4649 11.5592L199.4649 11.5592L124.5602 11.5592z" /></clipPath><clipPath id="32"><path d="M200.1992 823.7614L327.9779 823.7614L327.9779 823.7614L327.9779 11.5592L327.9779 11.5592L200.1992 11.5592z" /></clipPath><clipPath id="33"><path d="M200.1992 823.7614L327.9779 823.7614L327.9779 823.7614L327.9779 11.5592L327.9779 11.5592L200.1992 11.5592z" /></clipPath><clipPath id="34"><path d="M328.7122 823.7614L427.8508 823.7614L427.8508 823.7614L427.8508 11.5592L427.8508 11.5592L328.7122 11.5592z" /></clipPath><clipPath id="35"><path d="M328.7122 823.7614L427.8508 823.7614L427.8508 823.7614L427.8508 11.5592L427.8508 11.5592L328.7122 11.5592z" /></clipPath><clipPath id="36"><path d="M428.5852 823.7614L541.6766 823.7614L541.6766 823.7614L541.6766 11.5592L541.6766 11.5592L428.5852 11.5592z" /></clipPath><clipPath id="37"><path d="M428.5852 823.7614L541.6766 823.7614L541.6766 823.7614L541.6766 11.5592L541.6766 11.5592L428.5852 11.5592z" /></clipPath><clipPath id="38"><path d="M53.32725 823.7614L123.8258 823.7614L123.8258 823.7614L123.8258 11.5592L123.8258 11.5592L53.32725 11.5592z" /></clipPath><clipPath id="39"><path d="M53.32725 823.7614L123.8258 823.7614L123.8258 823.7614L123.8258 11.5592L123.8258 11.5592L53.32725 11.5592z" /></clipPath><clipPath id="40"><path d="M124.5602 823.7614L199.4649 823.7614L199.4649 823.7614L199.4649 11.5592L199.4649 11.5592L124.5602 11.5592z" /></clipPath><clipPath id="41"><path d="M124.5602 823.7614L199.4649 823.7614L199.4649 823.7614L199.4649 11.5592L199.4649 11.5592L124.5602 11.5592z" /></clipPath><clipPath id="42"><path d="M200.1992 823.7614L327.9779 823.7614L327.9779 823.7614L327.9779 11.5592L327.9779 11.5592L200.1992 11.5592z" /></clipPath><clipPath id="43"><path d="M200.1992 823.7614L327.9779 823.7614L327.9779 823.7614L327.9779 11.5592L327.9779 11.5592L200.1992 11.5592z" /></clipPath><clipPath id="44"><path d="M328.7122 823.7614L427.8508 823.7614L427.8508 823.7614L427.8508 11.5592L427.8508 11.5592L328.7122 11.5592z" /></clipPath><clipPath id="45"><path d="M328.7122 823.7614L427.8508 823.7614L427.8508 823.7614L427.8508 11.5592L427.8508 11.5592L328.7122 11.5592z" /></clipPath><clipPath id="46"><path d="M428.5852 823.7614L541.6766 823.7614L541.6766 823.7614L541.6766 11.5592L541.6766 11.5592L428.5852 11.5592z" /></clipPath><clipPath id="47"><path d="M428.5852 823.7614L541.6766 823.7614L541.6766 823.7614L541.6766 11.5592L541.6766 11.5592L428.5852 11.5592z" /></clipPath><clipPath id="48"><path d="M53.32725 823.7614L123.8258 823.7614L123.8258 823.7614L123.8258 11.5592L123.8258 11.5592L53.32725 11.5592z" /></clipPath><clipPath id="49"><path d="M53.32725 823.7614L123.8258 823.7614L123.8258 823.7614L123.8258 11.5592L123.8258 11.5592L53.32725 11.5592z" /></clipPath><clipPath id="50"><path d="M124.5602 823.7614L199.4649 823.7614L199.4649 823.7614L199.4649 11.5592L199.4649 11.5592L124.5602 11.5592z" /></clipPath><clipPath id="51"><path d="M124.5602 823.7614L199.4649 823.7614L199.4649 823.7614L199.4649 11.5592L199.4649 11.5592L124.5602 11.5592z" /></clipPath><clipPath id="52"><path d="M200.1992 823.7614L327.9779 823.7614L327.9779 823.7614L327.9779 11.5592L327.9779 11.5592L200.1992 11.5592z" /></clipPath><clipPath id="53"><path d="M200.1992 823.7614L327.9779 823.7614L327.9779 823.7614L327.9779 11.5592L327.9779 11.5592L200.1992 11.5592z" /></clipPath><clipPath id="54"><path d="M328.7122 823.7614L427.8508 823.7614L427.8508 823.7614L427.8508 11.5592L427.8508 11.5592L328.7122 11.5592z" /></clipPath><clipPath id="55"><path d="M328.7122 823.7614L427.8508 823.7614L427.8508 823.7614L427.8508 11.5592L427.8508 11.5592L328.7122 11.5592z" /></clipPath><clipPath id="56"><path d="M428.5852 823.7614L541.6766 823.7614L541.6766 823.7614L541.6766 11.5592L541.6766 11.5592L428.5852 11.5592z" /></clipPath><clipPath id="57"><path d="M428.5852 823.7614L541.6766 823.7614L541.6766 823.7614L541.6766 11.5592L541.6766 11.5592L428.5852 11.5592z" /></clipPath><clipPath id="58"><path d="M53.32725 823.7614L123.8258 823.7614L123.8258 823.7614L123.8258 11.5592L123.8258 11.5592L53.32725 11.5592z" /></clipPath><clipPath id="59"><path d="M53.32725 823.7614L123.8258 823.7614L123.8258 823.7614L123.8258 11.5592L123.8258 11.5592L53.32725 11.5592z" /></clipPath><clipPath id="60"><path d="M124.5602 823.7614L199.4649 823.7614L199.4649 823.7614L199.4649 11.5592L199.4649 11.5592L124.5602 11.5592z" /></clipPath><clipPath id="61"><path d="M124.5602 823.7614L199.4649 823.7614L199.4649 823.7614L199.4649 11.5592L199.4649 11.5592L124.5602 11.5592z" /></clipPath><clipPath id="62"><path d="M200.1992 823.7614L327.9779 823.7614L327.9779 823.7614L327.9779 11.5592L327.9779 11.5592L200.1992 11.5592z" /></clipPath><clipPath id="63"><path d="M200.1992 823.7614L327.9779 823.7614L327.9779 823.7614L327.9779 11.5592L327.9779 11.5592L200.1992 11.5592z" /></clipPath><clipPath id="64"><path d="M328.7122 823.7614L427.8508 823.7614L427.8508 823.7614L427.8508 11.5592L427.8508 11.5592L328.7122 11.5592z" /></clipPath><clipPath id="65"><path d="M328.7122 823.7614L427.8508 823.7614L427.8508 823.7614L427.8508 11.5592L427.8508 11.5592L328.7122 11.5592z" /></clipPath><clipPath id="66"><path d="M428.5852 823.7614L541.6766 823.7614L541.6766 823.7614L541.6766 11.5592L541.6766 11.5592L428.5852 11.5592z" /></clipPath><clipPath id="67"><path d="M428.5852 823.7614L541.6766 823.7614L541.6766 823.7614L541.6766 11.5592L541.6766 11.5592L428.5852 11.5592z" /></clipPath><clipPath id="68"><path d="M53.32725 823.7614L123.8258 823.7614L123.8258 823.7614L123.8258 11.5592L123.8258 11.5592L53.32725 11.5592z" /></clipPath><clipPath id="69"><path d="M53.32725 823.7614L123.8258 823.7614L123.8258 823.7614L123.8258 11.5592L123.8258 11.5592L53.32725 11.5592z" /></clipPath><clipPath id="70"><path d="M124.5602 823.7614L199.4649 823.7614L199.4649 823.7614L199.4649 11.5592L199.4649 11.5592L124.5602 11.5592z" /></clipPath><clipPath id="71"><path d="M124.5602 823.7614L199.4649 823.7614L199.4649 823.7614L199.4649 11.5592L199.4649 11.5592L124.5602 11.5592z" /></clipPath><clipPath id="72"><path d="M200.1992 823.7614L327.9779 823.7614L327.9779 823.7614L327.9779 11.5592L327.9779 11.5592L200.1992 11.5592z" /></clipPath><clipPath id="73"><path d="M200.1992 823.7614L327.9779 823.7614L327.9779 823.7614L327.9779 11.5592L327.9779 11.5592L200.1992 11.5592z" /></clipPath><clipPath id="74"><path d="M328.7122 823.7614L427.8508 823.7614L427.8508 823.7614L427.8508 11.5592L427.8508 11.5592L328.7122 11.5592z" /></clipPath><clipPath id="75"><path d="M328.7122 823.7614L427.8508 823.7614L427.8508 823.7614L427.8508 11.5592L427.8508 11.5592L328.7122 11.5592z" /></clipPath><clipPath id="76"><path d="M428.5852 823.7614L541.6766 823.7614L541.6766 823.7614L541.6766 11.5592L541.6766 11.5592L428.5852 11.5592z" /></clipPath><clipPath id="77"><path d="M428.5852 823.7614L541.6766 823.7614L541.6766 823.7614L541.6766 11.5592L541.6766 11.5592L428.5852 11.5592z" /></clipPath><clipPath id="78"><path d="M53.32725 823.7614L123.8258 823.7614L123.8258 823.7614L123.8258 11.5592L123.8258 11.5592L53.32725 11.5592z" /></clipPath><clipPath id="79"><path d="M53.32725 823.7614L123.8258 823.7614L123.8258 823.7614L123.8258 11.5592L123.8258 11.5592L53.32725 11.5592z" /></clipPath><clipPath id="80"><path d="M124.5602 823.7614L199.4649 823.7614L199.4649 823.7614L199.4649 11.5592L199.4649 11.5592L124.5602 11.5592z" /></clipPath><clipPath id="81"><path d="M124.5602 823.7614L199.4649 823.7614L199.4649 823.7614L199.4649 11.5592L199.4649 11.5592L124.5602 11.5592z" /></clipPath><clipPath id="82"><path d="M200.1992 823.7614L327.9779 823.7614L327.9779 823.7614L327.9779 11.5592L327.9779 11.5592L200.1992 11.5592z" /></clipPath><clipPath id="83"><path d="M200.1992 823.7614L327.9779 823.7614L327.9779 823.7614L327.9779 11.5592L327.9779 11.5592L200.1992 11.5592z" /></clipPath><clipPath id="84"><path d="M328.7122 823.7614L427.8508 823.7614L427.8508 823.7614L427.8508 11.5592L427.8508 11.5592L328.7122 11.5592z" /></clipPath><clipPath id="85"><path d="M328.7122 823.7614L427.8508 823.7614L427.8508 823.7614L427.8508 11.5592L427.8508 11.5592L328.7122 11.5592z" /></clipPath><clipPath id="86"><path d="M428.5852 823.7614L541.6766 823.7614L541.6766 823.7614L541.6766 11.5592L541.6766 11.5592L428.5852 11.5592z" /></clipPath><clipPath id="87"><path d="M428.5852 823.7614L541.6766 823.7614L541.6766 823.7614L541.6766 11.5592L541.6766 11.5592L428.5852 11.5592z" /></clipPath><clipPath id="88"><path d="M53.32725 823.7614L123.8258 823.7614L123.8258 823.7614L123.8258 11.5592L123.8258 11.5592L53.32725 11.5592z" /></clipPath><clipPath id="89"><path d="M53.32725 823.7614L123.8258 823.7614L123.8258 823.7614L123.8258 11.5592L123.8258 11.5592L53.32725 11.5592z" /></clipPath><clipPath id="90"><path d="M124.5602 823.7614L199.4649 823.7614L199.4649 823.7614L199.4649 11.5592L199.4649 11.5592L124.5602 11.5592z" /></clipPath><clipPath id="91"><path d="M124.5602 823.7614L199.4649 823.7614L199.4649 823.7614L199.4649 11.5592L199.4649 11.5592L124.5602 11.5592z" /></clipPath><clipPath id="92"><path d="M200.1992 823.7614L327.9779 823.7614L327.9779 823.7614L327.9779 11.5592L327.9779 11.5592L200.1992 11.5592z" /></clipPath><clipPath id="93"><path d="M200.1992 823.7614L327.9779 823.7614L327.9779 823.7614L327.9779 11.5592L327.9779 11.5592L200.1992 11.5592z" /></clipPath><clipPath id="94"><path d="M328.7122 823.7614L427.8508 823.7614L427.8508 823.7614L427.8508 11.5592L427.8508 11.5592L328.7122 11.5592z" /></clipPath><clipPath id="95"><path d="M328.7122 823.7614L427.8508 823.7614L427.8508 823.7614L427.8508 11.5592L427.8508 11.5592L328.7122 11.5592z" /></clipPath><clipPath id="96"><path d="M428.5852 823.7614L541.6766 823.7614L541.6766 823.7614L541.6766 11.5592L541.6766 11.5592L428.5852 11.5592z" /></clipPath><clipPath id="97"><path d="M428.5852 823.7614L541.6766 823.7614L541.6766 823.7614L541.6766 11.5592L541.6766 11.5592L428.5852 11.5592z" /></clipPath><clipPath id="98"><path d="M53.32725 823.7614L123.8258 823.7614L123.8258 823.7614L123.8258 11.5592L123.8258 11.5592L53.32725 11.5592z" /></clipPath><clipPath id="99"><path d="M53.32725 823.7614L123.8258 823.7614L123.8258 823.7614L123.8258 11.5592L123.8258 11.5592L53.32725 11.5592z" /></clipPath><clipPath id="100"><path d="M124.5602 823.7614L199.4649 823.7614L199.4649 823.7614L199.4649 11.5592L199.4649 11.5592L124.5602 11.5592z" /></clipPath><clipPath id="101"><path d="M124.5602 823.7614L199.4649 823.7614L199.4649 823.7614L199.4649 11.5592L199.4649 11.5592L124.5602 11.5592z" /></clipPath><clipPath id="102"><path d="M200.1992 823.7614L541.6766 823.7614L541.6766 823.7614L541.6766 11.5592L541.6766 11.5592L200.1992 11.5592z" /></clipPath><clipPath id="103"><path d="M200.1992 823.7614L541.6766 823.7614L541.6766 823.7614L541.6766 11.5592L541.6766 11.5592L200.1992 11.5592z" /></clipPath><clipPath id="104"><path d="M53.32725 823.7614L123.8258 823.7614L123.8258 823.7614L123.8258 11.5592L123.8258 11.5592L53.32725 11.5592z" /></clipPath><clipPath id="105"><path d="M53.32725 823.7614L123.8258 823.7614L123.8258 823.7614L123.8258 11.5592L123.8258 11.5592L53.32725 11.5592z" /></clipPath><clipPath id="106"><path d="M124.5602 823.7614L199.4649 823.7614L199.4649 823.7614L199.4649 11.5592L199.4649 11.5592L124.5602 11.5592z" /></clipPath><clipPath id="107"><path d="M124.5602 823.7614L199.4649 823.7614L199.4649 823.7614L199.4649 11.5592L199.4649 11.5592L124.5602 11.5592z" /></clipPath><clipPath id="108"><path d="M200.1992 823.7614L327.9779 823.7614L327.9779 823.7614L327.9779 11.5592L327.9779 11.5592L200.1992 11.5592z" /></clipPath><clipPath id="109"><path d="M200.1992 823.7614L327.9779 823.7614L327.9779 823.7614L327.9779 11.5592L327.9779 11.5592L200.1992 11.5592z" /></clipPath><clipPath id="110"><path d="M328.7122 823.7614L427.8508 823.7614L427.8508 823.7614L427.8508 11.5592L427.8508 11.5592L328.7122 11.5592z" /></clipPath><clipPath id="111"><path d="M328.7122 823.7614L427.8508 823.7614L427.8508 823.7614L427.8508 11.5592L427.8508 11.5592L328.7122 11.5592z" /></clipPath><clipPath id="112"><path d="M428.5852 823.7614L541.6766 823.7614L541.6766 823.7614L541.6766 11.5592L541.6766 11.5592L428.5852 11.5592z" /></clipPath><clipPath id="113"><path d="M428.5852 823.7614L541.6766 823.7614L541.6766 823.7614L541.6766 11.5592L541.6766 11.5592L428.5852 11.5592z" /></clipPath><clipPath id="114"><path d="M53.32725 823.7614L123.8258 823.7614L123.8258 823.7614L123.8258 11.5592L123.8258 11.5592L53.32725 11.5592z" /></clipPath><clipPath id="115"><path d="M53.32725 823.7614L123.8258 823.7614L123.8258 823.7614L123.8258 11.5592L123.8258 11.5592L53.32725 11.5592z" /></clipPath><clipPath id="116"><path d="M124.5602 823.7614L199.4649 823.7614L199.4649 823.7614L199.4649 11.5592L199.4649 11.5592L124.5602 11.5592z" /></clipPath><clipPath id="117"><path d="M124.5602 823.7614L199.4649 823.7614L199.4649 823.7614L199.4649 11.5592L199.4649 11.5592L124.5602 11.5592z" /></clipPath><clipPath id="118"><path d="M200.1992 823.7614L327.9779 823.7614L327.9779 823.7614L327.9779 11.5592L327.9779 11.5592L200.1992 11.5592z" /></clipPath><clipPath id="119"><path d="M200.1992 823.7614L327.9779 823.7614L327.9779 823.7614L327.9779 11.5592L327.9779 11.5592L200.1992 11.5592z" /></clipPath><clipPath id="120"><path d="M328.7122 823.7614L427.8508 823.7614L427.8508 823.7614L427.8508 11.5592L427.8508 11.5592L328.7122 11.5592z" /></clipPath><clipPath id="121"><path d="M328.7122 823.7614L427.8508 823.7614L427.8508 823.7614L427.8508 11.5592L427.8508 11.5592L328.7122 11.5592z" /></clipPath><clipPath id="122"><path d="M428.5852 823.7614L541.6766 823.7614L541.6766 823.7614L541.6766 11.5592L541.6766 11.5592L428.5852 11.5592z" /></clipPath><clipPath id="123"><path d="M428.5852 823.7614L541.6766 823.7614L541.6766 823.7614L541.6766 11.5592L541.6766 11.5592L428.5852 11.5592z" /></clipPath><clipPath id="124"><path d="M53.32725 823.7614L123.8258 823.7614L123.8258 823.7614L123.8258 11.5592L123.8258 11.5592L53.32725 11.5592z" /></clipPath><clipPath id="125"><path d="M53.32725 823.7614L123.8258 823.7614L123.8258 823.7614L123.8258 11.5592L123.8258 11.5592L53.32725 11.5592z" /></clipPath><clipPath id="126"><path d="M124.5602 823.7614L199.4649 823.7614L199.4649 823.7614L199.4649 11.5592L199.4649 11.5592L124.5602 11.5592z" /></clipPath><clipPath id="127"><path d="M124.5602 823.7614L199.4649 823.7614L199.4649 823.7614L199.4649 11.5592L199.4649 11.5592L124.5602 11.5592z" /></clipPath><clipPath id="128"><path d="M200.1992 823.7614L327.9779 823.7614L327.9779 823.7614L327.9779 11.5592L327.9779 11.5592L200.1992 11.5592z" /></clipPath><clipPath id="129"><path d="M200.1992 823.7614L327.9779 823.7614L327.9779 823.7614L327.9779 11.5592L327.9779 11.5592L200.1992 11.5592z" /></clipPath><clipPath id="130"><path d="M328.7122 823.7614L427.8508 823.7614L427.8508 823.7614L427.8508 11.5592L427.8508 11.5592L328.7122 11.5592z" /></clipPath><clipPath id="131"><path d="M328.7122 823.7614L427.8508 823.7614L427.8508 823.7614L427.8508 11.5592L427.8508 11.5592L328.7122 11.5592z" /></clipPath><clipPath id="132"><path d="M428.5852 823.7614L541.6766 823.7614L541.6766 823.7614L541.6766 11.5592L541.6766 11.5592L428.5852 11.5592z" /></clipPath><clipPath id="133"><path d="M428.5852 823.7614L541.6766 823.7614L541.6766 823.7614L541.6766 11.5592L541.6766 11.5592L428.5852 11.5592z" /></clipPath><clipPath id="134"><path d="M53.32725 823.7614L123.8258 823.7614L123.8258 823.7614L123.8258 11.5592L123.8258 11.5592L53.32725 11.5592z" /></clipPath><clipPath id="135"><path d="M53.32725 823.7614L123.8258 823.7614L123.8258 823.7614L123.8258 11.5592L123.8258 11.5592L53.32725 11.5592z" /></clipPath><clipPath id="136"><path d="M124.5602 823.7614L199.4649 823.7614L199.4649 823.7614L199.4649 11.5592L199.4649 11.5592L124.5602 11.5592z" /></clipPath><clipPath id="137"><path d="M124.5602 823.7614L199.4649 823.7614L199.4649 823.7614L199.4649 11.5592L199.4649 11.5592L124.5602 11.5592z" /></clipPath><clipPath id="138"><path d="M200.1992 823.7614L327.9779 823.7614L327.9779 823.7614L327.9779 11.5592L327.9779 11.5592L200.1992 11.5592z" /></clipPath><clipPath id="139"><path d="M200.1992 823.7614L327.9779 823.7614L327.9779 823.7614L327.9779 11.5592L327.9779 11.5592L200.1992 11.5592z" /></clipPath><clipPath id="140"><path d="M328.7122 823.7614L427.8508 823.7614L427.8508 823.7614L427.8508 11.5592L427.8508 11.5592L328.7122 11.5592z" /></clipPath><clipPath id="141"><path d="M328.7122 823.7614L427.8508 823.7614L427.8508 823.7614L427.8508 11.5592L427.8508 11.5592L328.7122 11.5592z" /></clipPath><clipPath id="142"><path d="M428.5852 823.7614L541.6766 823.7614L541.6766 823.7614L541.6766 11.5592L541.6766 11.5592L428.5852 11.5592z" /></clipPath><clipPath id="143"><path d="M428.5852 823.7614L541.6766 823.7614L541.6766 823.7614L541.6766 11.5592L541.6766 11.5592L428.5852 11.5592z" /></clipPath><clipPath id="144"><path d="M53.32725 823.7614L123.8258 823.7614L123.8258 823.7614L123.8258 11.5592L123.8258 11.5592L53.32725 11.5592z" /></clipPath><clipPath id="145"><path d="M53.32725 823.7614L123.8258 823.7614L123.8258 823.7614L123.8258 11.5592L123.8258 11.5592L53.32725 11.5592z" /></clipPath><clipPath id="146"><path d="M124.5602 823.7614L199.4649 823.7614L199.4649 823.7614L199.4649 11.5592L199.4649 11.5592L124.5602 11.5592z" /></clipPath><clipPath id="147"><path d="M124.5602 823.7614L199.4649 823.7614L199.4649 823.7614L199.4649 11.5592L199.4649 11.5592L124.5602 11.5592z" /></clipPath><clipPath id="148"><path d="M200.1992 823.7614L327.9779 823.7614L327.9779 823.7614L327.9779 11.5592L327.9779 11.5592L200.1992 11.5592z" /></clipPath><clipPath id="149"><path d="M200.1992 823.7614L327.9779 823.7614L327.9779 823.7614L327.9779 11.5592L327.9779 11.5592L200.1992 11.5592z" /></clipPath><clipPath id="150"><path d="M328.7122 823.7614L427.8508 823.7614L427.8508 823.7614L427.8508 11.5592L427.8508 11.5592L328.7122 11.5592z" /></clipPath><clipPath id="151"><path d="M328.7122 823.7614L427.8508 823.7614L427.8508 823.7614L427.8508 11.5592L427.8508 11.5592L328.7122 11.5592z" /></clipPath><clipPath id="152"><path d="M428.5852 823.7614L541.6766 823.7614L541.6766 823.7614L541.6766 11.5592L541.6766 11.5592L428.5852 11.5592z" /></clipPath><clipPath id="153"><path d="M428.5852 823.7614L541.6766 823.7614L541.6766 823.7614L541.6766 11.5592L541.6766 11.5592L428.5852 11.5592z" /></clipPath><clipPath id="154"><path d="M53.32725 823.7614L123.8258 823.7614L123.8258 823.7614L123.8258 11.5592L123.8258 11.5592L53.32725 11.5592z" /></clipPath><clipPath id="155"><path d="M53.32725 823.7614L123.8258 823.7614L123.8258 823.7614L123.8258 11.5592L123.8258 11.5592L53.32725 11.5592z" /></clipPath><clipPath id="156"><path d="M124.5602 823.7614L199.4649 823.7614L199.4649 823.7614L199.4649 11.5592L199.4649 11.5592L124.5602 11.5592z" /></clipPath><clipPath id="157"><path d="M124.5602 823.7614L199.4649 823.7614L199.4649 823.7614L199.4649 11.5592L199.4649 11.5592L124.5602 11.5592z" /></clipPath><clipPath id="158"><path d="M200.1992 823.7614L541.6766 823.7614L541.6766 823.7614L541.6766 11.5592L541.6766 11.5592L200.1992 11.5592z" /></clipPath><clipPath id="159"><path d="M200.1992 823.7614L541.6766 823.7614L541.6766 823.7614L541.6766 11.5592L541.6766 11.5592L200.1992 11.5592z" /></clipPath><clipPath id="160"><path d="M53.32725 823.7614L123.8258 823.7614L123.8258 823.7614L123.8258 11.5592L123.8258 11.5592L53.32725 11.5592z" /></clipPath><clipPath id="161"><path d="M53.32725 823.7614L123.8258 823.7614L123.8258 823.7614L123.8258 11.5592L123.8258 11.5592L53.32725 11.5592z" /></clipPath><clipPath id="162"><path d="M124.5602 823.7614L199.4649 823.7614L199.4649 823.7614L199.4649 11.5592L199.4649 11.5592L124.5602 11.5592z" /></clipPath><clipPath id="163"><path d="M124.5602 823.7614L199.4649 823.7614L199.4649 823.7614L199.4649 11.5592L199.4649 11.5592L124.5602 11.5592z" /></clipPath><clipPath id="164"><path d="M200.1992 823.7614L541.6766 823.7614L541.6766 823.7614L541.6766 11.5592L541.6766 11.5592L200.1992 11.5592z" /></clipPath><clipPath id="165"><path d="M200.1992 823.7614L541.6766 823.7614L541.6766 823.7614L541.6766 11.5592L541.6766 11.5592L200.1992 11.5592z" /></clipPath><clipPath id="166"><path d="M53.32725 823.7614L123.8258 823.7614L123.8258 823.7614L123.8258 11.5592L123.8258 11.5592L53.32725 11.5592z" /></clipPath><clipPath id="167"><path d="M53.32725 823.7614L123.8258 823.7614L123.8258 823.7614L123.8258 11.5592L123.8258 11.5592L53.32725 11.5592z" /></clipPath><clipPath id="168"><path d="M124.5602 823.7614L199.4649 823.7614L199.4649 823.7614L199.4649 11.5592L199.4649 11.5592L124.5602 11.5592z" /></clipPath><clipPath id="169"><path d="M124.5602 823.7614L199.4649 823.7614L199.4649 823.7614L199.4649 11.5592L199.4649 11.5592L124.5602 11.5592z" /></clipPath><clipPath id="170"><path d="M200.1992 823.7614L541.6766 823.7614L541.6766 823.7614L541.6766 11.5592L541.6766 11.5592L200.1992 11.5592z" /></clipPath><clipPath id="171"><path d="M200.1992 823.7614L541.6766 823.7614L541.6766 823.7614L541.6766 11.5592L541.6766 11.5592L200.1992 11.5592z" /></clipPath><clipPath id="172"><path d="M52.59289 714.3417L542.411 714.3417L542.411 714.3417L542.411 130.5255L542.411 130.5255L52.59289 130.5255z" /></clipPath><clipPath id="173"><path d="M52.59289 714.3417L542.411 714.3417L542.411 714.3417L542.411 130.5255L542.411 130.5255L52.59289 130.5255z" /></clipPath><clipPath id="174"><path d="M200.1992 197.3523L542.411 197.3523L542.411 197.3523L542.411 165.0405L542.411 165.0405L200.1992 165.0405z" /></clipPath><clipPath id="175"><path d="M200.1992 197.3523L542.411 197.3523L542.411 197.3523L542.411 165.0405L542.411 165.0405L200.1992 165.0405z" /></clipPath><clipPath id="176"><path d="M52.59289 714.3417L542.411 714.3417L542.411 714.3417L542.411 130.5255L542.411 130.5255L52.59289 130.5255z" /></clipPath><clipPath id="177"><path d="M52.59289 714.3417L542.411 714.3417L542.411 714.3417L542.411 130.5255L542.411 130.5255L52.59289 130.5255z" /></clipPath><clipPath id="178"><path d="M52.59289 714.3417L542.411 714.3417L542.411 714.3417L542.411 130.5255L542.411 130.5255L52.59289 130.5255z" /></clipPath><clipPath id="179"><path d="M52.59289 714.3417L542.411 714.3417L542.411 714.3417L542.411 130.5255L542.411 130.5255L52.59289 130.5255z" /></clipPath><clipPath id="180"><path d="M52.59289 714.3417L542.411 714.3417L542.411 714.3417L542.411 130.5255L542.411 130.5255L52.59289 130.5255z" /></clipPath><clipPath id="181"><path d="M52.59289 714.3417L542.411 714.3417L542.411 714.3417L542.411 130.5255L542.411 130.5255L52.59289 130.5255z" /></clipPath><clipPath id="182"><path d="M52.59289 714.3417L542.411 714.3417L542.411 714.3417L542.411 130.5255L542.411 130.5255L52.59289 130.5255z" /></clipPath><clipPath id="183"><path d="M52.59289 714.3417L542.411 714.3417L542.411 714.3417L542.411 130.5255L542.411 130.5255L52.59289 130.5255z" /></clipPath><clipPath id="184"><path d="M200.1992 455.847L542.411 455.847L542.411 455.847L542.411 423.5352L542.411 423.5352L200.1992 423.5352z" /></clipPath><clipPath id="185"><path d="M200.1992 455.847L542.411 455.847L542.411 455.847L542.411 423.5352L542.411 423.5352L200.1992 423.5352z" /></clipPath><clipPath id="186"><path d="M52.59289 714.3417L542.411 714.3417L542.411 714.3417L542.411 130.5255L542.411 130.5255L52.59289 130.5255z" /></clipPath><clipPath id="187"><path d="M52.59289 714.3417L542.411 714.3417L542.411 714.3417L542.411 130.5255L542.411 130.5255L52.59289 130.5255z" /></clipPath><clipPath id="188"><path d="M52.59289 714.3417L542.411 714.3417L542.411 714.3417L542.411 130.5255L542.411 130.5255L52.59289 130.5255z" /></clipPath><clipPath id="189"><path d="M52.59289 714.3417L542.411 714.3417L542.411 714.3417L542.411 130.5255L542.411 130.5255L52.59289 130.5255z" /></clipPath><clipPath id="190"><path d="M52.59289 714.3417L542.411 714.3417L542.411 714.3417L542.411 130.5255L542.411 130.5255L52.59289 130.5255z" /></clipPath><clipPath id="191"><path d="M52.59289 714.3417L542.411 714.3417L542.411 714.3417L542.411 130.5255L542.411 130.5255L52.59289 130.5255z" /></clipPath><clipPath id="192"><path d="M200.1992 649.718L542.411 649.718L542.411 649.718L542.411 617.4062L542.411 617.4062L200.1992 617.4062z" /></clipPath><clipPath id="193"><path d="M200.1992 649.718L542.411 649.718L542.411 649.718L542.411 617.4062L542.411 617.4062L200.1992 617.4062z" /></clipPath><clipPath id="194"><path d="M52.59289 714.3417L542.411 714.3417L542.411 714.3417L542.411 130.5255L542.411 130.5255L52.59289 130.5255z" /></clipPath><clipPath id="195"><path d="M200.1992 682.0299L542.411 682.0299L542.411 682.0299L542.411 649.718L542.411 649.718L200.1992 649.718z" /></clipPath><clipPath id="196"><path d="M200.1992 682.0299L542.411 682.0299L542.411 682.0299L542.411 649.718L542.411 649.718L200.1992 649.718z" /></clipPath><clipPath id="197"><path d="M52.59289 714.3417L542.411 714.3417L542.411 714.3417L542.411 130.5255L542.411 130.5255L52.59289 130.5255z" /></clipPath><clipPath id="198"><path d="M52.59289 714.3417L542.411 714.3417L542.411 714.3417L542.411 130.5255L542.411 130.5255L52.59289 130.5255z" /></clipPath><clipPath id="199"><path d="M52.59289 714.3417L542.411 714.3417L542.411 714.3417L542.411 130.5255L542.411 130.5255L52.59289 130.5255z" /></clipPath><clipPath id="200"><path d="M200.1992 714.3417L542.411 714.3417L542.411 714.3417L542.411 682.0299L542.411 682.0299L200.1992 682.0299z" /></clipPath><clipPath id="201"><path d="M200.1992 714.3417L542.411 714.3417L542.411 714.3417L542.411 682.0299L542.411 682.0299L200.1992 682.0299z" /></clipPath><clipPath id="202"><path d="M10.00001 83.43536L585.0039 83.43536L585.0039 83.43536L585.0039 9.99939L585.0039 9.99939L10.00001 9.99939z" /></clipPath><clipPath id="203"><path d="M8.53129 156.8713L598.9567 156.8713L598.9567 156.8713L598.9567 -63.43665L598.9567 -63.43665L8.53129 -63.43665z" /></clipPath><clipPath id="204"><path d="M17.34361 156.8713L241.3234 156.8713L241.3234 156.8713L241.3234 -63.43665L241.3234 -63.43665L17.34361 -63.43665z" /></clipPath><clipPath id="205"><path d="M17.34361 156.8713L241.3234 156.8713L241.3234 156.8713L241.3234 -63.43665L241.3234 -63.43665L17.34361 -63.43665z" /></clipPath><clipPath id="206"><path d="M17.34361 156.8713L241.3234 156.8713L241.3234 156.8713L241.3234 -63.43665L241.3234 -63.43665L17.34361 -63.43665z" /></clipPath><clipPath id="207"><path d="M17.34361 156.8713L241.3234 156.8713L241.3234 156.8713L241.3234 -63.43665L241.3234 -63.43665L17.34361 -63.43665z" /></clipPath><clipPath id="208"><path d="M17.34361 156.8713L241.3234 156.8713L241.3234 156.8713L241.3234 -63.43665L241.3234 -63.43665L17.34361 -63.43665z" /></clipPath><clipPath id="209"><path d="M17.34361 156.8713L241.3234 156.8713L241.3234 156.8713L241.3234 -63.43665L241.3234 -63.43665L17.34361 -63.43665z" /></clipPath><clipPath id="210"><path d="M17.34361 156.8713L241.3234 156.8713L241.3234 156.8713L241.3234 -63.43665L241.3234 -63.43665L17.34361 -63.43665z" /></clipPath><clipPath id="211"><path d="M241.3234 156.8713L242.7921 156.8713L242.7921 156.8713L242.7921 -63.43665L242.7921 -63.43665L241.3234 -63.43665z" /></clipPath><clipPath id="212"><path d="M17.34361 156.8713L18.81233 156.8713L18.81233 156.8713L18.81233 -63.43665L18.81233 -63.43665L17.34361 -63.43665z" /></clipPath><clipPath id="213"><path d="M10.00001 831.4826L585.0039 831.4826L585.0039 831.4826L585.0039 771.9995L585.0039 771.9995L10.00001 771.9995z" /></clipPath><clipPath id="214"><path d="M8.53129 904.9186L598.9567 904.9186L598.9567 904.9186L598.9567 698.5635L598.9567 698.5635L8.53129 698.5635z" /></clipPath><clipPath id="215"><path d="M17.34361 904.9186L577.6603 904.9186L577.6603 904.9186L577.6603 698.5635L577.6603 698.5635L17.34361 698.5635z" /></clipPath><clipPath id="216"><path d="M17.34361 904.9186L236.9173 904.9186L236.9173 904.9186L236.9173 698.5635L236.9173 698.5635L17.34361 698.5635z" /></clipPath><clipPath id="217"><path d="M17.34361 904.9186L236.9173 904.9186L236.9173 904.9186L236.9173 698.5635L236.9173 698.5635L17.34361 698.5635z" /></clipPath><clipPath id="218"><path d="M17.34361 904.9186L236.9173 904.9186L236.9173 904.9186L236.9173 698.5635L236.9173 698.5635L17.34361 698.5635z" /></clipPath><clipPath id="219"><path d="M17.34361 904.9186L236.9173 904.9186L236.9173 904.9186L236.9173 698.5635L236.9173 698.5635L17.34361 698.5635z" /></clipPath><clipPath id="220"><path d="M17.34361 904.9186L236.9173 904.9186L236.9173 904.9186L236.9173 698.5635L236.9173 698.5635L17.34361 698.5635z" /></clipPath><clipPath id="221"><path d="M17.34361 904.9186L236.9173 904.9186L236.9173 904.9186L236.9173 698.5635L236.9173 698.5635L17.34361 698.5635z" /></clipPath><clipPath id="222"><path d="M17.34361 904.9186L236.9173 904.9186L236.9173 904.9186L236.9173 698.5635L236.9173 698.5635L17.34361 698.5635z" /></clipPath><clipPath id="223"><path d="M17.34361 904.9186L236.9173 904.9186L236.9173 904.9186L236.9173 698.5635L236.9173 698.5635L17.34361 698.5635z" /></clipPath><clipPath id="224"><path d="M17.34361 904.9186L236.9173 904.9186L236.9173 904.9186L236.9173 698.5635L236.9173 698.5635L17.34361 698.5635z" /></clipPath><clipPath id="225"><path d="M17.34361 904.9186L236.9173 904.9186L236.9173 904.9186L236.9173 698.5635L236.9173 698.5635L17.34361 698.5635z" /></clipPath><clipPath id="226"><path d="M17.34361 904.9186L236.9173 904.9186L236.9173 904.9186L236.9173 698.5635L236.9173 698.5635L17.34361 698.5635z" /></clipPath><clipPath id="227"><path d="M319.8999 904.9186L577.6603 904.9186L577.6603 904.9186L577.6603 698.5635L577.6603 698.5635L319.8999 698.5635z" /></clipPath><clipPath id="228"><path d="M319.8999 904.9186L577.6603 904.9186L577.6603 904.9186L577.6603 698.5635L577.6603 698.5635L319.8999 698.5635z" /></clipPath><clipPath id="229"><path d="M319.8999 904.9186L577.6603 904.9186L577.6603 904.9186L577.6603 698.5635L577.6603 698.5635L319.8999 698.5635z" /></clipPath><clipPath id="230"><path d="M319.8999 904.9186L577.6603 904.9186L577.6603 904.9186L577.6603 698.5635L577.6603 698.5635L319.8999 698.5635z" /></clipPath></defs><g transform="matrix(1.333333 0 0 1.333333 0 0)"><g><g clip-path="url(#1)"><g clip-path="url(#2)"><path transform="matrix(1 0 0 -1 0 842)" d="M10.00001 69.64383L585.0039 69.64383L585.0039 69.64383L585.0039 830.4408L585.0039 830.4408L10.00001 830.4408z" stroke="none" fill="#FFFFFF" fill-rule="evenodd" /><path transform="matrix(1 0 0 -1 0 842)" d="M10.00001 69.64383L585.0039 69.64383L585.0039 69.64383L585.0039 830.4408L585.0039 830.4408L10.00001 830.4408z" stroke="none" fill="#FFFFFF" fill-rule="evenodd" /><g clip-path="url(#3)"></g><g clip-path="url(#4)"></g><g clip-path="url(#5)"></g><g clip-path="url(#6)"></g><g clip-path="url(#7)"></g><g clip-path="url(#8)"></g><g clip-path="url(#9)"></g><g clip-path="url(#10)"></g><g clip-path="url(#11)"></g><g clip-path="url(#12)"></g><g clip-path="url(#13)"></g><g clip-path="url(#14)"></g><g clip-path="url(#15)"></g><g clip-path="url(#16)"></g><g clip-path="url(#17)"></g><g clip-path="url(#18)"></g><g clip-path="url(#19)"></g><g clip-path="url(#20)"></g><g clip-path="url(#21)"></g><g clip-path="url(#22)"></g><g clip-path="url(#23)"></g><g clip-path="url(#24)"></g><g clip-path="url(#25)"></g><g clip-path="url(#26)"></g><g clip-path="url(#27)"></g><g clip-path="url(#28)"></g><g clip-path="url(#29)"></g><g clip-path="url(#30)"></g><g clip-path="url(#31)"></g><g clip-path="url(#32)"></g><g clip-path="url(#33)"></g><g clip-path="url(#34)"></g><g clip-path="url(#35)"></g><g clip-path="url(#36)"></g><g clip-path="url(#37)"></g><g clip-path="url(#38)"></g><g clip-path="url(#39)"></g><g clip-path="url(#40)"></g><g clip-path="url(#41)"></g><g clip-path="url(#42)"></g><g clip-path="url(#43)"></g><g clip-path="url(#44)"></g><g clip-path="url(#45)"></g><g clip-path="url(#46)"></g><g clip-path="url(#47)"></g><g clip-path="url(#48)"></g><g clip-path="url(#49)"></g><g clip-path="url(#50)"></g><g clip-path="url(#51)"></g><g clip-path="url(#52)"></g><g clip-path="url(#53)"></g><g clip-path="url(#54)"></g><g clip-path="url(#55)"></g><g clip-path="url(#56)"></g><g clip-path="url(#57)"></g><g clip-path="url(#58)"></g><g clip-path="url(#59)"></g><g clip-path="url(#60)"></g><g clip-path="url(#61)"></g><g clip-path="url(#62)"></g><g clip-path="url(#63)"></g><g clip-path="url(#64)"></g><g clip-path="url(#65)"></g><g clip-path="url(#66)"></g><g clip-path="url(#67)"></g><g clip-path="url(#68)"></g><g clip-path="url(#69)"></g><g clip-path="url(#70)"></g><g clip-path="url(#71)"></g><g clip-path="url(#72)"></g><g clip-path="url(#73)"></g><g clip-path="url(#74)"></g><g clip-path="url(#75)"></g><g clip-path="url(#76)"></g><g clip-path="url(#77)"></g><g clip-path="url(#78)"></g><g clip-path="url(#79)"></g><g clip-path="url(#80)"></g><g clip-path="url(#81)"></g><g clip-path="url(#82)"></g><g clip-path="url(#83)"></g><g clip-path="url(#84)"></g><g clip-path="url(#85)"></g><g clip-path="url(#86)"></g><g clip-path="url(#87)"></g><g clip-path="url(#88)"></g><g clip-path="url(#89)"></g><g clip-path="url(#90)"></g><g clip-path="url(#91)"></g><g clip-path="url(#92)"></g><g clip-path="url(#93)"></g><g clip-path="url(#94)"></g><g clip-path="url(#95)"></g><g clip-path="url(#96)"></g><g clip-path="url(#97)"></g><g clip-path="url(#98)"></g><g clip-path="url(#99)"></g><g clip-path="url(#100)"></g><g clip-path="url(#101)"></g><g clip-path="url(#102)"></g><g clip-path="url(#103)"></g><g clip-path="url(#104)"></g><g clip-path="url(#105)"></g><g clip-path="url(#106)"></g><g clip-path="url(#107)"></g><g clip-path="url(#108)"></g><g clip-path="url(#109)"></g><g clip-path="url(#110)"></g><g clip-path="url(#111)"></g><g clip-path="url(#112)"></g><g clip-path="url(#113)"></g><g clip-path="url(#114)"></g><g clip-path="url(#115)"></g><g clip-path="url(#116)"></g><g clip-path="url(#117)"></g><g clip-path="url(#118)"></g><g clip-path="url(#119)"></g><g clip-path="url(#120)"></g><g clip-path="url(#121)"></g><g clip-path="url(#122)"></g><g clip-path="url(#123)"></g><g clip-path="url(#124)"></g><g clip-path="url(#125)"></g><g clip-path="url(#126)"></g><g clip-path="url(#127)"></g><g clip-path="url(#128)"></g><g clip-path="url(#129)"></g><g clip-path="url(#130)"></g><g clip-path="url(#131)"></g><g clip-path="url(#132)"></g><g clip-path="url(#133)"></g><g clip-path="url(#134)"></g><g clip-path="url(#135)"></g><g clip-path="url(#136)"></g><g clip-path="url(#137)"></g><g clip-path="url(#138)"></g><g clip-path="url(#139)"></g><g clip-path="url(#140)"></g><g clip-path="url(#141)"></g><g clip-path="url(#142)"></g><g clip-path="url(#143)"></g><g clip-path="url(#144)"></g><g clip-path="url(#145)"></g><g clip-path="url(#146)"></g><g clip-path="url(#147)"></g><g clip-path="url(#148)"></g><g clip-path="url(#149)"></g><g clip-path="url(#150)"></g><g clip-path="url(#151)"></g><g clip-path="url(#152)"></g><g clip-path="url(#153)"></g><g clip-path="url(#154)"></g><g clip-path="url(#155)"></g><g clip-path="url(#156)"></g><g clip-path="url(#157)"></g><g clip-path="url(#158)"></g><g clip-path="url(#159)"></g><g clip-path="url(#160)"></g><g clip-path="url(#161)"></g><g clip-path="url(#162)"></g><g clip-path="url(#163)"></g><g clip-path="url(#164)"></g><g clip-path="url(#165)"></g><g clip-path="url(#166)"></g><g clip-path="url(#167)"></g><g clip-path="url(#168)"></g><g clip-path="url(#169)"></g><g clip-path="url(#170)"></g><g clip-path="url(#171)"></g><path transform="matrix(1 0 0 -1 0 842)" d="M124.193 711.1073L53.69443 711.1073" stroke="#000000" stroke-width="0.73436" stroke-linecap="square" fill="none" /><path transform="matrix(1 0 0 -1 0 842)" d="M52.96007 711.1073L52.96007 677.3267" stroke="#000000" stroke-width="0.73436" stroke-linecap="square" fill="none" /><path transform="matrix(1 0 0 -1 0 842)" d="M124.193 711.1073L124.193 677.3267" stroke="#000000" stroke-width="0.73436" stroke-linecap="square" fill="none" /><g clip-path="url(#172)"><path transform="matrix(1 0 0 -1 0 842)" d="M124.193 677.3267L52.96007 677.3267" stroke="#000000" stroke-width="0.73436" stroke-linecap="square" fill="none" /></g><path transform="matrix(1 0 0 -1 0 842)" d="M199.8321 711.1073L124.9273 711.1073" stroke="#000000" stroke-width="0.73436" stroke-linecap="square" fill="none" /><path transform="matrix(1 0 0 -1 0 842)" d="M199.8321 711.1073L199.8321 677.3267" stroke="#000000" stroke-width="0.73436" stroke-linecap="square" fill="none" /><path transform="matrix(1 0 0 -1 0 842)" d="M199.8321 677.3267L124.9273 677.3267" stroke="#000000" stroke-width="0.73436" stroke-linecap="square" fill="none" /><path transform="matrix(1 0 0 -1 0 842)" d="M328.3451 711.1073L200.5664 711.1073" stroke="#000000" stroke-width="0.73436" stroke-linecap="square" fill="none" /><path transform="matrix(1 0 0 -1 0 842)" d="M328.3451 711.1073L328.3451 677.3267" stroke="#000000" stroke-width="0.73436" stroke-linecap="square" fill="none" /><path transform="matrix(1 0 0 -1 0 842)" d="M328.3451 677.3267L200.5664 677.3267" stroke="#000000" stroke-width="0.73436" stroke-linecap="square" fill="none" /><path transform="matrix(1 0 0 -1 0 842)" d="M428.218 711.1073L329.0794 711.1073" stroke="#000000" stroke-width="0.73436" stroke-linecap="square" fill="none" /><path transform="matrix(1 0 0 -1 0 842)" d="M428.218 711.1073L428.218 677.3267" stroke="#000000" stroke-width="0.73436" stroke-linecap="square" fill="none" /><path transform="matrix(1 0 0 -1 0 842)" d="M428.218 677.3267L329.0794 677.3267" stroke="#000000" stroke-width="0.73436" stroke-linecap="square" fill="none" /><path transform="matrix(1 0 0 -1 0 842)" d="M542.0438 711.1073L428.9524 711.1073" stroke="#000000" stroke-width="0.73436" stroke-linecap="square" fill="none" /><path transform="matrix(1 0 0 -1 0 842)" d="M542.0438 711.1073L542.0438 677.3267" stroke="#000000" stroke-width="0.73436" stroke-linecap="square" fill="none" /><path transform="matrix(1 0 0 -1 0 842)" d="M542.0438 677.3267L428.9524 677.3267" stroke="#000000" stroke-width="0.73436" stroke-linecap="square" fill="none" /><path transform="matrix(1 0 0 -1 0 842)" d="M124.193 676.5924L124.193 645.0149" stroke="#000000" stroke-width="0.73436" stroke-linecap="square" fill="none" /><g clip-path="url(#173)"><path transform="matrix(1 0 0 -1 0 842)" d="M124.193 645.0149L52.96007 645.0149" stroke="#000000" stroke-width="0.73436" stroke-linecap="square" fill="none" /></g><path transform="matrix(1 0 0 -1 0 842)" d="M52.96007 676.5924L52.96007 645.7493" stroke="#000000" stroke-width="0.73436" stroke-linecap="square" fill="none" /><path transform="matrix(1 0 0 -1 0 842)" d="M199.8321 676.5924L199.8321 645.0149" stroke="#000000" stroke-width="0.73436" stroke-linecap="square" fill="none" /><path transform="matrix(1 0 0 -1 0 842)" d="M199.8321 645.0149L124.9273 645.0149" stroke="#000000" stroke-width="0.73436" stroke-linecap="square" fill="none" /><g clip-path="url(#174)"><path transform="matrix(1 0 0 -1 0 842)" d="M542.0438 676.5924L542.0438 645.0149" stroke="#000000" stroke-width="0.73436" stroke-linecap="square" fill="none" /></g><g clip-path="url(#175)"><path transform="matrix(1 0 0 -1 0 842)" d="M542.0438 645.0149L200.5664 645.0149" stroke="#000000" stroke-width="0.73436" stroke-linecap="square" fill="none" /></g><path transform="matrix(1 0 0 -1 0 842)" d="M124.193 644.2805L124.193 612.703" stroke="#000000" stroke-width="0.73436" stroke-linecap="square" fill="none" /><g clip-path="url(#176)"><path transform="matrix(1 0 0 -1 0 842)" d="M124.193 612.703L52.96007 612.703" stroke="#000000" stroke-width="0.73436" stroke-linecap="square" fill="none" /></g><path transform="matrix(1 0 0 -1 0 842)" d="M52.96007 644.2805L52.96007 613.4374" stroke="#000000" stroke-width="0.73436" stroke-linecap="square" fill="none" /><path transform="matrix(1 0 0 -1 0 842)" d="M199.8321 644.2805L199.8321 612.703" stroke="#000000" stroke-width="0.73436" stroke-linecap="square" fill="none" /><path transform="matrix(1 0 0 -1 0 842)" d="M199.8321 612.703L124.9273 612.703" stroke="#000000" stroke-width="0.73436" stroke-linecap="square" fill="none" /><path transform="matrix(1 0 0 -1 0 842)" d="M328.3451 644.2805L328.3451 612.703" stroke="#000000" stroke-width="0.73436" stroke-linecap="square" fill="none" /><path transform="matrix(1 0 0 -1 0 842)" d="M328.3451 612.703L200.5664 612.703" stroke="#000000" stroke-width="0.73436" stroke-linecap="square" fill="none" /><path transform="matrix(1 0 0 -1 0 842)" d="M428.218 644.2805L428.218 612.703" stroke="#000000" stroke-width="0.73436" stroke-linecap="square" fill="none" /><path transform="matrix(1 0 0 -1 0 842)" d="M428.218 612.703L329.0794 612.703" stroke="#000000" stroke-width="0.73436" stroke-linecap="square" fill="none" /><path transform="matrix(1 0 0 -1 0 842)" d="M542.0438 644.2805L542.0438 612.703" stroke="#000000" stroke-width="0.73436" stroke-linecap="square" fill="none" /><path transform="matrix(1 0 0 -1 0 842)" d="M542.0438 612.703L428.9524 612.703" stroke="#000000" stroke-width="0.73436" stroke-linecap="square" fill="none" /><path transform="matrix(1 0 0 -1 0 842)" d="M124.193 611.9686L124.193 580.3912" stroke="#000000" stroke-width="0.73436" stroke-linecap="square" fill="none" /><g clip-path="url(#177)"><path transform="matrix(1 0 0 -1 0 842)" d="M124.193 580.3912L52.96007 580.3912" stroke="#000000" stroke-width="0.73436" stroke-linecap="square" fill="none" /></g><path transform="matrix(1 0 0 -1 0 842)" d="M52.96007 611.9686L52.96007 581.1256" stroke="#000000" stroke-width="0.73436" stroke-linecap="square" fill="none" /><path transform="matrix(1 0 0 -1 0 842)" d="M199.8321 611.9686L199.8321 580.3912" stroke="#000000" stroke-width="0.73436" stroke-linecap="square" fill="none" /><path transform="matrix(1 0 0 -1 0 842)" d="M199.8321 580.3912L124.9273 580.3912" stroke="#000000" stroke-width="0.73436" stroke-linecap="square" fill="none" /><path transform="matrix(1 0 0 -1 0 842)" d="M328.3451 611.9686L328.3451 580.3912" stroke="#000000" stroke-width="0.73436" stroke-linecap="square" fill="none" /><path transform="matrix(1 0 0 -1 0 842)" d="M328.3451 580.3912L200.5664 580.3912" stroke="#000000" stroke-width="0.73436" stroke-linecap="square" fill="none" /><path transform="matrix(1 0 0 -1 0 842)" d="M428.218 611.9686L428.218 580.3912" stroke="#000000" stroke-width="0.73436" stroke-linecap="square" fill="none" /><path transform="matrix(1 0 0 -1 0 842)" d="M428.218 580.3912L329.0794 580.3912" stroke="#000000" stroke-width="0.73436" stroke-linecap="square" fill="none" /><path transform="matrix(1 0 0 -1 0 842)" d="M542.0438 611.9686L542.0438 580.3912" stroke="#000000" stroke-width="0.73436" stroke-linecap="square" fill="none" /><path transform="matrix(1 0 0 -1 0 842)" d="M542.0438 580.3912L428.9524 580.3912" stroke="#000000" stroke-width="0.73436" stroke-linecap="square" fill="none" /><path transform="matrix(1 0 0 -1 0 842)" d="M124.193 579.6569L124.193 548.0793" stroke="#000000" stroke-width="0.73436" stroke-linecap="square" fill="none" /><g clip-path="url(#178)"><path transform="matrix(1 0 0 -1 0 842)" d="M124.193 548.0793L52.96007 548.0793" stroke="#000000" stroke-width="0.73436" stroke-linecap="square" fill="none" /></g><path transform="matrix(1 0 0 -1 0 842)" d="M52.96007 579.6569L52.96007 548.8137" stroke="#000000" stroke-width="0.73436" stroke-linecap="square" fill="none" /><path transform="matrix(1 0 0 -1 0 842)" d="M199.8321 579.6569L199.8321 548.0793" stroke="#000000" stroke-width="0.73436" stroke-linecap="square" fill="none" /><path transform="matrix(1 0 0 -1 0 842)" d="M199.8321 548.0793L124.9273 548.0793" stroke="#000000" stroke-width="0.73436" stroke-linecap="square" fill="none" /><path transform="matrix(1 0 0 -1 0 842)" d="M328.3451 579.6569L328.3451 548.0793" stroke="#000000" stroke-width="0.73436" stroke-linecap="square" fill="none" /><path transform="matrix(1 0 0 -1 0 842)" d="M328.3451 548.0793L200.5664 548.0793" stroke="#000000" stroke-width="0.73436" stroke-linecap="square" fill="none" /><path transform="matrix(1 0 0 -1 0 842)" d="M428.218 579.6569L428.218 548.0793" stroke="#000000" stroke-width="0.73436" stroke-linecap="square" fill="none" /><path transform="matrix(1 0 0 -1 0 842)" d="M428.218 548.0793L329.0794 548.0793" stroke="#000000" stroke-width="0.73436" stroke-linecap="square" fill="none" /><path transform="matrix(1 0 0 -1 0 842)" d="M542.0438 579.6569L542.0438 548.0793" stroke="#000000" stroke-width="0.73436" stroke-linecap="square" fill="none" /><path transform="matrix(1 0 0 -1 0 842)" d="M542.0438 548.0793L428.9524 548.0793" stroke="#000000" stroke-width="0.73436" stroke-linecap="square" fill="none" /><path transform="matrix(1 0 0 -1 0 842)" d="M124.193 547.345L124.193 515.7675" stroke="#000000" stroke-width="0.73436" stroke-linecap="square" fill="none" /><g clip-path="url(#179)"><path transform="matrix(1 0 0 -1 0 842)" d="M124.193 515.7675L52.96007 515.7675" stroke="#000000" stroke-width="0.73436" stroke-linecap="square" fill="none" /></g><path transform="matrix(1 0 0 -1 0 842)" d="M52.96007 547.345L52.96007 516.5018" stroke="#000000" stroke-width="0.73436" stroke-linecap="square" fill="none" /><path transform="matrix(1 0 0 -1 0 842)" d="M199.8321 547.345L199.8321 515.7675" stroke="#000000" stroke-width="0.73436" stroke-linecap="square" fill="none" /><path transform="matrix(1 0 0 -1 0 842)" d="M199.8321 515.7675L124.9273 515.7675" stroke="#000000" stroke-width="0.73436" stroke-linecap="square" fill="none" /><path transform="matrix(1 0 0 -1 0 842)" d="M328.3451 547.345L328.3451 515.7675" stroke="#000000" stroke-width="0.73436" stroke-linecap="square" fill="none" /><path transform="matrix(1 0 0 -1 0 842)" d="M328.3451 515.7675L200.5664 515.7675" stroke="#000000" stroke-width="0.73436" stroke-linecap="square" fill="none" /><path transform="matrix(1 0 0 -1 0 842)" d="M428.218 547.345L428.218 515.7675" stroke="#000000" stroke-width="0.73436" stroke-linecap="square" fill="none" /><path transform="matrix(1 0 0 -1 0 842)" d="M428.218 515.7675L329.0794 515.7675" stroke="#000000" stroke-width="0.73436" stroke-linecap="square" fill="none" /><path transform="matrix(1 0 0 -1 0 842)" d="M542.0438 547.345L542.0438 515.7675" stroke="#000000" stroke-width="0.73436" stroke-linecap="square" fill="none" /><path transform="matrix(1 0 0 -1 0 842)" d="M542.0438 515.7675L428.9524 515.7675" stroke="#000000" stroke-width="0.73436" stroke-linecap="square" fill="none" /><path transform="matrix(1 0 0 -1 0 842)" d="M124.193 515.0331L124.193 483.4557" stroke="#000000" stroke-width="0.73436" stroke-linecap="square" fill="none" /><g clip-path="url(#180)"><path transform="matrix(1 0 0 -1 0 842)" d="M124.193 483.4557L52.96007 483.4557" stroke="#000000" stroke-width="0.73436" stroke-linecap="square" fill="none" /></g><path transform="matrix(1 0 0 -1 0 842)" d="M52.96007 515.0331L52.96007 484.19" stroke="#000000" stroke-width="0.73436" stroke-linecap="square" fill="none" /><path transform="matrix(1 0 0 -1 0 842)" d="M199.8321 515.0331L199.8321 483.4557" stroke="#000000" stroke-width="0.73436" stroke-linecap="square" fill="none" /><path transform="matrix(1 0 0 -1 0 842)" d="M199.8321 483.4557L124.9273 483.4557" stroke="#000000" stroke-width="0.73436" stroke-linecap="square" fill="none" /><path transform="matrix(1 0 0 -1 0 842)" d="M328.3451 515.0331L328.3451 483.4557" stroke="#000000" stroke-width="0.73436" stroke-linecap="square" fill="none" /><path transform="matrix(1 0 0 -1 0 842)" d="M328.3451 483.4557L200.5664 483.4557" stroke="#000000" stroke-width="0.73436" stroke-linecap="square" fill="none" /><path transform="matrix(1 0 0 -1 0 842)" d="M428.218 515.0331L428.218 483.4557" stroke="#000000" stroke-width="0.73436" stroke-linecap="square" fill="none" /><path transform="matrix(1 0 0 -1 0 842)" d="M428.218 483.4557L329.0794 483.4557" stroke="#000000" stroke-width="0.73436" stroke-linecap="square" fill="none" /><path transform="matrix(1 0 0 -1 0 842)" d="M542.0438 515.0331L542.0438 483.4557" stroke="#000000" stroke-width="0.73436" stroke-linecap="square" fill="none" /><path transform="matrix(1 0 0 -1 0 842)" d="M542.0438 483.4557L428.9524 483.4557" stroke="#000000" stroke-width="0.73436" stroke-linecap="square" fill="none" /><path transform="matrix(1 0 0 -1 0 842)" d="M124.193 482.7213L124.193 451.1438" stroke="#000000" stroke-width="0.73436" stroke-linecap="square" fill="none" /><g clip-path="url(#181)"><path transform="matrix(1 0 0 -1 0 842)" d="M124.193 451.1438L52.96007 451.1438" stroke="#000000" stroke-width="0.73436" stroke-linecap="square" fill="none" /></g><path transform="matrix(1 0 0 -1 0 842)" d="M52.96007 482.7213L52.96007 451.8782" stroke="#000000" stroke-width="0.73436" stroke-linecap="square" fill="none" /><path transform="matrix(1 0 0 -1 0 842)" d="M199.8321 482.7213L199.8321 451.1438" stroke="#000000" stroke-width="0.73436" stroke-linecap="square" fill="none" /><path transform="matrix(1 0 0 -1 0 842)" d="M199.8321 451.1438L124.9273 451.1438" stroke="#000000" stroke-width="0.73436" stroke-linecap="square" fill="none" /><path transform="matrix(1 0 0 -1 0 842)" d="M328.3451 482.7213L328.3451 451.1438" stroke="#000000" stroke-width="0.73436" stroke-linecap="square" fill="none" /><path transform="matrix(1 0 0 -1 0 842)" d="M328.3451 451.1438L200.5664 451.1438" stroke="#000000" stroke-width="0.73436" stroke-linecap="square" fill="none" /><path transform="matrix(1 0 0 -1 0 842)" d="M428.218 482.7213L428.218 451.1438" stroke="#000000" stroke-width="0.73436" stroke-linecap="square" fill="none" /><path transform="matrix(1 0 0 -1 0 842)" d="M428.218 451.1438L329.0794 451.1438" stroke="#000000" stroke-width="0.73436" stroke-linecap="square" fill="none" /><path transform="matrix(1 0 0 -1 0 842)" d="M542.0438 482.7213L542.0438 451.1438" stroke="#000000" stroke-width="0.73436" stroke-linecap="square" fill="none" /><path transform="matrix(1 0 0 -1 0 842)" d="M542.0438 451.1438L428.9524 451.1438" stroke="#000000" stroke-width="0.73436" stroke-linecap="square" fill="none" /><path transform="matrix(1 0 0 -1 0 842)" d="M124.193 450.4095L124.193 418.832" stroke="#000000" stroke-width="0.73436" stroke-linecap="square" fill="none" /><g clip-path="url(#182)"><path transform="matrix(1 0 0 -1 0 842)" d="M124.193 418.832L52.96007 418.832" stroke="#000000" stroke-width="0.73436" stroke-linecap="square" fill="none" /></g><path transform="matrix(1 0 0 -1 0 842)" d="M52.96007 450.4095L52.96007 419.5663" stroke="#000000" stroke-width="0.73436" stroke-linecap="square" fill="none" /><path transform="matrix(1 0 0 -1 0 842)" d="M199.8321 450.4095L199.8321 418.832" stroke="#000000" stroke-width="0.73436" stroke-linecap="square" fill="none" /><path transform="matrix(1 0 0 -1 0 842)" d="M199.8321 418.832L124.9273 418.832" stroke="#000000" stroke-width="0.73436" stroke-linecap="square" fill="none" /><path transform="matrix(1 0 0 -1 0 842)" d="M328.3451 450.4095L328.3451 418.832" stroke="#000000" stroke-width="0.73436" stroke-linecap="square" fill="none" /><path transform="matrix(1 0 0 -1 0 842)" d="M328.3451 418.832L200.5664 418.832" stroke="#000000" stroke-width="0.73436" stroke-linecap="square" fill="none" /><path transform="matrix(1 0 0 -1 0 842)" d="M428.218 450.4095L428.218 418.832" stroke="#000000" stroke-width="0.73436" stroke-linecap="square" fill="none" /><path transform="matrix(1 0 0 -1 0 842)" d="M428.218 418.832L329.0794 418.832" stroke="#000000" stroke-width="0.73436" stroke-linecap="square" fill="none" /><path transform="matrix(1 0 0 -1 0 842)" d="M542.0438 450.4095L542.0438 418.832" stroke="#000000" stroke-width="0.73436" stroke-linecap="square" fill="none" /><path transform="matrix(1 0 0 -1 0 842)" d="M542.0438 418.832L428.9524 418.832" stroke="#000000" stroke-width="0.73436" stroke-linecap="square" fill="none" /><path transform="matrix(1 0 0 -1 0 842)" d="M124.193 418.0976L124.193 386.5202" stroke="#000000" stroke-width="0.73436" stroke-linecap="square" fill="none" /><g clip-path="url(#183)"><path transform="matrix(1 0 0 -1 0 842)" d="M124.193 386.5202L52.96007 386.5202" stroke="#000000" stroke-width="0.73436" stroke-linecap="square" fill="none" /></g><path transform="matrix(1 0 0 -1 0 842)" d="M52.96007 418.0976L52.96007 387.2545" stroke="#000000" stroke-width="0.73436" stroke-linecap="square" fill="none" /><path transform="matrix(1 0 0 -1 0 842)" d="M199.8321 418.0976L199.8321 386.5202" stroke="#000000" stroke-width="0.73436" stroke-linecap="square" fill="none" /><path transform="matrix(1 0 0 -1 0 842)" d="M199.8321 386.5202L124.9273 386.5202" stroke="#000000" stroke-width="0.73436" stroke-linecap="square" fill="none" /><g clip-path="url(#184)"><path transform="matrix(1 0 0 -1 0 842)" d="M542.0438 418.0976L542.0438 386.5202" stroke="#000000" stroke-width="0.73436" stroke-linecap="square" fill="none" /></g><g clip-path="url(#185)"><path transform="matrix(1 0 0 -1 0 842)" d="M542.0438 386.5202L200.5664 386.5202" stroke="#000000" stroke-width="0.73436" stroke-linecap="square" fill="none" /></g><path transform="matrix(1 0 0 -1 0 842)" d="M124.193 385.7858L124.193 354.2083" stroke="#000000" stroke-width="0.73436" stroke-linecap="square" fill="none" /><g clip-path="url(#186)"><path transform="matrix(1 0 0 -1 0 842)" d="M124.193 354.2083L52.96007 354.2083" stroke="#000000" stroke-width="0.73436" stroke-linecap="square" fill="none" /></g><path transform="matrix(1 0 0 -1 0 842)" d="M52.96007 385.7858L52.96007 354.9427" stroke="#000000" stroke-width="0.73436" stroke-linecap="square" fill="none" /><path transform="matrix(1 0 0 -1 0 842)" d="M199.8321 385.7858L199.8321 354.2083" stroke="#000000" stroke-width="0.73436" stroke-linecap="square" fill="none" /><path transform="matrix(1 0 0 -1 0 842)" d="M199.8321 354.2083L124.9273 354.2083" stroke="#000000" stroke-width="0.73436" stroke-linecap="square" fill="none" /><path transform="matrix(1 0 0 -1 0 842)" d="M328.3451 385.7858L328.3451 354.2083" stroke="#000000" stroke-width="0.73436" stroke-linecap="square" fill="none" /><path transform="matrix(1 0 0 -1 0 842)" d="M328.3451 354.2083L200.5664 354.2083" stroke="#000000" stroke-width="0.73436" stroke-linecap="square" fill="none" /><path transform="matrix(1 0 0 -1 0 842)" d="M428.218 385.7858L428.218 354.2083" stroke="#000000" stroke-width="0.73436" stroke-linecap="square" fill="none" /><path transform="matrix(1 0 0 -1 0 842)" d="M428.218 354.2083L329.0794 354.2083" stroke="#000000" stroke-width="0.73436" stroke-linecap="square" fill="none" /><path transform="matrix(1 0 0 -1 0 842)" d="M542.0438 385.7858L542.0438 354.2083" stroke="#000000" stroke-width="0.73436" stroke-linecap="square" fill="none" /><path transform="matrix(1 0 0 -1 0 842)" d="M542.0438 354.2083L428.9524 354.2083" stroke="#000000" stroke-width="0.73436" stroke-linecap="square" fill="none" /><path transform="matrix(1 0 0 -1 0 842)" d="M124.193 353.474L124.193 321.8965" stroke="#000000" stroke-width="0.73436" stroke-linecap="square" fill="none" /><g clip-path="url(#187)"><path transform="matrix(1 0 0 -1 0 842)" d="M124.193 321.8965L52.96007 321.8965" stroke="#000000" stroke-width="0.73436" stroke-linecap="square" fill="none" /></g><path transform="matrix(1 0 0 -1 0 842)" d="M52.96007 353.474L52.96007 322.6308" stroke="#000000" stroke-width="0.73436" stroke-linecap="square" fill="none" /><path transform="matrix(1 0 0 -1 0 842)" d="M199.8321 353.474L199.8321 321.8965" stroke="#000000" stroke-width="0.73436" stroke-linecap="square" fill="none" /><path transform="matrix(1 0 0 -1 0 842)" d="M199.8321 321.8965L124.9273 321.8965" stroke="#000000" stroke-width="0.73436" stroke-linecap="square" fill="none" /><path transform="matrix(1 0 0 -1 0 842)" d="M328.3451 353.474L328.3451 321.8965" stroke="#000000" stroke-width="0.73436" stroke-linecap="square" fill="none" /><path transform="matrix(1 0 0 -1 0 842)" d="M328.3451 321.8965L200.5664 321.8965" stroke="#000000" stroke-width="0.73436" stroke-linecap="square" fill="none" /><path transform="matrix(1 0 0 -1 0 842)" d="M428.218 353.474L428.218 321.8965" stroke="#000000" stroke-width="0.73436" stroke-linecap="square" fill="none" /><path transform="matrix(1 0 0 -1 0 842)" d="M428.218 321.8965L329.0794 321.8965" stroke="#000000" stroke-width="0.73436" stroke-linecap="square" fill="none" /><path transform="matrix(1 0 0 -1 0 842)" d="M542.0438 353.474L542.0438 321.8965" stroke="#000000" stroke-width="0.73436" stroke-linecap="square" fill="none" /><path transform="matrix(1 0 0 -1 0 842)" d="M542.0438 321.8965L428.9524 321.8965" stroke="#000000" stroke-width="0.73436" stroke-linecap="square" fill="none" /><path transform="matrix(1 0 0 -1 0 842)" d="M124.193 321.1621L124.193 289.5847" stroke="#000000" stroke-width="0.73436" stroke-linecap="square" fill="none" /><g clip-path="url(#188)"><path transform="matrix(1 0 0 -1 0 842)" d="M124.193 289.5847L52.96007 289.5847" stroke="#000000" stroke-width="0.73436" stroke-linecap="square" fill="none" /></g><path transform="matrix(1 0 0 -1 0 842)" d="M52.96007 321.1621L52.96007 290.319" stroke="#000000" stroke-width="0.73436" stroke-linecap="square" fill="none" /><path transform="matrix(1 0 0 -1 0 842)" d="M199.8321 321.1621L199.8321 289.5847" stroke="#000000" stroke-width="0.73436" stroke-linecap="square" fill="none" /><path transform="matrix(1 0 0 -1 0 842)" d="M199.8321 289.5847L124.9273 289.5847" stroke="#000000" stroke-width="0.73436" stroke-linecap="square" fill="none" /><path transform="matrix(1 0 0 -1 0 842)" d="M328.3451 321.1621L328.3451 289.5847" stroke="#000000" stroke-width="0.73436" stroke-linecap="square" fill="none" /><path transform="matrix(1 0 0 -1 0 842)" d="M328.3451 289.5847L200.5664 289.5847" stroke="#000000" stroke-width="0.73436" stroke-linecap="square" fill="none" /><path transform="matrix(1 0 0 -1 0 842)" d="M428.218 321.1621L428.218 289.5847" stroke="#000000" stroke-width="0.73436" stroke-linecap="square" fill="none" /><path transform="matrix(1 0 0 -1 0 842)" d="M428.218 289.5847L329.0794 289.5847" stroke="#000000" stroke-width="0.73436" stroke-linecap="square" fill="none" /><path transform="matrix(1 0 0 -1 0 842)" d="M542.0438 321.1621L542.0438 289.5847" stroke="#000000" stroke-width="0.73436" stroke-linecap="square" fill="none" /><path transform="matrix(1 0 0 -1 0 842)" d="M542.0438 289.5847L428.9524 289.5847" stroke="#000000" stroke-width="0.73436" stroke-linecap="square" fill="none" /><path transform="matrix(1 0 0 -1 0 842)" d="M124.193 288.8503L124.193 257.2728" stroke="#000000" stroke-width="0.73436" stroke-linecap="square" fill="none" /><g clip-path="url(#189)"><path transform="matrix(1 0 0 -1 0 842)" d="M124.193 257.2728L52.96007 257.2728" stroke="#000000" stroke-width="0.73436" stroke-linecap="square" fill="none" /></g><path transform="matrix(1 0 0 -1 0 842)" d="M52.96007 288.8503L52.96007 258.0071" stroke="#000000" stroke-width="0.73436" stroke-linecap="square" fill="none" /><path transform="matrix(1 0 0 -1 0 842)" d="M199.8321 288.8503L199.8321 257.2728" stroke="#000000" stroke-width="0.73436" stroke-linecap="square" fill="none" /><path transform="matrix(1 0 0 -1 0 842)" d="M199.8321 257.2728L124.9273 257.2728" stroke="#000000" stroke-width="0.73436" stroke-linecap="square" fill="none" /><path transform="matrix(1 0 0 -1 0 842)" d="M328.3451 288.8503L328.3451 257.2728" stroke="#000000" stroke-width="0.73436" stroke-linecap="square" fill="none" /><path transform="matrix(1 0 0 -1 0 842)" d="M328.3451 257.2728L200.5664 257.2728" stroke="#000000" stroke-width="0.73436" stroke-linecap="square" fill="none" /><path transform="matrix(1 0 0 -1 0 842)" d="M428.218 288.8503L428.218 257.2728" stroke="#000000" stroke-width="0.73436" stroke-linecap="square" fill="none" /><path transform="matrix(1 0 0 -1 0 842)" d="M428.218 257.2728L329.0794 257.2728" stroke="#000000" stroke-width="0.73436" stroke-linecap="square" fill="none" /><path transform="matrix(1 0 0 -1 0 842)" d="M542.0438 288.8503L542.0438 257.2728" stroke="#000000" stroke-width="0.73436" stroke-linecap="square" fill="none" /><path transform="matrix(1 0 0 -1 0 842)" d="M542.0438 257.2728L428.9524 257.2728" stroke="#000000" stroke-width="0.73436" stroke-linecap="square" fill="none" /><path transform="matrix(1 0 0 -1 0 842)" d="M124.193 256.5385L124.193 224.961" stroke="#000000" stroke-width="0.73436" stroke-linecap="square" fill="none" /><g clip-path="url(#190)"><path transform="matrix(1 0 0 -1 0 842)" d="M124.193 224.961L52.96007 224.961" stroke="#000000" stroke-width="0.73436" stroke-linecap="square" fill="none" /></g><path transform="matrix(1 0 0 -1 0 842)" d="M52.96007 256.5385L52.96007 225.6953" stroke="#000000" stroke-width="0.73436" stroke-linecap="square" fill="none" /><path transform="matrix(1 0 0 -1 0 842)" d="M199.8321 256.5385L199.8321 224.961" stroke="#000000" stroke-width="0.73436" stroke-linecap="square" fill="none" /><path transform="matrix(1 0 0 -1 0 842)" d="M199.8321 224.961L124.9273 224.961" stroke="#000000" stroke-width="0.73436" stroke-linecap="square" fill="none" /><path transform="matrix(1 0 0 -1 0 842)" d="M328.3451 256.5385L328.3451 224.961" stroke="#000000" stroke-width="0.73436" stroke-linecap="square" fill="none" /><path transform="matrix(1 0 0 -1 0 842)" d="M328.3451 224.961L200.5664 224.961" stroke="#000000" stroke-width="0.73436" stroke-linecap="square" fill="none" /><path transform="matrix(1 0 0 -1 0 842)" d="M428.218 256.5385L428.218 224.961" stroke="#000000" stroke-width="0.73436" stroke-linecap="square" fill="none" /><path transform="matrix(1 0 0 -1 0 842)" d="M428.218 224.961L329.0794 224.961" stroke="#000000" stroke-width="0.73436" stroke-linecap="square" fill="none" /><path transform="matrix(1 0 0 -1 0 842)" d="M542.0438 256.5385L542.0438 224.961" stroke="#000000" stroke-width="0.73436" stroke-linecap="square" fill="none" /><path transform="matrix(1 0 0 -1 0 842)" d="M542.0438 224.961L428.9524 224.961" stroke="#000000" stroke-width="0.73436" stroke-linecap="square" fill="none" /><path transform="matrix(1 0 0 -1 0 842)" d="M124.193 224.2266L124.193 192.6491" stroke="#000000" stroke-width="0.73436" stroke-linecap="square" fill="none" /><g clip-path="url(#191)"><path transform="matrix(1 0 0 -1 0 842)" d="M124.193 192.6491L52.96007 192.6491" stroke="#000000" stroke-width="0.73436" stroke-linecap="square" fill="none" /></g><path transform="matrix(1 0 0 -1 0 842)" d="M52.96007 224.2266L52.96007 193.3835" stroke="#000000" stroke-width="0.73436" stroke-linecap="square" fill="none" /><path transform="matrix(1 0 0 -1 0 842)" d="M199.8321 224.2266L199.8321 192.6491" stroke="#000000" stroke-width="0.73436" stroke-linecap="square" fill="none" /><path transform="matrix(1 0 0 -1 0 842)" d="M199.8321 192.6491L124.9273 192.6491" stroke="#000000" stroke-width="0.73436" stroke-linecap="square" fill="none" /><g clip-path="url(#192)"><path transform="matrix(1 0 0 -1 0 842)" d="M542.0438 224.2266L542.0438 192.6491" stroke="#000000" stroke-width="0.73436" stroke-linecap="square" fill="none" /></g><g clip-path="url(#193)"><path transform="matrix(1 0 0 -1 0 842)" d="M542.0438 192.6491L200.5664 192.6491" stroke="#000000" stroke-width="0.73436" stroke-linecap="square" fill="none" /></g><path transform="matrix(1 0 0 -1 0 842)" d="M124.193 191.9148L124.193 160.3373" stroke="#000000" stroke-width="0.73436" stroke-linecap="square" fill="none" /><g clip-path="url(#194)"><path transform="matrix(1 0 0 -1 0 842)" d="M124.193 160.3373L52.96007 160.3373" stroke="#000000" stroke-width="0.73436" stroke-linecap="square" fill="none" /></g><path transform="matrix(1 0 0 -1 0 842)" d="M52.96007 191.9148L52.96007 161.0717" stroke="#000000" stroke-width="0.73436" stroke-linecap="square" fill="none" /><path transform="matrix(1 0 0 -1 0 842)" d="M199.8321 191.9148L199.8321 160.3373" stroke="#000000" stroke-width="0.73436" stroke-linecap="square" fill="none" /><path transform="matrix(1 0 0 -1 0 842)" d="M199.8321 160.3373L124.9273 160.3373" stroke="#000000" stroke-width="0.73436" stroke-linecap="square" fill="none" /><g clip-path="url(#195)"><path transform="matrix(1 0 0 -1 0 842)" d="M542.0438 191.9148L542.0438 160.3373" stroke="#000000" stroke-width="0.73436" stroke-linecap="square" fill="none" /></g><g clip-path="url(#196)"><path transform="matrix(1 0 0 -1 0 842)" d="M542.0438 160.3373L200.5664 160.3373" stroke="#000000" stroke-width="0.73436" stroke-linecap="square" fill="none" /></g><g clip-path="url(#197)"><path transform="matrix(1 0 0 -1 0 842)" d="M124.193 159.6029L124.193 128.0255" stroke="#000000" stroke-width="0.73436" stroke-linecap="square" fill="none" /></g><g clip-path="url(#198)"><path transform="matrix(1 0 0 -1 0 842)" d="M124.193 128.0255L52.96007 128.0255" stroke="#000000" stroke-width="0.73436" stroke-linecap="square" fill="none" /></g><path transform="matrix(1 0 0 -1 0 842)" d="M52.96007 159.6029L52.96007 128.7598" stroke="#000000" stroke-width="0.73436" stroke-linecap="square" fill="none" /><g clip-path="url(#199)"><path transform="matrix(1 0 0 -1 0 842)" d="M199.8321 159.6029L199.8321 128.0255" stroke="#000000" stroke-width="0.73436" stroke-linecap="square" fill="none" /></g><path transform="matrix(1 0 0 -1 0 842)" d="M199.8321 128.0255L124.9273 128.0255" stroke="#000000" stroke-width="0.73436" stroke-linecap="square" fill="none" /><g clip-path="url(#200)"><path transform="matrix(1 0 0 -1 0 842)" d="M542.0438 159.6029L542.0438 128.0255" stroke="#000000" stroke-width="0.73436" stroke-linecap="square" fill="none" /></g><g clip-path="url(#201)"><path transform="matrix(1 0 0 -1 0 842)" d="M542.0438 128.0255L200.5664 128.0255" stroke="#000000" stroke-width="0.73436" stroke-linecap="square" fill="none" /></g></g><g clip-path="url(#202)"><g clip-path="url(#203)"></g><path transform="matrix(1 0 0 -1 0 842)" d="M10.00001 730.6589L585.0039 730.6589L585.0039 730.6589L585.0039 832.0006L585.0039 832.0006L10.00001 832.0006z" stroke="none" fill="#FFFFFF" fill-rule="evenodd" /><path transform="matrix(1 0 0 -1 0 842)" d="M10.00001 730.6589L585.0039 730.6589L585.0039 730.6589L585.0039 832.0006L585.0039 832.0006L10.00001 832.0006z" stroke="none" fill="#FFFFFF" fill-rule="evenodd" /><path transform="matrix(1 0 0 -1 0 842)" d="M577.2931 764.0723L17.71079 764.0723" stroke="#000000" stroke-width="0.73436" stroke-linecap="square" fill="none" /><g clip-path="url(#204)"></g><g clip-path="url(#205)"></g><g clip-path="url(#206)"></g><g clip-path="url(#207)"></g><g clip-path="url(#208)"></g><g clip-path="url(#209)"></g><g clip-path="url(#210)"></g><g clip-path="url(#211)"></g><g transform="matrix(0.1935941 0 0 0.1949628 446.2098 21.01477)"><g transform="matrix(1 0 0 1 0 0)"><image x="0" y="0" xlink:href="img_01.png" width="679" height="113" /></g></g><g clip-path="url(#212)"></g></g><g clip-path="url(#213)"><g clip-path="url(#214)"></g><path transform="matrix(1 0 0 -1 0 842)" d="M10.00001 -17.38827L585.0039 -17.38827L585.0039 -17.38827L585.0039 70.00056L585.0039 70.00056L10.00001 70.00056z" stroke="none" fill="#FFFFFF" fill-rule="evenodd" /><path transform="matrix(1 0 0 -1 0 842)" d="M10.00001 -17.38827L585.0039 -17.38827L585.0039 -17.38827L585.0039 70.00056L585.0039 70.00056L10.00001 70.00056z" stroke="none" fill="#FFFFFF" fill-rule="evenodd" /><path transform="matrix(1 0 0 -1 0 842)" d="M577.2931 58.61799L17.71079 58.61799" stroke="#000000" stroke-width="0.73436" stroke-linecap="square" fill="none" /><g clip-path="url(#215)"></g><g clip-path="url(#216)"></g><g clip-path="url(#217)"></g><g clip-path="url(#218)"></g><g clip-path="url(#219)"></g><g clip-path="url(#220)"></g><g clip-path="url(#221)"></g><g clip-path="url(#222)"></g><g clip-path="url(#223)"></g><g clip-path="url(#224)"></g><g clip-path="url(#225)"></g><g clip-path="url(#226)"></g><g clip-path="url(#227)"></g><g clip-path="url(#228)"></g><g clip-path="url(#229)"></g><g clip-path="url(#230)"></g></g></g></g></g></svg>