<svg xmlns="http://www.w3.org/2000/svg" xmlns:xlink="http://www.w3.org/1999/xlink" id="body_9" preserveAspectRatio="xMinYMin meet" viewBox="0 0 793 1123"><defs><clipPath id="1"><path d="M0 842L0 0L0 0L595 0L595 0L595 842L595 842L0 842z" /></clipPath><clipPath id="2"><path d="M10.00001 482.284L585.0039 482.284L585.0039 482.284L585.0039 84.99524L585.0039 84.99524L10.00001 84.99524z" /></clipPath><clipPath id="3"><path d="M17.34361 555.72L577.6603 555.72L577.6603 555.72L577.6603 11.5592L577.6603 11.5592L17.34361 11.5592z" /></clipPath><clipPath id="4"><path d="M17.34361 555.72L577.6603 555.72L577.6603 555.72L577.6603 11.5592L577.6603 11.5592L17.34361 11.5592z" /></clipPath><clipPath id="5"><path d="M17.34361 555.72L577.6603 555.72L577.6603 555.72L577.6603 11.5592L577.6603 11.5592L17.34361 11.5592z" /></clipPath><clipPath id="6"><path d="M17.34361 555.72L577.6603 555.72L577.6603 555.72L577.6603 11.5592L577.6603 11.5592L17.34361 11.5592z" /></clipPath><clipPath id="7"><path d="M17.34361 555.72L577.6603 555.72L577.6603 555.72L577.6603 11.5592L577.6603 11.5592L17.34361 11.5592z" /></clipPath><clipPath id="8"><path d="M17.34361 555.72L577.6603 555.72L577.6603 555.72L577.6603 11.5592L577.6603 11.5592L17.34361 11.5592z" /></clipPath><clipPath id="9"><path d="M17.34361 555.72L577.6603 555.72L577.6603 555.72L577.6603 11.5592L577.6603 11.5592L17.34361 11.5592z" /></clipPath><clipPath id="10"><path d="M17.34361 555.72L577.6603 555.72L577.6603 555.72L577.6603 11.5592L577.6603 11.5592L17.34361 11.5592z" /></clipPath><clipPath id="11"><path d="M17.34361 555.72L577.6603 555.72L577.6603 555.72L577.6603 11.5592L577.6603 11.5592L17.34361 11.5592z" /></clipPath><clipPath id="12"><path d="M17.34361 555.72L577.6603 555.72L577.6603 555.72L577.6603 11.5592L577.6603 11.5592L17.34361 11.5592z" /></clipPath><clipPath id="13"><path d="M17.34361 555.72L577.6603 555.72L577.6603 555.72L577.6603 11.5592L577.6603 11.5592L17.34361 11.5592z" /></clipPath><clipPath id="14"><path d="M17.34361 555.72L577.6603 555.72L577.6603 555.72L577.6603 11.5592L577.6603 11.5592L17.34361 11.5592z" /></clipPath><clipPath id="15"><path d="M17.34361 555.72L577.6603 555.72L577.6603 555.72L577.6603 11.5592L577.6603 11.5592L17.34361 11.5592z" /></clipPath><clipPath id="16"><path d="M17.34361 555.72L577.6603 555.72L577.6603 555.72L577.6603 11.5592L577.6603 11.5592L17.34361 11.5592z" /></clipPath><clipPath id="17"><path d="M17.34361 555.72L577.6603 555.72L577.6603 555.72L577.6603 11.5592L577.6603 11.5592L17.34361 11.5592z" /></clipPath><clipPath id="18"><path d="M17.34361 555.72L577.6603 555.72L577.6603 555.72L577.6603 11.5592L577.6603 11.5592L17.34361 11.5592z" /></clipPath><clipPath id="19"><path d="M17.34361 555.72L577.6603 555.72L577.6603 555.72L577.6603 11.5592L577.6603 11.5592L17.34361 11.5592z" /></clipPath><clipPath id="20"><path d="M17.34361 555.72L577.6603 555.72L577.6603 555.72L577.6603 11.5592L577.6603 11.5592L17.34361 11.5592z" /></clipPath><clipPath id="21"><path d="M17.34361 555.72L577.6603 555.72L577.6603 555.72L577.6603 11.5592L577.6603 11.5592L17.34361 11.5592z" /></clipPath><clipPath id="22"><path d="M17.34361 555.72L577.6603 555.72L577.6603 555.72L577.6603 11.5592L577.6603 11.5592L17.34361 11.5592z" /></clipPath><clipPath id="23"><path d="M17.34361 555.72L577.6603 555.72L577.6603 555.72L577.6603 11.5592L577.6603 11.5592L17.34361 11.5592z" /></clipPath><clipPath id="24"><path d="M17.34361 555.72L577.6603 555.72L577.6603 555.72L577.6603 11.5592L577.6603 11.5592L17.34361 11.5592z" /></clipPath><clipPath id="25"><path d="M17.34361 555.72L577.6603 555.72L577.6603 555.72L577.6603 11.5592L577.6603 11.5592L17.34361 11.5592z" /></clipPath><clipPath id="26"><path d="M17.34361 555.72L577.6603 555.72L577.6603 555.72L577.6603 11.5592L577.6603 11.5592L17.34361 11.5592z" /></clipPath><clipPath id="27"><path d="M17.34361 555.72L577.6603 555.72L577.6603 555.72L577.6603 11.5592L577.6603 11.5592L17.34361 11.5592z" /></clipPath><clipPath id="28"><path d="M17.34361 555.72L577.6603 555.72L577.6603 555.72L577.6603 11.5592L577.6603 11.5592L17.34361 11.5592z" /></clipPath><clipPath id="29"><path d="M17.34361 555.72L577.6603 555.72L577.6603 555.72L577.6603 11.5592L577.6603 11.5592L17.34361 11.5592z" /></clipPath><clipPath id="30"><path d="M17.34361 555.72L577.6603 555.72L577.6603 555.72L577.6603 11.5592L577.6603 11.5592L17.34361 11.5592z" /></clipPath><clipPath id="31"><path d="M17.34361 555.72L577.6603 555.72L577.6603 555.72L577.6603 11.5592L577.6603 11.5592L17.34361 11.5592z" /></clipPath><clipPath id="32"><path d="M17.34361 555.72L577.6603 555.72L577.6603 555.72L577.6603 11.5592L577.6603 11.5592L17.34361 11.5592z" /></clipPath><clipPath id="33"><path d="M17.34361 555.72L577.6603 555.72L577.6603 555.72L577.6603 11.5592L577.6603 11.5592L17.34361 11.5592z" /></clipPath><clipPath id="34"><path d="M17.34361 555.72L577.6603 555.72L577.6603 555.72L577.6603 11.5592L577.6603 11.5592L17.34361 11.5592z" /></clipPath><clipPath id="35"><path d="M17.34361 555.72L577.6603 555.72L577.6603 555.72L577.6603 11.5592L577.6603 11.5592L17.34361 11.5592z" /></clipPath><clipPath id="36"><path d="M17.34361 555.72L577.6603 555.72L577.6603 555.72L577.6603 11.5592L577.6603 11.5592L17.34361 11.5592z" /></clipPath><clipPath id="37"><path d="M17.34361 555.72L577.6603 555.72L577.6603 555.72L577.6603 11.5592L577.6603 11.5592L17.34361 11.5592z" /></clipPath><clipPath id="38"><path d="M17.34361 555.72L577.6603 555.72L577.6603 555.72L577.6603 11.5592L577.6603 11.5592L17.34361 11.5592z" /></clipPath><clipPath id="39"><path d="M17.34361 555.72L577.6603 555.72L577.6603 555.72L577.6603 11.5592L577.6603 11.5592L17.34361 11.5592z" /></clipPath><clipPath id="40"><path d="M17.34361 555.72L577.6603 555.72L577.6603 555.72L577.6603 11.5592L577.6603 11.5592L17.34361 11.5592z" /></clipPath><clipPath id="41"><path d="M17.34361 555.72L577.6603 555.72L577.6603 555.72L577.6603 11.5592L577.6603 11.5592L17.34361 11.5592z" /></clipPath><clipPath id="42"><path d="M17.34361 555.72L577.6603 555.72L577.6603 555.72L577.6603 11.5592L577.6603 11.5592L17.34361 11.5592z" /></clipPath><clipPath id="43"><path d="M17.34361 555.72L577.6603 555.72L577.6603 555.72L577.6603 11.5592L577.6603 11.5592L17.34361 11.5592z" /></clipPath><clipPath id="44"><path d="M17.34361 555.72L577.6603 555.72L577.6603 555.72L577.6603 11.5592L577.6603 11.5592L17.34361 11.5592z" /></clipPath><clipPath id="45"><path d="M17.34361 555.72L577.6603 555.72L577.6603 555.72L577.6603 11.5592L577.6603 11.5592L17.34361 11.5592z" /></clipPath><clipPath id="46"><path d="M17.34361 555.72L577.6603 555.72L577.6603 555.72L577.6603 11.5592L577.6603 11.5592L17.34361 11.5592z" /></clipPath><clipPath id="47"><path d="M17.34361 555.72L577.6603 555.72L577.6603 555.72L577.6603 11.5592L577.6603 11.5592L17.34361 11.5592z" /></clipPath><clipPath id="48"><path d="M17.34361 555.72L577.6603 555.72L577.6603 555.72L577.6603 11.5592L577.6603 11.5592L17.34361 11.5592z" /></clipPath><clipPath id="49"><path d="M17.34361 555.72L577.6603 555.72L577.6603 555.72L577.6603 11.5592L577.6603 11.5592L17.34361 11.5592z" /></clipPath><clipPath id="50"><path d="M17.34361 555.72L577.6603 555.72L577.6603 555.72L577.6603 11.5592L577.6603 11.5592L17.34361 11.5592z" /></clipPath><clipPath id="51"><path d="M17.34361 555.72L577.6603 555.72L577.6603 555.72L577.6603 11.5592L577.6603 11.5592L17.34361 11.5592z" /></clipPath><clipPath id="52"><path d="M17.34361 555.72L577.6603 555.72L577.6603 555.72L577.6603 11.5592L577.6603 11.5592L17.34361 11.5592z" /></clipPath><clipPath id="53"><path d="M17.34361 555.72L577.6603 555.72L577.6603 555.72L577.6603 11.5592L577.6603 11.5592L17.34361 11.5592z" /></clipPath><clipPath id="54"><path d="M17.34361 555.72L577.6603 555.72L577.6603 555.72L577.6603 11.5592L577.6603 11.5592L17.34361 11.5592z" /></clipPath><clipPath id="55"><path d="M17.34361 555.72L577.6603 555.72L577.6603 555.72L577.6603 11.5592L577.6603 11.5592L17.34361 11.5592z" /></clipPath><clipPath id="56"><path d="M17.34361 555.72L577.6603 555.72L577.6603 555.72L577.6603 11.5592L577.6603 11.5592L17.34361 11.5592z" /></clipPath><clipPath id="57"><path d="M17.34361 555.72L577.6603 555.72L577.6603 555.72L577.6603 11.5592L577.6603 11.5592L17.34361 11.5592z" /></clipPath><clipPath id="58"><path d="M17.34361 555.72L577.6603 555.72L577.6603 555.72L577.6603 11.5592L577.6603 11.5592L17.34361 11.5592z" /></clipPath><clipPath id="59"><path d="M17.34361 555.72L577.6603 555.72L577.6603 555.72L577.6603 11.5592L577.6603 11.5592L17.34361 11.5592z" /></clipPath><clipPath id="60"><path d="M17.34361 555.72L577.6603 555.72L577.6603 555.72L577.6603 11.5592L577.6603 11.5592L17.34361 11.5592z" /></clipPath><clipPath id="61"><path d="M17.34361 555.72L577.6603 555.72L577.6603 555.72L577.6603 11.5592L577.6603 11.5592L17.34361 11.5592z" /></clipPath><clipPath id="62"><path d="M17.34361 555.72L577.6603 555.72L577.6603 555.72L577.6603 11.5592L577.6603 11.5592L17.34361 11.5592z" /></clipPath><clipPath id="63"><path d="M17.34361 555.72L577.6603 555.72L577.6603 555.72L577.6603 11.5592L577.6603 11.5592L17.34361 11.5592z" /></clipPath><clipPath id="64"><path d="M17.34361 555.72L577.6603 555.72L577.6603 555.72L577.6603 11.5592L577.6603 11.5592L17.34361 11.5592z" /></clipPath><clipPath id="65"><path d="M53.32725 555.72L150.2628 555.72L150.2628 555.72L150.2628 11.5592L150.2628 11.5592L53.32725 11.5592z" /></clipPath><clipPath id="66"><path d="M150.9971 555.72L541.6766 555.72L541.6766 555.72L541.6766 11.5592L541.6766 11.5592L150.9971 11.5592z" /></clipPath><clipPath id="67"><path d="M150.9971 555.72L541.6766 555.72L541.6766 555.72L541.6766 11.5592L541.6766 11.5592L150.9971 11.5592z" /></clipPath><clipPath id="68"><path d="M150.9971 555.72L541.6766 555.72L541.6766 555.72L541.6766 11.5592L541.6766 11.5592L150.9971 11.5592z" /></clipPath><clipPath id="69"><path d="M150.9971 555.72L541.6766 555.72L541.6766 555.72L541.6766 11.5592L541.6766 11.5592L150.9971 11.5592z" /></clipPath><clipPath id="70"><path d="M150.9971 555.72L541.6766 555.72L541.6766 555.72L541.6766 11.5592L541.6766 11.5592L150.9971 11.5592z" /></clipPath><clipPath id="71"><path d="M150.9971 555.72L541.6766 555.72L541.6766 555.72L541.6766 11.5592L541.6766 11.5592L150.9971 11.5592z" /></clipPath><clipPath id="72"><path d="M150.9971 555.72L541.6766 555.72L541.6766 555.72L541.6766 11.5592L541.6766 11.5592L150.9971 11.5592z" /></clipPath><clipPath id="73"><path d="M150.9971 555.72L541.6766 555.72L541.6766 555.72L541.6766 11.5592L541.6766 11.5592L150.9971 11.5592z" /></clipPath><clipPath id="74"><path d="M150.9971 555.72L541.6766 555.72L541.6766 555.72L541.6766 11.5592L541.6766 11.5592L150.9971 11.5592z" /></clipPath><clipPath id="75"><path d="M52.59289 423.5352L542.411 423.5352L542.411 423.5352L542.411 374.3331L542.411 374.3331L52.59289 374.3331z" /></clipPath><clipPath id="76"><path d="M52.59289 423.5352L542.411 423.5352L542.411 423.5352L542.411 374.3331L542.411 374.3331L52.59289 374.3331z" /></clipPath><clipPath id="77"><path d="M52.59289 423.5352L542.411 423.5352L542.411 423.5352L542.411 374.3331L542.411 374.3331L52.59289 374.3331z" /></clipPath><clipPath id="78"><path d="M52.59289 423.5352L542.411 423.5352L542.411 423.5352L542.411 374.3331L542.411 374.3331L52.59289 374.3331z" /></clipPath><clipPath id="79"><path d="M52.59289 423.5352L542.411 423.5352L542.411 423.5352L542.411 374.3331L542.411 374.3331L52.59289 374.3331z" /></clipPath><clipPath id="80"><path d="M10.00001 83.43536L585.0039 83.43536L585.0039 83.43536L585.0039 9.99939L585.0039 9.99939L10.00001 9.99939z" /></clipPath><clipPath id="81"><path d="M8.53129 156.8713L598.9567 156.8713L598.9567 156.8713L598.9567 -63.43665L598.9567 -63.43665L8.53129 -63.43665z" /></clipPath><clipPath id="82"><path d="M17.34361 156.8713L241.3234 156.8713L241.3234 156.8713L241.3234 -63.43665L241.3234 -63.43665L17.34361 -63.43665z" /></clipPath><clipPath id="83"><path d="M17.34361 156.8713L241.3234 156.8713L241.3234 156.8713L241.3234 -63.43665L241.3234 -63.43665L17.34361 -63.43665z" /></clipPath><clipPath id="84"><path d="M17.34361 156.8713L241.3234 156.8713L241.3234 156.8713L241.3234 -63.43665L241.3234 -63.43665L17.34361 -63.43665z" /></clipPath><clipPath id="85"><path d="M17.34361 156.8713L241.3234 156.8713L241.3234 156.8713L241.3234 -63.43665L241.3234 -63.43665L17.34361 -63.43665z" /></clipPath><clipPath id="86"><path d="M17.34361 156.8713L241.3234 156.8713L241.3234 156.8713L241.3234 -63.43665L241.3234 -63.43665L17.34361 -63.43665z" /></clipPath><clipPath id="87"><path d="M17.34361 156.8713L241.3234 156.8713L241.3234 156.8713L241.3234 -63.43665L241.3234 -63.43665L17.34361 -63.43665z" /></clipPath><clipPath id="88"><path d="M17.34361 156.8713L241.3234 156.8713L241.3234 156.8713L241.3234 -63.43665L241.3234 -63.43665L17.34361 -63.43665z" /></clipPath><clipPath id="89"><path d="M241.3234 156.8713L242.7921 156.8713L242.7921 156.8713L242.7921 -63.43665L242.7921 -63.43665L241.3234 -63.43665z" /></clipPath><clipPath id="90"><path d="M17.34361 156.8713L18.81233 156.8713L18.81233 156.8713L18.81233 -63.43665L18.81233 -63.43665L17.34361 -63.43665z" /></clipPath><clipPath id="91"><path d="M10.00001 831.4826L585.0039 831.4826L585.0039 831.4826L585.0039 771.9995L585.0039 771.9995L10.00001 771.9995z" /></clipPath><clipPath id="92"><path d="M8.53129 904.9186L598.9567 904.9186L598.9567 904.9186L598.9567 698.5635L598.9567 698.5635L8.53129 698.5635z" /></clipPath><clipPath id="93"><path d="M17.34361 904.9186L577.6603 904.9186L577.6603 904.9186L577.6603 698.5635L577.6603 698.5635L17.34361 698.5635z" /></clipPath><clipPath id="94"><path d="M17.34361 904.9186L236.9173 904.9186L236.9173 904.9186L236.9173 698.5635L236.9173 698.5635L17.34361 698.5635z" /></clipPath><clipPath id="95"><path d="M17.34361 904.9186L236.9173 904.9186L236.9173 904.9186L236.9173 698.5635L236.9173 698.5635L17.34361 698.5635z" /></clipPath><clipPath id="96"><path d="M17.34361 904.9186L236.9173 904.9186L236.9173 904.9186L236.9173 698.5635L236.9173 698.5635L17.34361 698.5635z" /></clipPath><clipPath id="97"><path d="M17.34361 904.9186L236.9173 904.9186L236.9173 904.9186L236.9173 698.5635L236.9173 698.5635L17.34361 698.5635z" /></clipPath><clipPath id="98"><path d="M17.34361 904.9186L236.9173 904.9186L236.9173 904.9186L236.9173 698.5635L236.9173 698.5635L17.34361 698.5635z" /></clipPath><clipPath id="99"><path d="M17.34361 904.9186L236.9173 904.9186L236.9173 904.9186L236.9173 698.5635L236.9173 698.5635L17.34361 698.5635z" /></clipPath><clipPath id="100"><path d="M17.34361 904.9186L236.9173 904.9186L236.9173 904.9186L236.9173 698.5635L236.9173 698.5635L17.34361 698.5635z" /></clipPath><clipPath id="101"><path d="M17.34361 904.9186L236.9173 904.9186L236.9173 904.9186L236.9173 698.5635L236.9173 698.5635L17.34361 698.5635z" /></clipPath><clipPath id="102"><path d="M17.34361 904.9186L236.9173 904.9186L236.9173 904.9186L236.9173 698.5635L236.9173 698.5635L17.34361 698.5635z" /></clipPath><clipPath id="103"><path d="M17.34361 904.9186L236.9173 904.9186L236.9173 904.9186L236.9173 698.5635L236.9173 698.5635L17.34361 698.5635z" /></clipPath><clipPath id="104"><path d="M17.34361 904.9186L236.9173 904.9186L236.9173 904.9186L236.9173 698.5635L236.9173 698.5635L17.34361 698.5635z" /></clipPath><clipPath id="105"><path d="M319.8999 904.9186L577.6603 904.9186L577.6603 904.9186L577.6603 698.5635L577.6603 698.5635L319.8999 698.5635z" /></clipPath><clipPath id="106"><path d="M319.8999 904.9186L577.6603 904.9186L577.6603 904.9186L577.6603 698.5635L577.6603 698.5635L319.8999 698.5635z" /></clipPath><clipPath id="107"><path d="M319.8999 904.9186L577.6603 904.9186L577.6603 904.9186L577.6603 698.5635L577.6603 698.5635L319.8999 698.5635z" /></clipPath><clipPath id="108"><path d="M319.8999 904.9186L577.6603 904.9186L577.6603 904.9186L577.6603 698.5635L577.6603 698.5635L319.8999 698.5635z" /></clipPath></defs><g transform="matrix(1.333333 0 0 1.333333 0 0)"><g><g clip-path="url(#1)"><g clip-path="url(#2)"><path transform="matrix(1 0 0 -1 0 842)" d="M10.00001 286.28L585.0039 286.28L585.0039 286.28L585.0039 830.4408L585.0039 830.4408L10.00001 830.4408z" stroke="none" fill="#FFFFFF" fill-rule="evenodd" /><path transform="matrix(1 0 0 -1 0 842)" d="M10.00001 286.28L585.0039 286.28L585.0039 286.28L585.0039 830.4408L585.0039 830.4408L10.00001 830.4408z" stroke="none" fill="#FFFFFF" fill-rule="evenodd" /><path transform="matrix(1 0 0 -1 0 842)" d="M542.0438 523.1111L52.96007 523.1111" stroke="#000000" stroke-width="0.73436" stroke-linecap="square" fill="none" /><g clip-path="url(#3)"></g><g clip-path="url(#4)"></g><g clip-path="url(#5)"></g><g clip-path="url(#6)"></g><g clip-path="url(#7)"></g><g clip-path="url(#8)"></g><g clip-path="url(#9)"></g><g clip-path="url(#10)"></g><g clip-path="url(#11)"></g><g clip-path="url(#12)"></g><g clip-path="url(#13)"></g><g clip-path="url(#14)"></g><g clip-path="url(#15)"></g><g clip-path="url(#16)"></g><g clip-path="url(#17)"></g><path transform="matrix(1 0 0 -1 0 842)" d="M351.4774 601.3204L515.9741 601.3204L515.9741 601.3204L515.9741 602.0548L515.9741 602.0548L351.4774 602.0548z" stroke="none" fill="#0066CC" fill-rule="evenodd" /><g clip-path="url(#18)"></g><path transform="matrix(1 0 0 -1 0 842)" d="M515.9741 601.3204L519.6458 601.3204L519.6458 601.3204L519.6458 602.0548L519.6458 602.0548L515.9741 602.0548z" stroke="none" fill="#0066CC" fill-rule="evenodd" /><g clip-path="url(#19)"></g><path transform="matrix(1 0 0 -1 0 842)" d="M81.96729 588.8363L160.5438 588.8363L160.5438 588.8363L160.5438 589.5707L160.5438 589.5707L81.96729 589.5707z" stroke="none" fill="#0066CC" fill-rule="evenodd" /><g clip-path="url(#20)"></g><g clip-path="url(#21)"></g><g clip-path="url(#22)"></g><g clip-path="url(#23)"></g><g clip-path="url(#24)"></g><path transform="matrix(1 0 0 -1 0 842)" d="M284.6506 576.3522L495.412 576.3522L495.412 576.3522L495.412 577.0865L495.412 577.0865L284.6506 577.0865z" stroke="none" fill="#0066CC" fill-rule="evenodd" /><g clip-path="url(#25)"></g><path transform="matrix(1 0 0 -1 0 842)" d="M495.412 576.3522L499.0837 576.3522L499.0837 576.3522L499.0837 577.0865L499.0837 577.0865L495.412 577.0865z" stroke="none" fill="#0066CC" fill-rule="evenodd" /><g clip-path="url(#26)"></g><path transform="matrix(1 0 0 -1 0 842)" d="M499.0837 576.3522L527.7238 576.3522L527.7238 576.3522L527.7238 577.0865L527.7238 577.0865L499.0837 577.0865z" stroke="none" fill="#0066CC" fill-rule="evenodd" /><g clip-path="url(#27)"></g><path transform="matrix(1 0 0 -1 0 842)" d="M527.7238 576.3522L531.3956 576.3522L531.3956 576.3522L531.3956 577.0865L531.3956 577.0865L527.7238 577.0865z" stroke="none" fill="#0066CC" fill-rule="evenodd" /><g clip-path="url(#28)"></g><path transform="matrix(1 0 0 -1 0 842)" d="M81.96729 563.868L123.8258 563.868L123.8258 563.868L123.8258 564.6024L123.8258 564.6024L81.96729 564.6024z" stroke="none" fill="#0066CC" fill-rule="evenodd" /><g clip-path="url(#29)"></g><g clip-path="url(#30)"></g><g clip-path="url(#31)"></g><g clip-path="url(#32)"></g><g clip-path="url(#33)"></g><path transform="matrix(1 0 0 -1 0 842)" d="M367.6333 551.384L532.13 551.384L532.13 551.384L532.13 552.1183L532.13 552.1183L367.6333 552.1183z" stroke="none" fill="#0066CC" fill-rule="evenodd" /><g clip-path="url(#34)"></g><path transform="matrix(1 0 0 -1 0 842)" d="M532.13 551.384L535.8018 551.384L535.8018 551.384L535.8018 552.1183L535.8018 552.1183L532.13 552.1183z" stroke="none" fill="#0066CC" fill-rule="evenodd" /><g clip-path="url(#35)"></g><path transform="matrix(1 0 0 -1 0 842)" d="M81.96729 538.8998L167.153 538.8998L167.153 538.8998L167.153 539.6342L167.153 539.6342L81.96729 539.6342z" stroke="none" fill="#0066CC" fill-rule="evenodd" /><g clip-path="url(#36)"></g><path transform="matrix(1 0 0 -1 0 842)" d="M167.153 538.8998L170.8248 538.8998L170.8248 538.8998L170.8248 539.6342L170.8248 539.6342L167.153 539.6342z" stroke="none" fill="#0066CC" fill-rule="evenodd" /><g clip-path="url(#37)"></g><path transform="matrix(1 0 0 -1 0 842)" d="M170.8248 538.8998L257.4793 538.8998L257.4793 538.8998L257.4793 539.6342L257.4793 539.6342L170.8248 539.6342z" stroke="none" fill="#0066CC" fill-rule="evenodd" /><g clip-path="url(#38)"></g><g clip-path="url(#39)"></g><g clip-path="url(#40)"></g><g clip-path="url(#41)"></g><g clip-path="url(#42)"></g><g clip-path="url(#43)"></g><g clip-path="url(#44)"></g><g clip-path="url(#45)"></g><g clip-path="url(#46)"></g><g clip-path="url(#47)"></g><g clip-path="url(#48)"></g><g clip-path="url(#49)"></g><g clip-path="url(#50)"></g><g clip-path="url(#51)"></g><path transform="matrix(1 0 0 -1 0 842)" d="M290.5255 472.8075L405.82 472.8075L405.82 472.8075L405.82 473.5418L405.82 473.5418L290.5255 473.5418z" stroke="none" fill="#0066CC" fill-rule="evenodd" /><g clip-path="url(#52)"></g><g clip-path="url(#53)"></g><g clip-path="url(#54)"></g><g clip-path="url(#55)"></g><g clip-path="url(#56)"></g><g clip-path="url(#57)"></g><g clip-path="url(#58)"></g><g clip-path="url(#59)"></g><g clip-path="url(#60)"></g><g clip-path="url(#61)"></g><g clip-path="url(#62)"></g><g clip-path="url(#63)"></g><g clip-path="url(#64)"></g><g clip-path="url(#65)"></g><g transform="matrix(0.43394 0 0 0.4327479 54.06161 385.3485)"><g transform="matrix(1 0 0 1 0 0)"><image x="0" y="0" xlink:href="img_16.png" width="220" height="56" /></g></g><g clip-path="url(#66)"></g><g clip-path="url(#67)"></g><path transform="matrix(1 0 0 -1 0 842)" d="M151.7315 437.5582L377.9143 437.5582L377.9143 437.5582L377.9143 438.2925L377.9143 438.2925L151.7315 438.2925z" stroke="none" fill="#0066CC" fill-rule="evenodd" /><g clip-path="url(#68)"></g><g clip-path="url(#69)"></g><path transform="matrix(1 0 0 -1 0 842)" d="M151.7315 425.0741L338.9933 425.0741L338.9933 425.0741L338.9933 425.8084L338.9933 425.8084L151.7315 425.8084z" stroke="none" fill="#0066CC" fill-rule="evenodd" /><g clip-path="url(#70)"></g><g clip-path="url(#71)"></g><g clip-path="url(#72)"></g><g clip-path="url(#73)"></g><g clip-path="url(#74)"></g><path transform="matrix(1 0 0 -1 0 842)" d="M150.63 467.2997L53.69443 467.2997" stroke="#000000" stroke-width="0.73436" stroke-linecap="square" fill="none" /><g clip-path="url(#75)"><path transform="matrix(1 0 0 -1 0 842)" d="M52.96007 467.2997L52.96007 418.832" stroke="#000000" stroke-width="0.73436" stroke-linecap="square" fill="none" /></g><g clip-path="url(#76)"><path transform="matrix(1 0 0 -1 0 842)" d="M150.63 467.2997L150.63 418.832" stroke="#000000" stroke-width="0.73436" stroke-linecap="square" fill="none" /></g><g clip-path="url(#77)"><path transform="matrix(1 0 0 -1 0 842)" d="M150.63 418.832L52.96007 418.832" stroke="#000000" stroke-width="0.73436" stroke-linecap="square" fill="none" /></g><path transform="matrix(1 0 0 -1 0 842)" d="M542.0438 467.2997L151.3643 467.2997" stroke="#000000" stroke-width="0.73436" stroke-linecap="square" fill="none" /><g clip-path="url(#78)"><path transform="matrix(1 0 0 -1 0 842)" d="M150.63 467.2997L150.63 418.832" stroke="#000000" stroke-width="0.73436" stroke-linecap="square" fill="none" /></g><g clip-path="url(#79)"><path transform="matrix(1 0 0 -1 0 842)" d="M542.0438 467.2997L542.0438 418.832" stroke="#000000" stroke-width="0.73436" stroke-linecap="square" fill="none" /></g><path transform="matrix(1 0 0 -1 0 842)" d="M542.0438 418.832L150.63 418.832" stroke="#000000" stroke-width="0.73436" stroke-linecap="square" fill="none" /></g><g clip-path="url(#80)"><g clip-path="url(#81)"></g><path transform="matrix(1 0 0 -1 0 842)" d="M10.00001 730.6589L585.0039 730.6589L585.0039 730.6589L585.0039 832.0006L585.0039 832.0006L10.00001 832.0006z" stroke="none" fill="#FFFFFF" fill-rule="evenodd" /><path transform="matrix(1 0 0 -1 0 842)" d="M10.00001 730.6589L585.0039 730.6589L585.0039 730.6589L585.0039 832.0006L585.0039 832.0006L10.00001 832.0006z" stroke="none" fill="#FFFFFF" fill-rule="evenodd" /><path transform="matrix(1 0 0 -1 0 842)" d="M577.2931 764.0723L17.71079 764.0723" stroke="#000000" stroke-width="0.73436" stroke-linecap="square" fill="none" /><g clip-path="url(#82)"></g><g clip-path="url(#83)"></g><g clip-path="url(#84)"></g><g clip-path="url(#85)"></g><g clip-path="url(#86)"></g><g clip-path="url(#87)"></g><g clip-path="url(#88)"></g><g clip-path="url(#89)"></g><g transform="matrix(0.1935941 0 0 0.1949628 446.2098 21.01477)"><g transform="matrix(1 0 0 1 0 0)"><image x="0" y="0" xlink:href="img_01.png" width="679" height="113" /></g></g><g clip-path="url(#90)"></g></g><g clip-path="url(#91)"><g clip-path="url(#92)"></g><path transform="matrix(1 0 0 -1 0 842)" d="M10.00001 -17.38827L585.0039 -17.38827L585.0039 -17.38827L585.0039 70.00056L585.0039 70.00056L10.00001 70.00056z" stroke="none" fill="#FFFFFF" fill-rule="evenodd" /><path transform="matrix(1 0 0 -1 0 842)" d="M10.00001 -17.38827L585.0039 -17.38827L585.0039 -17.38827L585.0039 70.00056L585.0039 70.00056L10.00001 70.00056z" stroke="none" fill="#FFFFFF" fill-rule="evenodd" /><path transform="matrix(1 0 0 -1 0 842)" d="M577.2931 58.61799L17.71079 58.61799" stroke="#000000" stroke-width="0.73436" stroke-linecap="square" fill="none" /><g clip-path="url(#93)"></g><g clip-path="url(#94)"></g><g clip-path="url(#95)"></g><g clip-path="url(#96)"></g><g clip-path="url(#97)"></g><g clip-path="url(#98)"></g><g clip-path="url(#99)"></g><g clip-path="url(#100)"></g><g clip-path="url(#101)"></g><g clip-path="url(#102)"></g><g clip-path="url(#103)"></g><g clip-path="url(#104)"></g><g clip-path="url(#105)"></g><g clip-path="url(#106)"></g><g clip-path="url(#107)"></g><g clip-path="url(#108)"></g></g></g></g></g></svg>