<svg xmlns="http://www.w3.org/2000/svg" xmlns:xlink="http://www.w3.org/1999/xlink" id="body_3" preserveAspectRatio="xMinYMin meet" viewBox="0 0 793 1123"><defs><clipPath id="1"><path d="M0 842L0 0L0 0L595 0L595 0L595 842L595 842L0 842z" /></clipPath><clipPath id="2"><path d="M10.00001 551.3138L585.0039 551.3138L585.0039 551.3138L585.0039 84.99524L585.0039 84.99524L10.00001 84.99524z" /></clipPath><clipPath id="3"><path d="M17.34361 624.7498L577.6603 624.7498L577.6603 624.7498L577.6603 11.5592L577.6603 11.5592L17.34361 11.5592z" /></clipPath><clipPath id="4"><path d="M17.34361 624.7498L577.6603 624.7498L577.6603 624.7498L577.6603 11.5592L577.6603 11.5592L17.34361 11.5592z" /></clipPath><clipPath id="5"><path d="M17.34361 624.7498L577.6603 624.7498L577.6603 624.7498L577.6603 11.5592L577.6603 11.5592L17.34361 11.5592z" /></clipPath><clipPath id="6"><path d="M17.34361 624.7498L577.6603 624.7498L577.6603 624.7498L577.6603 11.5592L577.6603 11.5592L17.34361 11.5592z" /></clipPath><clipPath id="7"><path d="M17.34361 624.7498L577.6603 624.7498L577.6603 624.7498L577.6603 11.5592L577.6603 11.5592L17.34361 11.5592z" /></clipPath><clipPath id="8"><path d="M17.34361 624.7498L577.6603 624.7498L577.6603 624.7498L577.6603 11.5592L577.6603 11.5592L17.34361 11.5592z" /></clipPath><clipPath id="9"><path d="M17.34361 624.7498L577.6603 624.7498L577.6603 624.7498L577.6603 11.5592L577.6603 11.5592L17.34361 11.5592z" /></clipPath><clipPath id="10"><path d="M17.34361 624.7498L577.6603 624.7498L577.6603 624.7498L577.6603 11.5592L577.6603 11.5592L17.34361 11.5592z" /></clipPath><clipPath id="11"><path d="M17.34361 624.7498L577.6603 624.7498L577.6603 624.7498L577.6603 11.5592L577.6603 11.5592L17.34361 11.5592z" /></clipPath><clipPath id="12"><path d="M17.34361 624.7498L577.6603 624.7498L577.6603 624.7498L577.6603 11.5592L577.6603 11.5592L17.34361 11.5592z" /></clipPath><clipPath id="13"><path d="M17.34361 624.7498L577.6603 624.7498L577.6603 624.7498L577.6603 11.5592L577.6603 11.5592L17.34361 11.5592z" /></clipPath><clipPath id="14"><path d="M17.34361 624.7498L577.6603 624.7498L577.6603 624.7498L577.6603 11.5592L577.6603 11.5592L17.34361 11.5592z" /></clipPath><clipPath id="15"><path d="M17.34361 624.7498L577.6603 624.7498L577.6603 624.7498L577.6603 11.5592L577.6603 11.5592L17.34361 11.5592z" /></clipPath><clipPath id="16"><path d="M17.34361 624.7498L577.6603 624.7498L577.6603 624.7498L577.6603 11.5592L577.6603 11.5592L17.34361 11.5592z" /></clipPath><clipPath id="17"><path d="M17.34361 624.7498L577.6603 624.7498L577.6603 624.7498L577.6603 11.5592L577.6603 11.5592L17.34361 11.5592z" /></clipPath><clipPath id="18"><path d="M17.34361 624.7498L577.6603 624.7498L577.6603 624.7498L577.6603 11.5592L577.6603 11.5592L17.34361 11.5592z" /></clipPath><clipPath id="19"><path d="M17.34361 624.7498L577.6603 624.7498L577.6603 624.7498L577.6603 11.5592L577.6603 11.5592L17.34361 11.5592z" /></clipPath><clipPath id="20"><path d="M17.34361 624.7498L577.6603 624.7498L577.6603 624.7498L577.6603 11.5592L577.6603 11.5592L17.34361 11.5592z" /></clipPath><clipPath id="21"><path d="M17.34361 624.7498L577.6603 624.7498L577.6603 624.7498L577.6603 11.5592L577.6603 11.5592L17.34361 11.5592z" /></clipPath><clipPath id="22"><path d="M17.34361 624.7498L577.6603 624.7498L577.6603 624.7498L577.6603 11.5592L577.6603 11.5592L17.34361 11.5592z" /></clipPath><clipPath id="23"><path d="M17.34361 624.7498L577.6603 624.7498L577.6603 624.7498L577.6603 11.5592L577.6603 11.5592L17.34361 11.5592z" /></clipPath><clipPath id="24"><path d="M17.34361 624.7498L577.6603 624.7498L577.6603 624.7498L577.6603 11.5592L577.6603 11.5592L17.34361 11.5592z" /></clipPath><clipPath id="25"><path d="M17.34361 624.7498L577.6603 624.7498L577.6603 624.7498L577.6603 11.5592L577.6603 11.5592L17.34361 11.5592z" /></clipPath><clipPath id="26"><path d="M17.34361 624.7498L577.6603 624.7498L577.6603 624.7498L577.6603 11.5592L577.6603 11.5592L17.34361 11.5592z" /></clipPath><clipPath id="27"><path d="M17.34361 624.7498L577.6603 624.7498L577.6603 624.7498L577.6603 11.5592L577.6603 11.5592L17.34361 11.5592z" /></clipPath><clipPath id="28"><path d="M17.34361 624.7498L577.6603 624.7498L577.6603 624.7498L577.6603 11.5592L577.6603 11.5592L17.34361 11.5592z" /></clipPath><clipPath id="29"><path d="M17.34361 624.7498L577.6603 624.7498L577.6603 624.7498L577.6603 11.5592L577.6603 11.5592L17.34361 11.5592z" /></clipPath><clipPath id="30"><path d="M17.34361 624.7498L577.6603 624.7498L577.6603 624.7498L577.6603 11.5592L577.6603 11.5592L17.34361 11.5592z" /></clipPath><clipPath id="31"><path d="M17.34361 624.7498L577.6603 624.7498L577.6603 624.7498L577.6603 11.5592L577.6603 11.5592L17.34361 11.5592z" /></clipPath><clipPath id="32"><path d="M17.34361 624.7498L577.6603 624.7498L577.6603 624.7498L577.6603 11.5592L577.6603 11.5592L17.34361 11.5592z" /></clipPath><clipPath id="33"><path d="M17.34361 624.7498L577.6603 624.7498L577.6603 624.7498L577.6603 11.5592L577.6603 11.5592L17.34361 11.5592z" /></clipPath><clipPath id="34"><path d="M17.34361 624.7498L577.6603 624.7498L577.6603 624.7498L577.6603 11.5592L577.6603 11.5592L17.34361 11.5592z" /></clipPath><clipPath id="35"><path d="M17.34361 624.7498L577.6603 624.7498L577.6603 624.7498L577.6603 11.5592L577.6603 11.5592L17.34361 11.5592z" /></clipPath><clipPath id="36"><path d="M17.34361 624.7498L577.6603 624.7498L577.6603 624.7498L577.6603 11.5592L577.6603 11.5592L17.34361 11.5592z" /></clipPath><clipPath id="37"><path d="M17.34361 624.7498L577.6603 624.7498L577.6603 624.7498L577.6603 11.5592L577.6603 11.5592L17.34361 11.5592z" /></clipPath><clipPath id="38"><path d="M17.34361 624.7498L577.6603 624.7498L577.6603 624.7498L577.6603 11.5592L577.6603 11.5592L17.34361 11.5592z" /></clipPath><clipPath id="39"><path d="M17.34361 624.7498L577.6603 624.7498L577.6603 624.7498L577.6603 11.5592L577.6603 11.5592L17.34361 11.5592z" /></clipPath><clipPath id="40"><path d="M17.34361 624.7498L577.6603 624.7498L577.6603 624.7498L577.6603 11.5592L577.6603 11.5592L17.34361 11.5592z" /></clipPath><clipPath id="41"><path d="M17.34361 624.7498L577.6603 624.7498L577.6603 624.7498L577.6603 11.5592L577.6603 11.5592L17.34361 11.5592z" /></clipPath><clipPath id="42"><path d="M17.34361 624.7498L577.6603 624.7498L577.6603 624.7498L577.6603 11.5592L577.6603 11.5592L17.34361 11.5592z" /></clipPath><clipPath id="43"><path d="M17.34361 624.7498L577.6603 624.7498L577.6603 624.7498L577.6603 11.5592L577.6603 11.5592L17.34361 11.5592z" /></clipPath><clipPath id="44"><path d="M17.34361 624.7498L577.6603 624.7498L577.6603 624.7498L577.6603 11.5592L577.6603 11.5592L17.34361 11.5592z" /></clipPath><clipPath id="45"><path d="M17.34361 624.7498L577.6603 624.7498L577.6603 624.7498L577.6603 11.5592L577.6603 11.5592L17.34361 11.5592z" /></clipPath><clipPath id="46"><path d="M17.34361 624.7498L577.6603 624.7498L577.6603 624.7498L577.6603 11.5592L577.6603 11.5592L17.34361 11.5592z" /></clipPath><clipPath id="47"><path d="M17.34361 624.7498L577.6603 624.7498L577.6603 624.7498L577.6603 11.5592L577.6603 11.5592L17.34361 11.5592z" /></clipPath><clipPath id="48"><path d="M17.34361 624.7498L577.6603 624.7498L577.6603 624.7498L577.6603 11.5592L577.6603 11.5592L17.34361 11.5592z" /></clipPath><clipPath id="49"><path d="M17.34361 624.7498L577.6603 624.7498L577.6603 624.7498L577.6603 11.5592L577.6603 11.5592L17.34361 11.5592z" /></clipPath><clipPath id="50"><path d="M17.34361 624.7498L577.6603 624.7498L577.6603 624.7498L577.6603 11.5592L577.6603 11.5592L17.34361 11.5592z" /></clipPath><clipPath id="51"><path d="M17.34361 624.7498L577.6603 624.7498L577.6603 624.7498L577.6603 11.5592L577.6603 11.5592L17.34361 11.5592z" /></clipPath><clipPath id="52"><path d="M17.34361 624.7498L577.6603 624.7498L577.6603 624.7498L577.6603 11.5592L577.6603 11.5592L17.34361 11.5592z" /></clipPath><clipPath id="53"><path d="M17.34361 624.7498L577.6603 624.7498L577.6603 624.7498L577.6603 11.5592L577.6603 11.5592L17.34361 11.5592z" /></clipPath><clipPath id="54"><path d="M17.34361 624.7498L577.6603 624.7498L577.6603 624.7498L577.6603 11.5592L577.6603 11.5592L17.34361 11.5592z" /></clipPath><clipPath id="55"><path d="M17.34361 624.7498L577.6603 624.7498L577.6603 624.7498L577.6603 11.5592L577.6603 11.5592L17.34361 11.5592z" /></clipPath><clipPath id="56"><path d="M17.34361 624.7498L577.6603 624.7498L577.6603 624.7498L577.6603 11.5592L577.6603 11.5592L17.34361 11.5592z" /></clipPath><clipPath id="57"><path d="M17.34361 624.7498L577.6603 624.7498L577.6603 624.7498L577.6603 11.5592L577.6603 11.5592L17.34361 11.5592z" /></clipPath><clipPath id="58"><path d="M17.34361 624.7498L577.6603 624.7498L577.6603 624.7498L577.6603 11.5592L577.6603 11.5592L17.34361 11.5592z" /></clipPath><clipPath id="59"><path d="M17.34361 624.7498L577.6603 624.7498L577.6603 624.7498L577.6603 11.5592L577.6603 11.5592L17.34361 11.5592z" /></clipPath><clipPath id="60"><path d="M17.34361 624.7498L577.6603 624.7498L577.6603 624.7498L577.6603 11.5592L577.6603 11.5592L17.34361 11.5592z" /></clipPath><clipPath id="61"><path d="M17.34361 624.7498L577.6603 624.7498L577.6603 624.7498L577.6603 11.5592L577.6603 11.5592L17.34361 11.5592z" /></clipPath><clipPath id="62"><path d="M17.34361 624.7498L577.6603 624.7498L577.6603 624.7498L577.6603 11.5592L577.6603 11.5592L17.34361 11.5592z" /></clipPath><clipPath id="63"><path d="M17.34361 624.7498L577.6603 624.7498L577.6603 624.7498L577.6603 11.5592L577.6603 11.5592L17.34361 11.5592z" /></clipPath><clipPath id="64"><path d="M17.34361 624.7498L577.6603 624.7498L577.6603 624.7498L577.6603 11.5592L577.6603 11.5592L17.34361 11.5592z" /></clipPath><clipPath id="65"><path d="M17.34361 624.7498L577.6603 624.7498L577.6603 624.7498L577.6603 11.5592L577.6603 11.5592L17.34361 11.5592z" /></clipPath><clipPath id="66"><path d="M17.34361 624.7498L577.6603 624.7498L577.6603 624.7498L577.6603 11.5592L577.6603 11.5592L17.34361 11.5592z" /></clipPath><clipPath id="67"><path d="M17.34361 624.7498L577.6603 624.7498L577.6603 624.7498L577.6603 11.5592L577.6603 11.5592L17.34361 11.5592z" /></clipPath><clipPath id="68"><path d="M17.34361 624.7498L577.6603 624.7498L577.6603 624.7498L577.6603 11.5592L577.6603 11.5592L17.34361 11.5592z" /></clipPath><clipPath id="69"><path d="M17.34361 624.7498L577.6603 624.7498L577.6603 624.7498L577.6603 11.5592L577.6603 11.5592L17.34361 11.5592z" /></clipPath><clipPath id="70"><path d="M17.34361 624.7498L577.6603 624.7498L577.6603 624.7498L577.6603 11.5592L577.6603 11.5592L17.34361 11.5592z" /></clipPath><clipPath id="71"><path d="M83.436 624.7498L191.3869 624.7498L191.3869 624.7498L191.3869 11.5592L191.3869 11.5592L83.436 11.5592z" /></clipPath><clipPath id="72"><path d="M83.436 624.7498L191.3869 624.7498L191.3869 624.7498L191.3869 11.5592L191.3869 11.5592L83.436 11.5592z" /></clipPath><clipPath id="73"><path d="M83.436 624.7498L191.3869 624.7498L191.3869 624.7498L191.3869 11.5592L191.3869 11.5592L83.436 11.5592z" /></clipPath><clipPath id="74"><path d="M222.2301 624.7498L395.539 624.7498L395.539 624.7498L395.539 11.5592L395.539 11.5592L222.2301 11.5592z" /></clipPath><clipPath id="75"><path d="M222.2301 624.7498L395.539 624.7498L395.539 624.7498L395.539 11.5592L395.539 11.5592L222.2301 11.5592z" /></clipPath><clipPath id="76"><path d="M426.3821 624.7498L541.6766 624.7498L541.6766 624.7498L541.6766 11.5592L541.6766 11.5592L426.3821 11.5592z" /></clipPath><clipPath id="77"><path d="M426.3821 624.7498L541.6766 624.7498L541.6766 624.7498L541.6766 11.5592L541.6766 11.5592L426.3821 11.5592z" /></clipPath><clipPath id="78"><path d="M83.436 624.7498L191.3869 624.7498L191.3869 624.7498L191.3869 11.5592L191.3869 11.5592L83.436 11.5592z" /></clipPath><clipPath id="79"><path d="M83.436 624.7498L191.3869 624.7498L191.3869 624.7498L191.3869 11.5592L191.3869 11.5592L83.436 11.5592z" /></clipPath><clipPath id="80"><path d="M222.2301 624.7498L395.539 624.7498L395.539 624.7498L395.539 11.5592L395.539 11.5592L222.2301 11.5592z" /></clipPath><clipPath id="81"><path d="M222.2301 624.7498L395.539 624.7498L395.539 624.7498L395.539 11.5592L395.539 11.5592L222.2301 11.5592z" /></clipPath><clipPath id="82"><path d="M222.2301 624.7498L395.539 624.7498L395.539 624.7498L395.539 11.5592L395.539 11.5592L222.2301 11.5592z" /></clipPath><clipPath id="83"><path d="M426.3821 624.7498L541.6766 624.7498L541.6766 624.7498L541.6766 11.5592L541.6766 11.5592L426.3821 11.5592z" /></clipPath><clipPath id="84"><path d="M426.3821 624.7498L541.6766 624.7498L541.6766 624.7498L541.6766 11.5592L541.6766 11.5592L426.3821 11.5592z" /></clipPath><clipPath id="85"><path d="M53.32725 624.7498L541.6766 624.7498L541.6766 624.7498L541.6766 11.5592L541.6766 11.5592L53.32725 11.5592z" /></clipPath><clipPath id="86"><path d="M53.32725 624.7498L541.6766 624.7498L541.6766 624.7498L541.6766 11.5592L541.6766 11.5592L53.32725 11.5592z" /></clipPath><clipPath id="87"><path d="M52.59289 212.7739L542.411 212.7739L542.411 212.7739L542.411 99.68237L542.411 99.68237L52.59289 99.68237z" /></clipPath><clipPath id="88"><path d="M52.59289 212.7739L542.411 212.7739L542.411 212.7739L542.411 99.68237L542.411 99.68237L52.59289 99.68237z" /></clipPath><clipPath id="89"><path d="M52.59289 212.7739L542.411 212.7739L542.411 212.7739L542.411 99.68237L542.411 99.68237L52.59289 99.68237z" /></clipPath><clipPath id="90"><path d="M52.59289 212.7739L542.411 212.7739L542.411 212.7739L542.411 99.68237L542.411 99.68237L52.59289 99.68237z" /></clipPath><clipPath id="91"><path d="M52.59289 212.7739L542.411 212.7739L542.411 212.7739L542.411 99.68237L542.411 99.68237L52.59289 99.68237z" /></clipPath><clipPath id="92"><path d="M10.00001 83.43536L585.0039 83.43536L585.0039 83.43536L585.0039 9.99939L585.0039 9.99939L10.00001 9.99939z" /></clipPath><clipPath id="93"><path d="M8.53129 156.8713L598.9567 156.8713L598.9567 156.8713L598.9567 -63.43665L598.9567 -63.43665L8.53129 -63.43665z" /></clipPath><clipPath id="94"><path d="M17.34361 156.8713L241.3234 156.8713L241.3234 156.8713L241.3234 -63.43665L241.3234 -63.43665L17.34361 -63.43665z" /></clipPath><clipPath id="95"><path d="M17.34361 156.8713L241.3234 156.8713L241.3234 156.8713L241.3234 -63.43665L241.3234 -63.43665L17.34361 -63.43665z" /></clipPath><clipPath id="96"><path d="M17.34361 156.8713L241.3234 156.8713L241.3234 156.8713L241.3234 -63.43665L241.3234 -63.43665L17.34361 -63.43665z" /></clipPath><clipPath id="97"><path d="M17.34361 156.8713L241.3234 156.8713L241.3234 156.8713L241.3234 -63.43665L241.3234 -63.43665L17.34361 -63.43665z" /></clipPath><clipPath id="98"><path d="M17.34361 156.8713L241.3234 156.8713L241.3234 156.8713L241.3234 -63.43665L241.3234 -63.43665L17.34361 -63.43665z" /></clipPath><clipPath id="99"><path d="M17.34361 156.8713L241.3234 156.8713L241.3234 156.8713L241.3234 -63.43665L241.3234 -63.43665L17.34361 -63.43665z" /></clipPath><clipPath id="100"><path d="M17.34361 156.8713L241.3234 156.8713L241.3234 156.8713L241.3234 -63.43665L241.3234 -63.43665L17.34361 -63.43665z" /></clipPath><clipPath id="101"><path d="M241.3234 156.8713L242.7921 156.8713L242.7921 156.8713L242.7921 -63.43665L242.7921 -63.43665L241.3234 -63.43665z" /></clipPath><clipPath id="102"><path d="M17.34361 156.8713L18.81233 156.8713L18.81233 156.8713L18.81233 -63.43665L18.81233 -63.43665L17.34361 -63.43665z" /></clipPath><clipPath id="103"><path d="M10.00001 831.4826L585.0039 831.4826L585.0039 831.4826L585.0039 771.9995L585.0039 771.9995L10.00001 771.9995z" /></clipPath><clipPath id="104"><path d="M8.53129 904.9186L598.9567 904.9186L598.9567 904.9186L598.9567 698.5635L598.9567 698.5635L8.53129 698.5635z" /></clipPath><clipPath id="105"><path d="M17.34361 904.9186L577.6603 904.9186L577.6603 904.9186L577.6603 698.5635L577.6603 698.5635L17.34361 698.5635z" /></clipPath><clipPath id="106"><path d="M17.34361 904.9186L236.9173 904.9186L236.9173 904.9186L236.9173 698.5635L236.9173 698.5635L17.34361 698.5635z" /></clipPath><clipPath id="107"><path d="M17.34361 904.9186L236.9173 904.9186L236.9173 904.9186L236.9173 698.5635L236.9173 698.5635L17.34361 698.5635z" /></clipPath><clipPath id="108"><path d="M17.34361 904.9186L236.9173 904.9186L236.9173 904.9186L236.9173 698.5635L236.9173 698.5635L17.34361 698.5635z" /></clipPath><clipPath id="109"><path d="M17.34361 904.9186L236.9173 904.9186L236.9173 904.9186L236.9173 698.5635L236.9173 698.5635L17.34361 698.5635z" /></clipPath><clipPath id="110"><path d="M17.34361 904.9186L236.9173 904.9186L236.9173 904.9186L236.9173 698.5635L236.9173 698.5635L17.34361 698.5635z" /></clipPath><clipPath id="111"><path d="M17.34361 904.9186L236.9173 904.9186L236.9173 904.9186L236.9173 698.5635L236.9173 698.5635L17.34361 698.5635z" /></clipPath><clipPath id="112"><path d="M17.34361 904.9186L236.9173 904.9186L236.9173 904.9186L236.9173 698.5635L236.9173 698.5635L17.34361 698.5635z" /></clipPath><clipPath id="113"><path d="M17.34361 904.9186L236.9173 904.9186L236.9173 904.9186L236.9173 698.5635L236.9173 698.5635L17.34361 698.5635z" /></clipPath><clipPath id="114"><path d="M17.34361 904.9186L236.9173 904.9186L236.9173 904.9186L236.9173 698.5635L236.9173 698.5635L17.34361 698.5635z" /></clipPath><clipPath id="115"><path d="M17.34361 904.9186L236.9173 904.9186L236.9173 904.9186L236.9173 698.5635L236.9173 698.5635L17.34361 698.5635z" /></clipPath><clipPath id="116"><path d="M17.34361 904.9186L236.9173 904.9186L236.9173 904.9186L236.9173 698.5635L236.9173 698.5635L17.34361 698.5635z" /></clipPath><clipPath id="117"><path d="M319.8999 904.9186L577.6603 904.9186L577.6603 904.9186L577.6603 698.5635L577.6603 698.5635L319.8999 698.5635z" /></clipPath><clipPath id="118"><path d="M319.8999 904.9186L577.6603 904.9186L577.6603 904.9186L577.6603 698.5635L577.6603 698.5635L319.8999 698.5635z" /></clipPath><clipPath id="119"><path d="M319.8999 904.9186L577.6603 904.9186L577.6603 904.9186L577.6603 698.5635L577.6603 698.5635L319.8999 698.5635z" /></clipPath><clipPath id="120"><path d="M319.8999 904.9186L577.6603 904.9186L577.6603 904.9186L577.6603 698.5635L577.6603 698.5635L319.8999 698.5635z" /></clipPath></defs><g transform="matrix(1.333333 0 0 1.333333 0 0)"><g><g clip-path="url(#1)"><g clip-path="url(#2)"><path transform="matrix(1 0 0 -1 0 842)" d="M10.00001 217.2502L585.0039 217.2502L585.0039 217.2502L585.0039 830.4408L585.0039 830.4408L10.00001 830.4408z" stroke="none" fill="#FFFFFF" fill-rule="evenodd" /><path transform="matrix(1 0 0 -1 0 842)" d="M10.00001 217.2502L585.0039 217.2502L585.0039 217.2502L585.0039 830.4408L585.0039 830.4408L10.00001 830.4408z" stroke="none" fill="#FFFFFF" fill-rule="evenodd" /><path transform="matrix(1 0 0 -1 0 842)" d="M542.0438 628.1246L52.96007 628.1246" stroke="#000000" stroke-width="0.73436" stroke-linecap="square" fill="none" /><path transform="matrix(1 0 0 -1 0 842)" d="M542.0438 534.1265L52.96007 534.1265" stroke="#000000" stroke-width="0.73436" stroke-linecap="square" fill="none" /><path transform="matrix(1 0 0 -1 0 842)" d="M542.0438 297.6626L52.96007 297.6626" stroke="#000000" stroke-width="0.73436" stroke-linecap="square" fill="none" /><path transform="matrix(1 0 0 -1 0 842)" d="M81.96729 429.4802L542.411 429.4802L542.411 429.4802L542.411 454.4485L542.411 454.4485L81.96729 454.4485z" stroke="none" fill="#FFFFFF" fill-rule="evenodd" /><path transform="matrix(1 0 0 -1 0 842)" d="M81.96729 346.4975L542.411 346.4975L542.411 346.4975L542.411 371.4658L542.411 371.4658L81.96729 371.4658z" stroke="none" fill="#FFFFFF" fill-rule="evenodd" /><g clip-path="url(#3)"></g><g clip-path="url(#4)"></g><g clip-path="url(#5)"></g><g clip-path="url(#6)"></g><g clip-path="url(#7)"></g><g clip-path="url(#8)"></g><g clip-path="url(#9)"></g><g clip-path="url(#10)"></g><g clip-path="url(#11)"></g><g clip-path="url(#12)"></g><g clip-path="url(#13)"></g><g clip-path="url(#14)"></g><g clip-path="url(#15)"></g><g clip-path="url(#16)"></g><g clip-path="url(#17)"></g><g clip-path="url(#18)"></g><g clip-path="url(#19)"></g><g clip-path="url(#20)"></g><g clip-path="url(#21)"></g><g clip-path="url(#22)"></g><g clip-path="url(#23)"></g><g clip-path="url(#24)"></g><g clip-path="url(#25)"></g><g clip-path="url(#26)"></g><g clip-path="url(#27)"></g><g clip-path="url(#28)"></g><g clip-path="url(#29)"></g><g clip-path="url(#30)"></g><g clip-path="url(#31)"></g><g clip-path="url(#32)"></g><g clip-path="url(#33)"></g><g clip-path="url(#34)"></g><g clip-path="url(#35)"></g><g clip-path="url(#36)"></g><g clip-path="url(#37)"></g><g clip-path="url(#38)"></g><g clip-path="url(#39)"></g><g clip-path="url(#40)"></g><g clip-path="url(#41)"></g><g clip-path="url(#42)"></g><g clip-path="url(#43)"></g><g clip-path="url(#44)"></g><g clip-path="url(#45)"></g><g clip-path="url(#46)"></g><g clip-path="url(#47)"></g><path transform="matrix(1 0 0 -1 0 842)" d="M84.90472 330.3416L132.6381 330.3416L132.6381 330.3416L132.6381 331.076L132.6381 331.076L84.90472 331.076z" stroke="none" fill="#0066CC" fill-rule="evenodd" /><g clip-path="url(#48)"></g><path transform="matrix(1 0 0 -1 0 842)" d="M132.6381 330.3416L136.3099 330.3416L136.3099 330.3416L136.3099 331.076L136.3099 331.076L132.6381 331.076z" stroke="none" fill="#0066CC" fill-rule="evenodd" /><g clip-path="url(#49)"></g><path transform="matrix(1 0 0 -1 0 842)" d="M136.3099 330.3416L172.2936 330.3416L172.2936 330.3416L172.2936 331.076L172.2936 331.076L136.3099 331.076z" stroke="none" fill="#0066CC" fill-rule="evenodd" /><g clip-path="url(#50)"></g><path transform="matrix(1 0 0 -1 0 842)" d="M172.2936 330.3416L175.9654 330.3416L175.9654 330.3416L175.9654 331.076L175.9654 331.076L172.2936 331.076z" stroke="none" fill="#0066CC" fill-rule="evenodd" /><g clip-path="url(#51)"></g><path transform="matrix(1 0 0 -1 0 842)" d="M175.9654 330.3416L383.7892 330.3416L383.7892 330.3416L383.7892 331.076L383.7892 331.076L175.9654 331.076z" stroke="none" fill="#0066CC" fill-rule="evenodd" /><g clip-path="url(#52)"></g><path transform="matrix(1 0 0 -1 0 842)" d="M383.7892 330.3416L387.461 330.3416L387.461 330.3416L387.461 331.076L387.461 331.076L383.7892 331.076z" stroke="none" fill="#0066CC" fill-rule="evenodd" /><g clip-path="url(#53)"></g><path transform="matrix(1 0 0 -1 0 842)" d="M387.461 330.3416L392.6016 330.3416L392.6016 330.3416L392.6016 331.076L392.6016 331.076L387.461 331.076z" stroke="none" fill="#0066CC" fill-rule="evenodd" /><g clip-path="url(#54)"></g><path transform="matrix(1 0 0 -1 0 842)" d="M392.6016 330.3416L396.2733 330.3416L396.2733 330.3416L396.2733 331.076L396.2733 331.076L392.6016 331.076z" stroke="none" fill="#0066CC" fill-rule="evenodd" /><g clip-path="url(#55)"></g><path transform="matrix(1 0 0 -1 0 842)" d="M396.2733 330.3416L419.7729 330.3416L419.7729 330.3416L419.7729 331.076L419.7729 331.076L396.2733 331.076z" stroke="none" fill="#0066CC" fill-rule="evenodd" /><g clip-path="url(#56)"></g><path transform="matrix(1 0 0 -1 0 842)" d="M419.7729 330.3416L423.4447 330.3416L423.4447 330.3416L423.4447 331.076L423.4447 331.076L419.7729 331.076z" stroke="none" fill="#0066CC" fill-rule="evenodd" /><g clip-path="url(#57)"></g><path transform="matrix(1 0 0 -1 0 842)" d="M423.4447 330.3416L444.0067 330.3416L444.0067 330.3416L444.0067 331.076L444.0067 331.076L423.4447 331.076z" stroke="none" fill="#0066CC" fill-rule="evenodd" /><g clip-path="url(#58)"></g><path transform="matrix(1 0 0 -1 0 842)" d="M444.0067 330.3416L447.6786 330.3416L447.6786 330.3416L447.6786 331.076L447.6786 331.076L444.0067 331.076z" stroke="none" fill="#0066CC" fill-rule="evenodd" /><g clip-path="url(#59)"></g><path transform="matrix(1 0 0 -1 0 842)" d="M447.6786 330.3416L452.8191 330.3416L452.8191 330.3416L452.8191 331.076L452.8191 331.076L447.6786 331.076z" stroke="none" fill="#0066CC" fill-rule="evenodd" /><g clip-path="url(#60)"></g><g clip-path="url(#61)"></g><g clip-path="url(#62)"></g><g clip-path="url(#63)"></g><g clip-path="url(#64)"></g><g clip-path="url(#65)"></g><g clip-path="url(#66)"></g><g clip-path="url(#67)"></g><g clip-path="url(#68)"></g><g clip-path="url(#69)"></g><g clip-path="url(#70)"></g><g transform="matrix(0.293744 0 0 0.293744 56.99905 112.1666)"><g transform="matrix(1 0 0 1 0 0)"><image x="0" y="0" xlink:href="img_03.png" width="75" height="75" /></g></g><g clip-path="url(#71)"></g><g clip-path="url(#72)"></g><g clip-path="url(#73)"></g><g transform="matrix(0.293744 0 0 0.293744 195.7931 112.1666)"><g transform="matrix(1 0 0 1 0 0)"><image x="0" y="0" xlink:href="img_06.png" width="75" height="75" /></g></g><g clip-path="url(#74)"></g><g clip-path="url(#75)"></g><g transform="matrix(0.293744 0 0 0.293744 399.9451 112.1666)"><g transform="matrix(1 0 0 1 0 0)"><image x="0" y="0" xlink:href="img_04.png" width="75" height="75" /></g></g><g clip-path="url(#76)"></g><g clip-path="url(#77)"></g><g transform="matrix(0.293744 0 0 0.293744 56.99905 157.6969)"><g transform="matrix(1 0 0 1 0 0)"><image x="0" y="0" xlink:href="img_08.png" width="75" height="75" /></g></g><g clip-path="url(#78)"></g><g clip-path="url(#79)"></g><g transform="matrix(0.293744 0 0 0.293744 195.7931 157.6969)"><g transform="matrix(1 0 0 1 0 0)"><image x="0" y="0" xlink:href="img_09.png" width="75" height="75" /></g></g><g clip-path="url(#80)"></g><g clip-path="url(#81)"></g><g clip-path="url(#82)"></g><g transform="matrix(0.293744 0 0 0.293744 399.9451 157.6969)"><g transform="matrix(1 0 0 1 0 0)"><image x="0" y="0" xlink:href="img_05.png" width="75" height="75" /></g></g><g clip-path="url(#83)"></g><g clip-path="url(#84)"></g><g clip-path="url(#85)"></g><g clip-path="url(#86)"></g><path transform="matrix(1 0 0 -1 0 842)" d="M469.7094 634.3667L535.8018 634.3667L535.8018 634.3667L535.8018 635.101L535.8018 635.101L469.7094 635.101z" stroke="none" fill="#0066CC" fill-rule="evenodd" /><path transform="matrix(1 0 0 -1 0 842)" d="M83.06882 741.9504L53.69443 741.9504" stroke="#000000" stroke-width="0.73436" stroke-linecap="square" fill="none" /><path transform="matrix(1 0 0 -1 0 842)" d="M52.96007 741.9504L52.96007 696.42" stroke="#000000" stroke-width="0.73436" stroke-linecap="square" fill="none" /><path transform="matrix(1 0 0 -1 0 842)" d="M83.06882 741.9504L83.06882 696.42" stroke="#000000" stroke-width="0.73436" stroke-linecap="square" fill="none" /><g clip-path="url(#87)"><path transform="matrix(1 0 0 -1 0 842)" d="M83.06882 696.42L52.96007 696.42" stroke="#000000" stroke-width="0.73436" stroke-linecap="square" fill="none" /></g><path transform="matrix(1 0 0 -1 0 842)" d="M191.7541 741.9504L83.80318 741.9504" stroke="#000000" stroke-width="0.73436" stroke-linecap="square" fill="none" /><path transform="matrix(1 0 0 -1 0 842)" d="M83.06882 741.9504L83.06882 696.42" stroke="#000000" stroke-width="0.73436" stroke-linecap="square" fill="none" /><path transform="matrix(1 0 0 -1 0 842)" d="M191.7541 741.9504L191.7541 696.42" stroke="#000000" stroke-width="0.73436" stroke-linecap="square" fill="none" /><path transform="matrix(1 0 0 -1 0 842)" d="M191.7541 696.42L83.06882 696.42" stroke="#000000" stroke-width="0.73436" stroke-linecap="square" fill="none" /><path transform="matrix(1 0 0 -1 0 842)" d="M221.8629 741.9504L192.4885 741.9504" stroke="#000000" stroke-width="0.73436" stroke-linecap="square" fill="none" /><path transform="matrix(1 0 0 -1 0 842)" d="M191.7541 741.9504L191.7541 696.42" stroke="#000000" stroke-width="0.73436" stroke-linecap="square" fill="none" /><path transform="matrix(1 0 0 -1 0 842)" d="M221.8629 741.9504L221.8629 696.42" stroke="#000000" stroke-width="0.73436" stroke-linecap="square" fill="none" /><path transform="matrix(1 0 0 -1 0 842)" d="M221.8629 696.42L191.7541 696.42" stroke="#000000" stroke-width="0.73436" stroke-linecap="square" fill="none" /><path transform="matrix(1 0 0 -1 0 842)" d="M395.9062 741.9504L222.5972 741.9504" stroke="#000000" stroke-width="0.73436" stroke-linecap="square" fill="none" /><path transform="matrix(1 0 0 -1 0 842)" d="M221.8629 741.9504L221.8629 696.42" stroke="#000000" stroke-width="0.73436" stroke-linecap="square" fill="none" /><path transform="matrix(1 0 0 -1 0 842)" d="M395.9062 741.9504L395.9062 696.42" stroke="#000000" stroke-width="0.73436" stroke-linecap="square" fill="none" /><path transform="matrix(1 0 0 -1 0 842)" d="M395.9062 696.42L221.8629 696.42" stroke="#000000" stroke-width="0.73436" stroke-linecap="square" fill="none" /><path transform="matrix(1 0 0 -1 0 842)" d="M426.0149 741.9504L396.6405 741.9504" stroke="#000000" stroke-width="0.73436" stroke-linecap="square" fill="none" /><path transform="matrix(1 0 0 -1 0 842)" d="M395.9062 741.9504L395.9062 696.42" stroke="#000000" stroke-width="0.73436" stroke-linecap="square" fill="none" /><path transform="matrix(1 0 0 -1 0 842)" d="M426.0149 741.9504L426.0149 696.42" stroke="#000000" stroke-width="0.73436" stroke-linecap="square" fill="none" /><path transform="matrix(1 0 0 -1 0 842)" d="M426.0149 696.42L395.9062 696.42" stroke="#000000" stroke-width="0.73436" stroke-linecap="square" fill="none" /><path transform="matrix(1 0 0 -1 0 842)" d="M542.0438 741.9504L426.7493 741.9504" stroke="#000000" stroke-width="0.73436" stroke-linecap="square" fill="none" /><path transform="matrix(1 0 0 -1 0 842)" d="M426.0149 741.9504L426.0149 696.42" stroke="#000000" stroke-width="0.73436" stroke-linecap="square" fill="none" /><path transform="matrix(1 0 0 -1 0 842)" d="M542.0438 741.9504L542.0438 696.42" stroke="#000000" stroke-width="0.73436" stroke-linecap="square" fill="none" /><path transform="matrix(1 0 0 -1 0 842)" d="M542.0438 696.42L426.0149 696.42" stroke="#000000" stroke-width="0.73436" stroke-linecap="square" fill="none" /><path transform="matrix(1 0 0 -1 0 842)" d="M83.06882 696.42L53.69443 696.42" stroke="#000000" stroke-width="0.73436" stroke-linecap="square" fill="none" /><path transform="matrix(1 0 0 -1 0 842)" d="M52.96007 696.42L52.96007 650.8898" stroke="#000000" stroke-width="0.73436" stroke-linecap="square" fill="none" /><path transform="matrix(1 0 0 -1 0 842)" d="M83.06882 696.42L83.06882 650.8898" stroke="#000000" stroke-width="0.73436" stroke-linecap="square" fill="none" /><g clip-path="url(#88)"><path transform="matrix(1 0 0 -1 0 842)" d="M83.06882 650.8898L52.96007 650.8898" stroke="#000000" stroke-width="0.73436" stroke-linecap="square" fill="none" /></g><path transform="matrix(1 0 0 -1 0 842)" d="M191.7541 696.42L83.80318 696.42" stroke="#000000" stroke-width="0.73436" stroke-linecap="square" fill="none" /><path transform="matrix(1 0 0 -1 0 842)" d="M83.06882 696.42L83.06882 650.8898" stroke="#000000" stroke-width="0.73436" stroke-linecap="square" fill="none" /><path transform="matrix(1 0 0 -1 0 842)" d="M191.7541 696.42L191.7541 650.8898" stroke="#000000" stroke-width="0.73436" stroke-linecap="square" fill="none" /><path transform="matrix(1 0 0 -1 0 842)" d="M191.7541 650.8898L83.06882 650.8898" stroke="#000000" stroke-width="0.73436" stroke-linecap="square" fill="none" /><path transform="matrix(1 0 0 -1 0 842)" d="M221.8629 696.42L192.4885 696.42" stroke="#000000" stroke-width="0.73436" stroke-linecap="square" fill="none" /><path transform="matrix(1 0 0 -1 0 842)" d="M191.7541 696.42L191.7541 650.8898" stroke="#000000" stroke-width="0.73436" stroke-linecap="square" fill="none" /><path transform="matrix(1 0 0 -1 0 842)" d="M221.8629 696.42L221.8629 650.8898" stroke="#000000" stroke-width="0.73436" stroke-linecap="square" fill="none" /><path transform="matrix(1 0 0 -1 0 842)" d="M221.8629 650.8898L191.7541 650.8898" stroke="#000000" stroke-width="0.73436" stroke-linecap="square" fill="none" /><path transform="matrix(1 0 0 -1 0 842)" d="M395.9062 696.42L222.5972 696.42" stroke="#000000" stroke-width="0.73436" stroke-linecap="square" fill="none" /><path transform="matrix(1 0 0 -1 0 842)" d="M221.8629 696.42L221.8629 650.8898" stroke="#000000" stroke-width="0.73436" stroke-linecap="square" fill="none" /><path transform="matrix(1 0 0 -1 0 842)" d="M395.9062 696.42L395.9062 650.8898" stroke="#000000" stroke-width="0.73436" stroke-linecap="square" fill="none" /><path transform="matrix(1 0 0 -1 0 842)" d="M395.9062 650.8898L221.8629 650.8898" stroke="#000000" stroke-width="0.73436" stroke-linecap="square" fill="none" /><path transform="matrix(1 0 0 -1 0 842)" d="M426.0149 696.42L396.6405 696.42" stroke="#000000" stroke-width="0.73436" stroke-linecap="square" fill="none" /><path transform="matrix(1 0 0 -1 0 842)" d="M395.9062 696.42L395.9062 650.8898" stroke="#000000" stroke-width="0.73436" stroke-linecap="square" fill="none" /><path transform="matrix(1 0 0 -1 0 842)" d="M426.0149 696.42L426.0149 650.8898" stroke="#000000" stroke-width="0.73436" stroke-linecap="square" fill="none" /><path transform="matrix(1 0 0 -1 0 842)" d="M426.0149 650.8898L395.9062 650.8898" stroke="#000000" stroke-width="0.73436" stroke-linecap="square" fill="none" /><path transform="matrix(1 0 0 -1 0 842)" d="M542.0438 696.42L426.7493 696.42" stroke="#000000" stroke-width="0.73436" stroke-linecap="square" fill="none" /><path transform="matrix(1 0 0 -1 0 842)" d="M426.0149 696.42L426.0149 650.8898" stroke="#000000" stroke-width="0.73436" stroke-linecap="square" fill="none" /><path transform="matrix(1 0 0 -1 0 842)" d="M542.0438 696.42L542.0438 650.8898" stroke="#000000" stroke-width="0.73436" stroke-linecap="square" fill="none" /><path transform="matrix(1 0 0 -1 0 842)" d="M542.0438 650.8898L426.0149 650.8898" stroke="#000000" stroke-width="0.73436" stroke-linecap="square" fill="none" /><path transform="matrix(1 0 0 -1 0 842)" d="M542.0438 650.1554L53.69443 650.1554" stroke="#000000" stroke-width="0.73436" stroke-linecap="square" fill="none" /><g clip-path="url(#89)"><path transform="matrix(1 0 0 -1 0 842)" d="M52.96007 650.1554L52.96007 629.5933" stroke="#000000" stroke-width="0.73436" stroke-linecap="square" fill="none" /></g><g clip-path="url(#90)"><path transform="matrix(1 0 0 -1 0 842)" d="M542.0438 650.1554L542.0438 629.5933" stroke="#000000" stroke-width="0.73436" stroke-linecap="square" fill="none" /></g><g clip-path="url(#91)"><path transform="matrix(1 0 0 -1 0 842)" d="M542.0438 629.5933L52.96007 629.5933" stroke="#000000" stroke-width="0.73436" stroke-linecap="square" fill="none" /></g></g><g clip-path="url(#92)"><g clip-path="url(#93)"></g><path transform="matrix(1 0 0 -1 0 842)" d="M10.00001 730.6589L585.0039 730.6589L585.0039 730.6589L585.0039 832.0006L585.0039 832.0006L10.00001 832.0006z" stroke="none" fill="#FFFFFF" fill-rule="evenodd" /><path transform="matrix(1 0 0 -1 0 842)" d="M10.00001 730.6589L585.0039 730.6589L585.0039 730.6589L585.0039 832.0006L585.0039 832.0006L10.00001 832.0006z" stroke="none" fill="#FFFFFF" fill-rule="evenodd" /><path transform="matrix(1 0 0 -1 0 842)" d="M577.2931 764.0723L17.71079 764.0723" stroke="#000000" stroke-width="0.73436" stroke-linecap="square" fill="none" /><g clip-path="url(#94)"></g><g clip-path="url(#95)"></g><g clip-path="url(#96)"></g><g clip-path="url(#97)"></g><g clip-path="url(#98)"></g><g clip-path="url(#99)"></g><g clip-path="url(#100)"></g><g clip-path="url(#101)"></g><g transform="matrix(0.1935941 0 0 0.1949628 446.2098 21.01477)"><g transform="matrix(1 0 0 1 0 0)"><image x="0" y="0" xlink:href="img_01.png" width="679" height="113" /></g></g><g clip-path="url(#102)"></g></g><g clip-path="url(#103)"><g clip-path="url(#104)"></g><path transform="matrix(1 0 0 -1 0 842)" d="M10.00001 -17.38827L585.0039 -17.38827L585.0039 -17.38827L585.0039 70.00056L585.0039 70.00056L10.00001 70.00056z" stroke="none" fill="#FFFFFF" fill-rule="evenodd" /><path transform="matrix(1 0 0 -1 0 842)" d="M10.00001 -17.38827L585.0039 -17.38827L585.0039 -17.38827L585.0039 70.00056L585.0039 70.00056L10.00001 70.00056z" stroke="none" fill="#FFFFFF" fill-rule="evenodd" /><path transform="matrix(1 0 0 -1 0 842)" d="M577.2931 58.61799L17.71079 58.61799" stroke="#000000" stroke-width="0.73436" stroke-linecap="square" fill="none" /><g clip-path="url(#105)"></g><g clip-path="url(#106)"></g><g clip-path="url(#107)"></g><g clip-path="url(#108)"></g><g clip-path="url(#109)"></g><g clip-path="url(#110)"></g><g clip-path="url(#111)"></g><g clip-path="url(#112)"></g><g clip-path="url(#113)"></g><g clip-path="url(#114)"></g><g clip-path="url(#115)"></g><g clip-path="url(#116)"></g><g clip-path="url(#117)"></g><g clip-path="url(#118)"></g><g clip-path="url(#119)"></g><g clip-path="url(#120)"></g></g></g></g></g></svg>